<svg width="29" height="28" viewBox="0 0 29 28" fill="none" xmlns="http://www.w3.org/2000/svg">
<path d="M14.5 24C13.1167 24 11.8167 23.7373 10.6 23.212C9.38333 22.6873 8.325 21.975 7.425 21.075C6.525 20.175 5.81267 19.1167 5.288 17.9C4.76267 16.6833 4.5 15.3833 4.5 14C4.5 12.6167 4.76267 11.3167 5.288 10.1C5.81267 8.88333 6.525 7.825 7.425 6.925C8.325 6.025 9.38333 5.31233 10.6 4.787C11.8167 4.26233 13.1167 4 14.5 4C15.8833 4 17.1833 4.26233 18.4 4.787C19.6167 5.31233 20.675 6.025 21.575 6.925C22.475 7.825 23.1873 8.88333 23.712 10.1C24.2373 11.3167 24.5 12.6167 24.5 14C24.5 15.3833 24.2373 16.6833 23.712 17.9C23.1873 19.1167 22.475 20.175 21.575 21.075C20.675 21.975 19.6167 22.6873 18.4 23.212C17.1833 23.7373 15.8833 24 14.5 24ZM14.5 22C16.7167 22 18.6043 21.221 20.163 19.663C21.721 18.1043 22.5 16.2167 22.5 14C22.5 11.7833 21.721 9.89567 20.163 8.337C18.6043 6.779 16.7167 6 14.5 6C12.2833 6 10.396 6.779 8.838 8.337C7.27933 9.89567 6.5 11.7833 6.5 14C6.5 16.2167 7.27933 18.1043 8.838 19.663C10.396 21.221 12.2833 22 14.5 22Z" fill="#191E26"/>
<path d="M11.5 16.9107V11.0893C11.5 10.654 11.6984 10.3366 12.0951 10.1371C12.4919 9.93766 12.8792 9.95579 13.2571 10.1916L17.9615 13.0751C18.3205 13.2746 18.5 13.5829 18.5 14C18.5 14.4171 18.3205 14.7254 17.9615 14.9249L13.2571 17.8084C12.8792 18.0442 12.4919 18.0623 12.0951 17.8629C11.6984 17.6634 11.5 17.346 11.5 16.9107Z" fill="#191E26"/>
<line x1="14.5" y1="1" x2="14.5" y2="7" stroke="#191E26" stroke-width="2" stroke-linecap="round"/>
<line x1="14.5" y1="21" x2="14.5" y2="27" stroke="#191E26" stroke-width="2" stroke-linecap="round"/>
<line x1="1.5" y1="14" x2="7.5" y2="14" stroke="#191E26" stroke-width="2" stroke-linecap="round"/>
<line x1="21.5" y1="14" x2="27.5" y2="14" stroke="#191E26" stroke-width="2" stroke-linecap="round"/>
</svg>
