<svg width="22" height="22" viewBox="0 0 22 22" fill="none" xmlns="http://www.w3.org/2000/svg">
<path d="M19.2757 14.9445C18.7858 14.1023 18.2014 12.4953 18.2014 9.625V9.01484C18.2014 5.01875 14.996 1.74453 11.0514 1.71875H10.9999C10.0527 1.71875 9.11483 1.90559 8.23997 2.26858C7.36512 2.63156 6.57046 3.16356 5.90151 3.83411C5.23256 4.50466 4.70245 5.30058 4.34155 6.1763C3.98065 7.05202 3.79605 7.99033 3.79831 8.9375V9.625C3.79831 12.4953 3.21393 14.1023 2.72409 14.9445C2.57393 15.2063 2.49498 15.5029 2.49512 15.8047C2.49525 16.1065 2.57446 16.403 2.72485 16.6647C2.87525 16.9264 3.09158 17.1441 3.35229 17.2961C3.61301 17.4481 3.90901 17.5292 4.21081 17.5312H7.23581C7.32538 18.4675 7.76064 19.3367 8.45663 19.9693C9.15261 20.6019 10.0594 20.9524 10.9999 20.9524C11.9404 20.9524 12.8471 20.6019 13.5431 19.9693C14.2391 19.3367 14.6744 18.4675 14.7639 17.5312H17.7889C18.0907 17.5292 18.3867 17.4481 18.6474 17.2961C18.9082 17.1441 19.1245 16.9264 19.2749 16.6647C19.4253 16.403 19.5045 16.1065 19.5046 15.8047C19.5048 15.5029 19.4258 15.2063 19.2757 14.9445ZM10.9999 18.9062C10.6041 18.9047 10.2208 18.7673 9.91419 18.517C9.60758 18.2667 9.39623 17.9187 9.31549 17.5312H12.6842C12.6035 17.9187 12.3922 18.2667 12.0855 18.517C11.7789 18.7673 11.3957 18.9047 10.9999 18.9062ZM4.77799 15.4688C5.66315 13.6125 5.86081 11.3008 5.86081 9.625V8.9375C5.8574 8.26087 5.98788 7.59025 6.24473 6.96425C6.50157 6.33825 6.87971 5.76924 7.35737 5.28998C7.83503 4.81073 8.40277 4.43069 9.02791 4.17176C9.65305 3.91282 10.3232 3.78011 10.9999 3.78125H11.0428C13.853 3.79844 16.1389 6.14453 16.1389 9.01484V9.625C16.1389 11.3008 16.3366 13.6125 17.2217 15.4688H4.77799Z" fill="#191E26"/>
</svg>
