<svg width="23" height="17" viewBox="0 0 23 17" fill="none" xmlns="http://www.w3.org/2000/svg">
<path d="M17.0645 4.6288V4.43478C17.0645 3.08587 16.0629 1.89402 14.2359 1.07174C12.6964 0.378804 10.6653 0 8.53226 0C6.39919 0 4.36815 0.378804 2.82863 1.07174C1.00161 1.89402 0 3.08587 0 4.43478V8.13043C0 9.47935 1.00161 10.6712 2.82863 11.4935C3.82116 11.9204 4.86573 12.2155 5.93548 12.3712V12.5652C5.93548 13.9141 6.9371 15.106 8.76411 15.9283C10.3036 16.6212 12.3347 17 14.4677 17C16.6008 17 18.6319 16.6212 20.1714 15.9283C21.9984 15.106 23 13.9141 23 12.5652V8.86957C23 6.82772 20.6536 5.18315 17.0645 4.6288ZM20.7742 8.86957C20.7742 9.59022 18.7524 10.9484 15.0427 11.0777C16.3504 10.2924 17.0645 9.26685 17.0645 8.13043V6.87391C19.4665 7.30815 20.7742 8.26902 20.7742 8.86957ZM6.67742 10.237V8.76793C7.29343 8.83478 7.9126 8.86871 8.53226 8.86957C9.15192 8.86871 9.77108 8.83478 10.3871 8.76793V10.237C9.77187 10.3138 9.15229 10.3508 8.53226 10.3478C7.91222 10.3508 7.29264 10.3138 6.67742 10.237ZM14.8387 7.49293V8.13043C14.8387 8.57391 14.069 9.25761 12.6129 9.74728V8.36141C13.1694 8.22125 13.7125 8.03267 14.2359 7.79783C14.4432 7.70925 14.6446 7.60741 14.8387 7.49293ZM8.53226 2.21739C12.6129 2.21739 14.8387 3.68641 14.8387 4.43478C14.8387 5.18315 12.6129 6.65217 8.53226 6.65217C4.45161 6.65217 2.22581 5.18315 2.22581 4.43478C2.22581 3.68641 4.45161 2.21739 8.53226 2.21739ZM2.22581 8.13043V7.49293C2.41994 7.60741 2.6213 7.70925 2.82863 7.79783C3.35202 8.03267 3.8951 8.22125 4.45161 8.36141V9.74728C2.99556 9.25761 2.22581 8.57391 2.22581 8.13043ZM8.16129 12.5652H8.53226C8.86613 12.5652 9.2 12.556 9.53387 12.5375C9.80282 12.6299 10.0903 12.7223 10.3871 12.7962V14.1821C8.93105 13.6924 8.16129 13.0087 8.16129 12.5652ZM12.6129 14.6717V13.2027C13.2289 13.2696 13.8481 13.3035 14.4677 13.3043C15.0874 13.3035 15.7066 13.2696 16.3226 13.2027V14.6717C15.0905 14.8195 13.845 14.8195 12.6129 14.6717ZM18.5484 14.1821V12.7962C19.1049 12.656 19.648 12.4674 20.1714 12.2326C20.3787 12.144 20.5801 12.0422 20.7742 11.9277V12.5652C20.7742 13.0087 20.0044 13.6924 18.5484 14.1821Z" fill="url(#paint0_linear_201_7158)"/>
<defs>
<linearGradient id="paint0_linear_201_7158" x1="1.38038e-07" y1="7.11413" x2="23" y2="7.11413" gradientUnits="userSpaceOnUse">
<stop stop-color="#096AB4"/>
<stop offset="1" stop-color="#64BCFF"/>
</linearGradient>
</defs>
</svg>
