<svg width="19" height="19" viewBox="0 0 19 19" fill="none" xmlns="http://www.w3.org/2000/svg">
<path fill-rule="evenodd" clip-rule="evenodd" d="M13.9222 1.58333C14.2192 1.2865 14.6218 1.11975 15.0417 1.11975C15.4615 1.11975 15.8642 1.2865 16.1611 1.58333L17.4167 2.83891C17.7135 3.13583 17.8802 3.53849 17.8802 3.95833C17.8802 4.37817 17.7135 4.78083 17.4167 5.07775L16.1611 6.33333L12.6667 2.83891L13.9222 1.58333ZM11.5473 3.95833L7.58892 7.91666C7.29196 8.21353 7.12509 8.61619 7.125 9.03608V10.2917C7.125 10.7116 7.29182 11.1143 7.58875 11.4112C7.88568 11.7082 8.28841 11.875 8.70833 11.875H9.96392C10.3838 11.8749 10.7865 11.708 11.0833 11.4111L15.0417 7.45275L11.5473 3.95833Z" fill="black"/>
<path d="M4.75 11.0834H3.95833C3.53841 11.0834 3.13568 11.2502 2.83875 11.5471C2.54181 11.8441 2.375 12.2468 2.375 12.6667C2.375 13.0866 2.54181 13.4894 2.83875 13.7863C3.13568 14.0832 3.53841 14.25 3.95833 14.25H12.2708" stroke="black" stroke-width="2" stroke-linecap="round" stroke-linejoin="round"/>
</svg>
