<svg width="21" height="19" viewBox="0 0 21 19" fill="none" xmlns="http://www.w3.org/2000/svg">
<mask id="path-1-inside-1_1_3437" fill="white">
<path fill-rule="evenodd" clip-rule="evenodd" d="M4.04513 0.988398V0.988394L4.03705 0.791863C4.01921 0.361646 4.3623 0 4.79288 0H16.2071C16.6377 0 16.9808 0.361658 16.9629 0.791881L16.9548 0.988817C16.8961 2.4223 16.8306 4.02234 16.4202 5.51313C18.4072 4.82776 18.7263 2.66741 18.7263 2.66741L18.0374 1.97826C17.9453 1.88574 17.8824 1.76812 17.8567 1.64008C17.831 1.51205 17.8436 1.37927 17.8929 1.25834L18.2281 0.418429C18.2772 0.295254 18.362 0.189589 18.4716 0.115024C18.5812 0.0404597 18.7106 0.000405081 18.8432 1.25737e-05H20.3286C20.4228 -0.000565834 20.516 0.0188175 20.6022 0.0568875C20.6884 0.0949575 20.7655 0.150851 20.8286 0.220892C20.8916 0.290932 20.9391 0.373532 20.968 0.463257C20.9968 0.552982 21.0063 0.647799 20.9959 0.74147C20.7943 2.45425 19.8166 6.6476 15.3599 7.75087C14.9356 8.26613 14.3938 8.74141 13.9173 9.15943L13.9173 9.15944L13.9172 9.1595C13.5922 9.44466 13.2975 9.70316 13.0913 9.92952C12.4396 10.6446 11.8157 11 11.3772 11H9.62284C9.18426 11 8.56037 10.6446 7.90875 9.92952C7.70248 9.70315 7.40778 9.44462 7.0827 9.15944L7.08269 9.15943L7.08268 9.15942L7.08267 9.15941C6.60618 8.7414 6.06441 8.26612 5.6401 7.75087C1.18337 6.6476 0.205681 2.45425 0.00409558 0.74147C-0.00632588 0.647799 0.00319593 0.552982 0.0320346 0.463257C0.0608732 0.373532 0.108375 0.290932 0.171415 0.220892C0.234455 0.150851 0.311605 0.0949575 0.397789 0.0568875C0.483972 0.0188175 0.577237 -0.000565834 0.671446 1.25737e-05H2.15684C2.28939 0.000405081 2.41879 0.0404597 2.5284 0.115024C2.63801 0.189589 2.72282 0.295254 2.77191 0.418429L3.10712 1.25834C3.1564 1.37927 3.16898 1.51205 3.14327 1.64008C3.11757 1.76812 3.05472 1.88574 2.96258 1.97826L2.2737 2.66741C2.2737 2.66741 2.5928 4.82775 4.57981 5.51312C4.16932 4.0222 4.10381 2.42197 4.04513 0.988398ZM6.91441 16.375C7.11314 16.1286 7.3059 15.9107 7.48887 15.7038C8.11188 14.9993 8.62145 14.4231 8.86711 13.2906C8.9483 12.9163 9.26307 12.625 9.64608 12.625H11.4799C11.8629 12.625 12.1777 12.9163 12.2589 13.2906C12.5046 14.423 13.0141 14.9992 13.6371 15.7036L13.6371 15.7037L13.6371 15.7037L13.6371 15.7037C13.8201 15.9106 14.0129 16.1286 14.2116 16.375H15.6255C16.0398 16.375 16.3755 16.7108 16.3755 17.125V18.25C16.3755 18.6642 16.0398 19 15.6255 19H5.50049C5.08627 19 4.75049 18.6642 4.75049 18.25V17.125C4.75049 16.7108 5.08628 16.375 5.50049 16.375H6.91441Z"/>
</mask>
<path d="M4.04513 0.988394H6.04513V0.9473L6.04344 0.906242L4.04513 0.988394ZM4.04513 0.988398H2.04513V1.02932L2.0468 1.07021L4.04513 0.988398ZM4.03705 0.791863L6.03536 0.709711L6.03533 0.709017L4.03705 0.791863ZM16.9629 0.791881L14.9647 0.709004L14.9646 0.709705L16.9629 0.791881ZM16.9548 0.988817L14.9565 0.90664L14.9565 0.906989L16.9548 0.988817ZM16.4202 5.51313L14.4919 4.98224L13.4845 8.64134L17.0723 7.40382L16.4202 5.51313ZM18.7263 2.66741L20.7048 2.95966L20.8518 1.96476L20.1408 1.25349L18.7263 2.66741ZM18.0374 1.97826L16.6203 3.38959L16.6229 3.39219L18.0374 1.97826ZM17.8567 1.64008L15.8959 2.03375L15.8959 2.03378L17.8567 1.64008ZM17.8929 1.25834L19.745 2.01311L19.7477 2.00641L19.7504 1.99969L17.8929 1.25834ZM18.2281 0.418429L20.0856 1.15978L20.086 1.15889L18.2281 0.418429ZM18.4716 0.115024L19.5965 1.76867L19.5965 1.76867L18.4716 0.115024ZM18.8432 1.25737e-05V-2L18.8372 -1.99998L18.8432 1.25737e-05ZM20.3286 1.25737e-05V2.00005L20.3408 1.99997L20.3286 1.25737e-05ZM20.968 0.463257L22.872 -0.148703L22.872 -0.14874L20.968 0.463257ZM20.9959 0.74147L22.9822 0.975251L22.9836 0.962624L20.9959 0.74147ZM15.3599 7.75087L14.8793 5.80947L14.2368 5.96853L13.816 6.4795L15.3599 7.75087ZM13.9173 9.15943L15.1667 10.7212L15.2021 10.6928L15.2362 10.6629L13.9173 9.15943ZM13.9173 9.15944L12.6679 7.5977L12.6359 7.62332L12.6049 7.65023L13.9173 9.15944ZM13.9172 9.1595L12.6049 7.65027L12.5983 7.65604L13.9172 9.1595ZM13.0913 9.92952L14.5696 11.2766L14.5696 11.2766L13.0913 9.92952ZM7.90875 9.92952L6.43043 11.2766L6.43043 11.2766L7.90875 9.92952ZM7.0827 9.15944L5.75395 10.6543L5.76376 10.6629L7.0827 9.15944ZM7.08269 9.15943L8.41142 7.66461L8.37262 7.63012L8.33208 7.59769L7.08269 9.15943ZM7.08268 9.15942L5.66847 10.5736L5.74679 10.652L5.83329 10.7212L7.08268 9.15942ZM7.08267 9.15941L8.49689 7.7452L8.45071 7.69902L8.40161 7.65595L7.08267 9.15941ZM5.6401 7.75087L7.184 6.4795L6.76322 5.96853L6.1207 5.80947L5.6401 7.75087ZM0.00409558 0.74147L-1.98368 0.962622L-1.98219 0.975246L0.00409558 0.74147ZM0.0320346 0.463257L-1.87203 -0.148731V-0.148731L0.0320346 0.463257ZM0.171415 0.220892L-1.31513 -1.11708H-1.31513L0.171415 0.220892ZM0.397789 0.0568875L1.20592 1.88635L1.20592 1.88635L0.397789 0.0568875ZM0.671446 1.25737e-05L0.659167 2.00001H0.671446V1.25737e-05ZM2.15684 1.25737e-05L2.16276 -1.99999H2.15684V1.25737e-05ZM2.5284 0.115024L1.40347 1.76867L2.5284 0.115024ZM2.77191 0.418429L0.914033 1.1589L0.914383 1.15978L2.77191 0.418429ZM3.10712 1.25834L1.2496 1.99969L1.25228 2.00642L1.25502 2.01313L3.10712 1.25834ZM2.96258 1.97826L4.37708 3.39219L4.37967 3.38959L2.96258 1.97826ZM2.2737 2.66741L0.859203 1.25349L0.148217 1.96476L0.295169 2.95966L2.2737 2.66741ZM4.57981 5.51312L3.92767 7.40381L7.51551 8.64135L6.50807 4.98223L4.57981 5.51312ZM7.48887 15.7038L5.99069 14.3788L5.99069 14.3788L7.48887 15.7038ZM6.91441 16.375V18.375H7.8707L8.47109 17.6307L6.91441 16.375ZM8.86711 13.2906L6.91257 12.8666V12.8666L8.86711 13.2906ZM12.2589 13.2906L14.2134 12.8666V12.8666L12.2589 13.2906ZM13.6371 15.7036L15.1422 14.3866L15.1353 14.3787L13.6371 15.7036ZM13.6371 15.7037L12.1319 17.0207L12.1371 17.0266L12.1423 17.0324L13.6371 15.7037ZM13.6371 15.7037L12.1423 17.0324L12.1505 17.0416L13.6371 15.7037ZM13.6371 15.7037L15.1353 14.3788L15.1296 14.3723L15.1237 14.3658L13.6371 15.7037ZM14.2116 16.375L12.6549 17.6306L13.2553 18.375H14.2116V16.375ZM2.04513 0.988394V0.988398H6.04513V0.988394H2.04513ZM2.03874 0.874015L2.04682 1.07055L6.04344 0.906242L6.03536 0.709711L2.03874 0.874015ZM4.79288 -2C3.21171 -2 1.97439 -0.678053 2.03876 0.874708L6.03533 0.709017C6.06403 1.40135 5.51289 2 4.79288 2V-2ZM16.2071 -2H4.79288V2H16.2071V-2ZM18.9612 0.874759C19.0256 -0.678012 17.7883 -2 16.2071 -2V2C15.4871 2 14.9359 1.40133 14.9647 0.709004L18.9612 0.874759ZM18.9531 1.07099L18.9612 0.874058L14.9646 0.709705L14.9565 0.90664L18.9531 1.07099ZM18.3484 6.04402C18.8297 4.29587 18.8961 2.4647 18.9532 1.07064L14.9565 0.906989C14.8962 2.3799 14.8315 3.7488 14.4919 4.98224L18.3484 6.04402ZM18.7263 2.66741C16.7478 2.37517 16.7479 2.37435 16.748 2.37354C16.748 2.37329 16.7482 2.37248 16.7482 2.37196C16.7484 2.37092 16.7485 2.36991 16.7487 2.36893C16.749 2.36696 16.7493 2.36511 16.7495 2.36338C16.7501 2.35992 16.7506 2.35691 16.751 2.35435C16.7518 2.34924 16.7524 2.34589 16.7527 2.34422C16.7533 2.3409 16.7527 2.34409 16.7509 2.35303C16.7471 2.37119 16.7382 2.4108 16.7224 2.46593C16.6899 2.57962 16.6342 2.73843 16.5471 2.90441C16.3725 3.23748 16.1332 3.49649 15.768 3.62244L17.0723 7.40382C18.6942 6.8444 19.608 5.68055 20.0896 4.7621C20.3307 4.30233 20.4789 3.87822 20.5684 3.56542C20.6136 3.40732 20.6451 3.27279 20.6665 3.17013C20.6773 3.11866 20.6856 3.07477 20.6918 3.03947C20.6949 3.0218 20.6975 3.00624 20.6997 2.99291C20.7008 2.98624 20.7017 2.98013 20.7026 2.97458C20.703 2.97181 20.7034 2.96918 20.7038 2.96669C20.704 2.96545 20.7041 2.96424 20.7043 2.96306C20.7044 2.96248 20.7045 2.96163 20.7046 2.96133C20.7047 2.96049 20.7048 2.95966 18.7263 2.66741ZM16.6229 3.39219L17.3118 4.08134L20.1408 1.25349L19.4519 0.564331L16.6229 3.39219ZM15.8959 2.03378C15.9989 2.547 16.2508 3.01859 16.6203 3.38959L19.4545 0.566928C19.6397 0.7529 19.766 0.989242 19.8176 1.24638L15.8959 2.03378ZM16.0408 0.50356C15.8432 0.988337 15.7928 1.52055 15.8959 2.03375L19.8176 1.24641C19.8692 1.50354 19.844 1.7702 19.745 2.01311L16.0408 0.50356ZM16.3706 -0.322925L16.0354 0.516984L19.7504 1.99969L20.0856 1.15978L16.3706 -0.322925ZM17.3467 -1.53863C16.907 -1.23955 16.567 -0.815822 16.3702 -0.322033L20.086 1.15889C19.9874 1.40633 19.8169 1.61873 19.5965 1.76867L17.3467 -1.53863ZM18.8372 -1.99998C18.3054 -1.9984 17.7863 -1.83769 17.3467 -1.53862L19.5965 1.76867C19.3761 1.91861 19.1158 1.99921 18.8491 2L18.8372 -1.99998ZM20.3286 -1.99999H18.8432V2.00001H20.3286V-1.99999ZM21.4103 -1.77257C21.0658 -1.92476 20.6929 -2.00226 20.3163 -1.99995L20.3408 1.99997C20.1526 2.00113 19.9662 1.9624 19.7941 1.88635L21.4103 -1.77257ZM22.3151 -1.11708C22.0632 -1.39698 21.7549 -1.62039 21.4103 -1.77257L19.7941 1.88635C19.6219 1.8103 19.4679 1.69868 19.342 1.55886L22.3151 -1.11708ZM22.872 -0.14874C22.7568 -0.507174 22.567 -0.837195 22.3151 -1.11708L19.342 1.55886C19.2162 1.41906 19.1214 1.25424 19.0639 1.07525L22.872 -0.14874ZM22.9836 0.962624C23.0253 0.588431 22.9872 0.209689 22.872 -0.148703L19.0639 1.07522C19.0064 0.896276 18.9874 0.707167 19.0082 0.520316L22.9836 0.962624ZM15.8405 9.69227C21.617 8.2623 22.7644 2.82587 22.9822 0.975246L19.0096 0.507694C18.8243 2.08264 18.0163 5.03291 14.8793 5.80947L15.8405 9.69227ZM15.2362 10.6629C15.6888 10.2659 16.3583 9.68464 16.9038 9.02224L13.816 6.4795C13.5129 6.84761 13.0988 7.21695 12.5984 7.65596L15.2362 10.6629ZM15.1667 10.7212L15.1667 10.7212L12.6679 7.59769L12.6679 7.5977L15.1667 10.7212ZM15.2296 10.6687L15.2297 10.6687L12.6049 7.65023L12.6049 7.65029L15.2296 10.6687ZM14.5696 11.2766C14.6835 11.1515 14.88 10.9754 15.2362 10.663L12.5983 7.65604C12.3043 7.91391 11.9115 8.25481 11.6129 8.58247L14.5696 11.2766ZM11.3772 13C12.1014 13 12.7327 12.7228 13.1957 12.4404C13.6855 12.1417 14.1474 11.7398 14.5696 11.2766L11.6129 8.58246C11.3834 8.83432 11.2076 8.96771 11.113 9.02542C11.0674 9.0532 11.0602 9.05148 11.0924 9.04051C11.1221 9.03037 11.2215 9 11.3772 9V13ZM9.62284 13H11.3772V9H9.62284V13ZM6.43043 11.2766C6.85256 11.7398 7.31448 12.1417 7.80434 12.4404C8.26725 12.7228 8.89859 13 9.62284 13V9C9.77846 9 9.87794 9.03037 9.90765 9.04051C9.93977 9.05148 9.93259 9.0532 9.88703 9.02542C9.7924 8.96771 9.61656 8.83432 9.38707 8.58246L6.43043 11.2766ZM5.76376 10.6629C6.11995 10.9754 6.31646 11.1515 6.43043 11.2766L9.38707 8.58246C9.08849 8.25479 8.69562 7.91387 8.40164 7.65597L5.76376 10.6629ZM5.75396 10.6542L5.75397 10.6543L8.41143 7.66462L8.41142 7.66461L5.75396 10.6542ZM5.83329 10.7212L5.8333 10.7212L8.33208 7.59769L8.33207 7.59768L5.83329 10.7212ZM5.66846 10.5736L5.66847 10.5736L8.49689 7.74521L8.49689 7.7452L5.66846 10.5736ZM4.09621 9.02224C4.64168 9.68464 5.31118 10.2659 5.76374 10.6629L8.40161 7.65595C7.90118 7.21693 7.48713 6.8476 7.184 6.4795L4.09621 9.02224ZM-1.98219 0.975246C-1.76439 2.82587 -0.616972 8.2623 5.15951 9.69227L6.1207 5.80947C2.98371 5.03291 2.17575 2.08264 1.99039 0.507695L-1.98219 0.975246ZM-1.87203 -0.148731C-1.98724 0.209701 -2.02527 0.588451 -1.98364 0.962618L1.99183 0.520322C2.01262 0.707147 1.99363 0.896264 1.9361 1.07525L-1.87203 -0.148731ZM-1.31513 -1.11708C-1.56705 -0.837191 -1.75683 -0.507164 -1.87203 -0.148731L1.9361 1.07525C1.87857 1.25423 1.7838 1.41906 1.65797 1.55886L-1.31513 -1.11708ZM-0.410341 -1.77257C-0.754867 -1.62039 -1.06322 -1.39697 -1.31513 -1.11708L1.65796 1.55886C1.53213 1.69868 1.37808 1.8103 1.20592 1.88635L-0.410341 -1.77257ZM0.683725 -1.99995C0.307055 -2.00226 -0.0658129 -1.92476 -0.410342 -1.77257L1.20592 1.88635C1.03376 1.9624 0.847418 2.00113 0.659167 1.99997L0.683725 -1.99995ZM2.15684 -1.99999H0.671446V2.00001H2.15684V-1.99999ZM3.65333 -1.53862C3.21369 -1.83769 2.69458 -1.9984 2.16276 -1.99998L2.15092 2C1.8842 1.99921 1.62389 1.91861 1.40347 1.76867L3.65333 -1.53862ZM4.62978 -0.322045C4.43298 -0.815828 4.09296 -1.23955 3.65333 -1.53862L1.40347 1.76867C1.18306 1.61873 1.01265 1.40634 0.914034 1.1589L4.62978 -0.322045ZM4.96465 0.516987L4.62943 -0.322922L0.914383 1.15978L1.2496 1.99969L4.96465 0.516987ZM5.10414 2.03378C5.20718 1.52055 5.15679 0.988324 4.95922 0.503542L1.25502 2.01313C1.15602 1.77021 1.13077 1.50354 1.1824 1.24639L5.10414 2.03378ZM4.37967 3.38959C4.74916 3.01859 5.0011 2.547 5.10414 2.03378L1.1824 1.24639C1.23403 0.989242 1.36027 0.7529 1.54549 0.566932L4.37967 3.38959ZM3.6882 4.08134L4.37708 3.39219L1.54808 0.56433L0.859203 1.25349L3.6882 4.08134ZM5.23196 3.62244C4.86681 3.49649 4.62752 3.23748 4.45285 2.90441C4.36581 2.73843 4.31007 2.57962 4.27757 2.46593C4.26181 2.4108 4.25291 2.37119 4.24912 2.35303C4.24726 2.34409 4.24674 2.3409 4.24733 2.34422C4.24762 2.3459 4.2482 2.34924 4.24903 2.35435C4.24944 2.35691 4.24992 2.35992 4.25046 2.36338C4.25072 2.36511 4.25101 2.36696 4.2513 2.36893C4.25145 2.36991 4.2516 2.37092 4.25176 2.37196C4.25184 2.37248 4.25196 2.37329 4.25199 2.37355C4.25211 2.37436 4.25224 2.37517 2.2737 2.66741C0.295169 2.95966 0.295292 2.96049 0.295417 2.96133C0.295461 2.96163 0.295588 2.96248 0.295675 2.96306C0.29585 2.96424 0.296032 2.96545 0.29622 2.96669C0.296596 2.96918 0.296998 2.97181 0.297427 2.97458C0.298285 2.98013 0.299249 2.98624 0.300328 2.99291C0.302483 3.00624 0.305095 3.0218 0.308213 3.03947C0.314444 3.07477 0.322726 3.11866 0.333467 3.17013C0.354891 3.27279 0.386447 3.40732 0.431647 3.56542C0.521069 3.87821 0.669291 4.30233 0.910399 4.7621C1.39203 5.68054 2.3058 6.84439 3.92767 7.40381L5.23196 3.62244ZM2.0468 1.07021C2.10387 2.46434 2.17021 4.29572 2.65156 6.04402L6.50807 4.98223C6.16844 3.74867 6.10376 2.3796 6.04345 0.906592L2.0468 1.07021ZM5.99069 14.3788C5.81042 14.5827 5.5889 14.8327 5.35772 15.1193L8.47109 17.6307C8.63738 17.4245 8.80138 17.2387 8.98706 17.0287L5.99069 14.3788ZM6.91257 12.8666C6.78455 13.4568 6.59026 13.7009 5.99069 14.3788L8.98706 17.0287C9.63349 16.2977 10.4584 15.3894 10.8217 13.7145L6.91257 12.8666ZM9.64608 10.625C8.18783 10.625 7.16341 11.7102 6.91257 12.8666L10.8217 13.7145C10.7332 14.1223 10.3383 14.625 9.64608 14.625V10.625ZM11.4799 10.625H9.64608V14.625H11.4799V10.625ZM14.2134 12.8666C13.9626 11.7102 12.9382 10.625 11.4799 10.625V14.625C10.7877 14.625 10.3928 14.1223 10.3044 13.7146L14.2134 12.8666ZM15.1353 14.3787C14.5357 13.7008 14.3415 13.4567 14.2134 12.8666L10.3044 13.7146C10.6677 15.3893 11.4925 16.2977 12.1389 17.0286L15.1353 14.3787ZM15.1422 14.3867L15.1422 14.3866L12.1319 17.0207L12.1319 17.0207L15.1422 14.3867ZM15.1319 14.375L15.1319 14.3749L12.1423 17.0324L12.1423 17.0324L15.1319 14.375ZM15.1237 14.3658L15.1237 14.3658L12.1505 17.0416L12.1506 17.0417L15.1237 14.3658ZM15.7684 15.1194C15.5372 14.8327 15.3156 14.5827 15.1353 14.3788L12.1389 17.0286C12.3246 17.2386 12.4886 17.4245 12.6549 17.6306L15.7684 15.1194ZM15.6255 14.375H14.2116V18.375H15.6255V14.375ZM18.3755 17.125C18.3755 15.6062 17.1443 14.375 15.6255 14.375V18.375C14.9352 18.375 14.3755 17.8154 14.3755 17.125H18.3755ZM18.3755 18.25V17.125H14.3755V18.25H18.3755ZM15.6255 21C17.1443 21 18.3755 19.7688 18.3755 18.25H14.3755C14.3755 17.5597 14.9352 17 15.6255 17V21ZM5.50049 21H15.6255V17H5.50049V21ZM2.75049 18.25C2.75049 19.7688 3.9817 21 5.50049 21V17C6.19085 17 6.75049 17.5597 6.75049 18.25H2.75049ZM2.75049 17.125V18.25H6.75049V17.125H2.75049ZM5.50049 14.375C3.9817 14.375 2.75049 15.6062 2.75049 17.125H6.75049C6.75049 17.8154 6.19085 18.375 5.50049 18.375V14.375ZM6.91441 14.375H5.50049V18.375H6.91441V14.375Z" fill="#191E26" mask="url(#path-1-inside-1_1_3437)"/>
</svg>
