<svg width="14" height="10" viewBox="0 0 14 10" fill="none" xmlns="http://www.w3.org/2000/svg">
<path d="M0.157647 10V0.117646H2.10588V10H0.157647ZM8.31423 0.117646C9.82952 0.117646 11.0436 0.569411 11.9566 1.47294C12.8789 2.37647 13.3401 3.57176 13.3401 5.05882C13.3401 6.54588 12.8789 7.74118 11.9566 8.64471C11.0436 9.54824 9.82952 10 8.31423 10H4.41776V0.117646H8.31423ZM8.31423 8.24941C9.22717 8.24941 9.96599 7.95765 10.5307 7.37412C11.0954 6.79059 11.3778 6.01882 11.3778 5.05882C11.3778 4.09882 11.0907 3.32706 10.5166 2.74353C9.95188 2.16 9.21776 1.86823 8.31423 1.86823H6.36599V8.24941H8.31423Z" fill="#8C8E92" fill-opacity="0.4"/>
</svg>
