<svg width="23" height="25" viewBox="0 0 23 25" fill="none" xmlns="http://www.w3.org/2000/svg">
<path d="M7.8492 12.879C7.45867 12.4885 7.45867 11.8553 7.8492 11.4648C8.23972 11.0742 8.87289 11.0742 9.26341 11.4648L14.9203 17.1216C15.3108 17.5121 15.3108 18.1453 14.9203 18.5358C14.5297 18.9264 13.8966 18.9264 13.5061 18.5358L7.8492 12.879Z" fill="#191E26"/>
<path d="M9.26326 18.7782C8.87273 19.1688 8.23957 19.1688 7.84905 18.7782C7.45852 18.3877 7.45852 17.7546 7.84905 17.364L13.5059 11.7072C13.8964 11.3167 14.5296 11.3167 14.9201 11.7072C15.3106 12.0977 15.3106 12.7309 14.9201 13.1214L9.26326 18.7782Z" fill="#191E26"/>
<path d="M16.6421 5.26316L16.0371 5.98684C15.4596 6.67105 14.6896 6.97368 13.9196 6.97368C12.5171 6.97368 11.1421 5.94737 11.1421 4.34211V0C11.1421 0 0.14209 5.26316 0.14209 14.4737C0.14209 20.2895 5.06459 25 11.1421 25C17.2196 25 22.1421 20.2895 22.1421 14.4737C22.1421 10.5789 19.9283 7.07895 16.6421 5.26316ZM16.5871 20.3947C16.2468 20.6813 15.2671 21.7105 12.5171 22.3684L11.1421 22.5H10.1421L9.07959 22.3684C7.64209 22 6.32959 21 5.69709 20.3947C4.81583 19.6559 4.10968 18.7454 3.62593 17.7243C3.14218 16.7031 2.89198 15.5949 2.89209 14.4737C2.89209 10.3158 5.82084 7.03947 8.43334 4.93421C8.59273 6.22009 9.23902 7.4055 10.25 8.26623C11.2609 9.12696 12.5664 9.60334 13.9196 9.60526C14.9921 9.60526 16.0371 9.30263 16.9171 8.73684C18.5029 10.2604 19.3929 12.3233 19.3921 14.4737C19.3921 16.8289 18.3058 18.9474 16.5871 20.3947Z" fill="#191E26"/>
</svg>
