<svg width="10" height="10" viewBox="0 0 10 10" fill="none" xmlns="http://www.w3.org/2000/svg">
<path d="M5.47765 6.62588H3.21882V7.36H5.50588V8.77176H3.21882V10H1.18588V8.77176H0.112941V7.36H1.18588V6.62588H0.112941V5.01647H1.18588V0.117646H5.47765C6.54118 0.117646 7.39294 0.418823 8.03294 1.02118C8.68235 1.61412 9.00706 2.40471 9.00706 3.39294C9.00706 4.37176 8.68235 5.15765 8.03294 5.75059C7.39294 6.33412 6.54118 6.62588 5.47765 6.62588ZM3.19059 1.89647V5.01647H5.35059C5.85882 5.01647 6.25882 4.88 6.55059 4.60706C6.84235 4.32471 6.98824 3.94353 6.98824 3.46353C6.98824 2.97412 6.84235 2.59294 6.55059 2.32C6.25882 2.03765 5.85882 1.89647 5.35059 1.89647H3.19059Z" fill="#8C8E92" fill-opacity="0.4"/>
</svg>
