<svg width="20" height="20" viewBox="0 0 20 20" fill="none" xmlns="http://www.w3.org/2000/svg">
<path d="M9.964 0C4.714 0 0.408 4.05 0 9.197L5.36 11.413C5.82914 11.0919 6.3845 10.9204 6.953 10.921C7.006 10.921 7.057 10.924 7.11 10.926L9.494 7.474V7.425C9.494 5.345 11.184 3.655 13.264 3.655C15.343 3.655 17.034 5.347 17.034 7.427C17.034 9.507 15.342 11.198 13.264 11.198H13.177L9.78 13.624C9.78 13.667 9.783 13.712 9.783 13.757C9.78353 14.1284 9.71085 14.4962 9.56913 14.8395C9.42741 15.1827 9.21942 15.4947 8.95705 15.7575C8.69469 16.0203 8.38309 16.2289 8.04008 16.3712C7.69707 16.5135 7.32937 16.5869 6.958 16.587C6.30471 16.5846 5.67217 16.3574 5.16677 15.9434C4.66138 15.5294 4.31398 14.954 4.183 14.314L0.345 12.725C1.533 16.922 5.387 20 9.965 20C15.487 20 19.963 15.523 19.963 10C19.963 4.478 15.486 0 9.964 0ZM5.038 14.667C5.256 15.119 5.633 15.499 6.132 15.708C6.64709 15.8994 7.21629 15.8839 7.72022 15.6648C8.22415 15.4457 8.62367 15.04 8.835 14.5328C9.04633 14.0255 9.05305 13.4561 8.85375 12.9441C8.65445 12.432 8.26462 12.0169 7.766 11.786C7.26664 11.5782 6.70674 11.5693 6.201 11.761L7.47 12.286C7.65958 12.3651 7.8317 12.4808 7.97654 12.6264C8.12138 12.7721 8.23608 12.9449 8.31409 13.1349C8.39211 13.3249 8.4319 13.5284 8.4312 13.7338C8.4305 13.9393 8.38931 14.1425 8.31 14.332C8.23119 14.5216 8.11579 14.6938 7.9704 14.8388C7.82501 14.9838 7.65248 15.0987 7.46266 15.177C7.27284 15.2553 7.06946 15.2954 6.86413 15.2951C6.6588 15.2947 6.45556 15.2539 6.266 15.175L5.038 14.667ZM15.778 7.422C15.7769 6.75593 15.5118 6.11745 15.0407 5.64656C14.5697 5.17567 13.9311 4.91079 13.265 4.91C12.6137 4.93251 11.9965 5.20708 11.5437 5.6758C11.0909 6.14453 10.8378 6.77078 10.8378 7.4225C10.8378 8.07422 11.0909 8.70047 11.5437 9.1692C11.9965 9.63792 12.6137 9.91249 13.265 9.935C13.9313 9.93474 14.5702 9.66986 15.0413 9.19861C15.5124 8.72736 15.777 8.08832 15.777 7.422H15.778ZM13.27 5.53C13.5251 5.51839 13.7799 5.55863 14.0191 5.64828C14.2582 5.73794 14.4767 5.87516 14.6613 6.05164C14.8459 6.22811 14.9928 6.44019 15.0931 6.67505C15.1934 6.9099 15.245 7.16266 15.2449 7.41805C15.2448 7.67343 15.1928 7.92613 15.0923 8.16088C14.9917 8.39563 14.8446 8.60756 14.6598 8.78384C14.475 8.96012 14.2564 9.09711 14.0172 9.18651C13.778 9.27591 13.5231 9.31588 13.268 9.304C12.7826 9.28139 12.3245 9.07257 11.9891 8.72096C11.6537 8.36935 11.4666 7.902 11.4669 7.41605C11.4672 6.9301 11.6547 6.46294 11.9905 6.11168C12.3263 5.76043 12.7846 5.5521 13.27 5.53Z" fill="#191E26"/>
</svg>
