<svg width="33" height="33" viewBox="0 0 33 33" fill="none" xmlns="http://www.w3.org/2000/svg">
<path d="M21.55 21.18C20.87 21.18 20.334 21.052 19.942 20.796C19.558 20.54 19.282 20.184 19.114 19.728C18.954 19.264 18.874 18.732 18.874 18.132V17.784H20.878C20.878 17.792 20.878 17.836 20.878 17.916C20.878 17.996 20.878 18.068 20.878 18.132C20.878 18.452 20.898 18.712 20.938 18.912C20.978 19.112 21.05 19.26 21.154 19.356C21.258 19.444 21.402 19.488 21.586 19.488C21.77 19.488 21.906 19.44 21.994 19.344C22.09 19.248 22.154 19.104 22.186 18.912C22.218 18.72 22.234 18.48 22.234 18.192C22.234 17.712 22.166 17.348 22.03 17.1C21.902 16.844 21.63 16.712 21.214 16.704C21.206 16.704 21.162 16.704 21.082 16.704C21.002 16.704 20.922 16.704 20.842 16.704V15.324C20.898 15.324 20.954 15.324 21.01 15.324C21.066 15.324 21.118 15.324 21.166 15.324C21.59 15.324 21.874 15.208 22.018 14.976C22.162 14.744 22.234 14.384 22.234 13.896C22.234 13.52 22.182 13.232 22.078 13.032C21.982 12.832 21.798 12.732 21.526 12.732C21.262 12.732 21.086 12.844 20.998 13.068C20.918 13.292 20.878 13.58 20.878 13.932C20.878 14.012 20.878 14.096 20.878 14.184C20.878 14.264 20.878 14.348 20.878 14.436H18.874V13.848C18.874 13.264 18.978 12.772 19.186 12.372C19.402 11.964 19.706 11.656 20.098 11.448C20.498 11.24 20.974 11.136 21.526 11.136C22.086 11.136 22.566 11.236 22.966 11.436C23.366 11.636 23.674 11.932 23.89 12.324C24.106 12.708 24.214 13.188 24.214 13.764C24.214 14.332 24.098 14.808 23.866 15.192C23.634 15.576 23.354 15.812 23.026 15.9C23.25 15.98 23.45 16.108 23.626 16.284C23.81 16.46 23.954 16.7 24.058 17.004C24.162 17.3 24.214 17.68 24.214 18.144C24.214 18.736 24.126 19.26 23.95 19.716C23.782 20.172 23.502 20.532 23.11 20.796C22.718 21.052 22.198 21.18 21.55 21.18Z" fill="#A4A4A4"/>
<mask id="path-2-inside-1_310_2" fill="white">
<path d="M23 4C25.7614 4 28 6.23858 28 9L28 19C28 24.5228 23.5228 29 18 29L16 29L16 4L23 4Z"/>
</mask>
<path d="M23 2C26.866 2 30 5.13401 30 9L30 19C30 25.6274 24.6274 31 18 31L18 27C22.4183 27 26 23.4183 26 19L26 9C26 7.34315 24.6569 6 23 6L23 2ZM16 29L16 4L16 29ZM16 2L23 2C26.866 2 30 5.13401 30 9L26 9C26 7.34315 24.6569 6 23 6L16 6L16 2ZM30 19C30 25.6274 24.6274 31 18 31L16 31L16 27L18 27C22.4183 27 26 23.4183 26 19L30 19Z" fill="#A4A4A4" mask="url(#path-2-inside-1_310_2)"/>
<path d="M10 5C7.79086 5 6 6.79086 6 9L6 19C6 23.9706 10.0294 28 15 28L16 28L16 5L10 5Z" fill="#A4A4A4" stroke="#A4A4A4" stroke-width="2"/>
<path d="M8.81373 22.908V21.492C9.15773 21.5 9.45773 21.484 9.71373 21.444C9.96973 21.404 10.1777 21.328 10.3377 21.216C10.4977 21.104 10.6017 20.952 10.6497 20.76C10.7057 20.56 10.6977 20.312 10.6257 20.016L8.44173 11.28H10.4337L11.2737 15.276L11.6697 17.88L11.9577 15.264L12.6657 11.28H14.6817L12.6657 20.34C12.5697 20.78 12.4577 21.152 12.3297 21.456C12.2017 21.76 12.0417 22.008 11.8497 22.2C11.6657 22.4 11.4377 22.552 11.1657 22.656C10.8937 22.76 10.5617 22.828 10.1697 22.86C9.78573 22.9 9.33373 22.916 8.81373 22.908Z" fill="white"/>
</svg>
