<svg width="102" height="45" viewBox="0 0 102 45" fill="none" xmlns="http://www.w3.org/2000/svg">
<path fill-rule="evenodd" clip-rule="evenodd" d="M22.1168 0.0336584V0L27.9283 0.000168708L27.9521 5.34748L22.1168 5.28493V5.23658C21.5953 5.23177 21.1079 5.2265 20.6524 5.22157L20.6523 5.22157C19.7072 5.21134 18.8994 5.2026 18.2087 5.2026C15.7826 5.2026 13.7856 5.51784 12.1368 6.57782C10.5403 7.60412 8.88587 9.58313 7.70364 13.7209C5.20248 22.475 5.20248 27.393 5.20248 33.8081V33.8163C5.20248 36.221 6.07716 37.2762 7.16348 37.9099C8.49943 38.6892 10.5232 39.0187 13.0062 39.0187C13.3838 39.0187 13.9369 38.8451 14.9192 38.0112C15.5882 37.4432 16.2022 36.8063 16.9425 36.0384L16.9425 36.0383C17.3681 35.5968 17.8355 35.1119 18.3791 34.572C20.2807 32.6832 22.703 30.5856 26.0262 29.452L26.0129 29.379C28.3271 27.603 30.0834 25.2006 31.0735 22.4568L31.9732 19.9634C33.0702 16.9233 35.9554 14.8972 39.1873 14.8972H85.8165L85.8947 20.0038H41.0714C40.1935 20.0038 39.3645 20.2522 38.6587 20.6882L36.5662 20.7175L38.6341 20.7035C37.5908 21.3571 36.8207 22.4223 36.5662 23.7001C36.0986 24.7193 35.5702 25.7057 34.9847 26.6543L34.8485 27.0837L34.2704 27.752C32.5397 30.2765 30.3902 32.5013 27.9044 34.3249L27.7633 34.4284H27.3897V34.4909C25.3039 35.2786 23.6419 36.6773 22.0455 38.263C21.6962 38.6099 21.3226 38.9963 20.9362 39.3959C20.0727 40.2888 19.1458 41.2474 18.2862 41.9772C16.9704 43.0942 15.2299 44.2212 13.0062 44.2212C10.2867 44.2212 7.10802 43.9005 4.5421 42.4037C1.72657 40.7613 0 37.9146 0 33.8163C0 27.2292 0.00106335 21.7426 2.70133 12.2917C4.12034 7.32517 6.36776 4.10171 9.32348 2.20161C12.2268 0.335197 15.4322 0.000119877 18.2087 0.000119877C18.9675 0.000119877 19.8182 0.00935112 20.7957 0.0199586L20.7957 0.0199592L20.7958 0.0199594C21.2122 0.0244784 21.6517 0.0292472 22.1168 0.0336584ZM38.6341 20.7035C38.6423 20.6984 38.6505 20.6933 38.6587 20.6882L40.8553 20.6575H42.2324H44.0686H45.4457L38.6341 20.7035ZM33.4031 5.40591L30.4603 5.37437V0.000168708H33.4031V5.40591ZM38.7499 5.46322L35.9343 5.43304V0.000168708H38.7499V5.46322ZM85.8165 5.96772L41.2819 5.49036V0.000168708H85.8165V5.96772ZM89.7377 13.689V6.82561H94.1212L98.5045 7.9847V12.5299L94.1212 13.689H89.7377ZM15.6074 15.6076V10.4051H20.8099V15.6076H26.0124V20.8101H20.8099V26.0125H15.6074V20.8101H10.405V15.6076H15.6074Z" fill="white"/>
<path d="M41.582 33.9428C41.0023 33.9428 40.5043 33.9214 40.0882 33.8785C39.672 33.8356 39.2814 33.7628 38.9162 33.6599C38.52 33.5571 38.2299 33.4199 38.0458 33.2485C37.8674 33.0685 37.7809 32.837 37.7861 32.5542C37.803 32.2542 37.942 31.9113 38.2033 31.5256L40.5546 28.054C40.8391 27.634 41.198 27.2568 41.6315 26.9225C42.0708 26.5797 42.5332 26.3097 43.0187 26.1125C43.4719 25.9325 43.9699 25.7782 44.5125 25.6496C45.0654 25.5211 45.579 25.4354 46.0532 25.3925C46.4491 25.3582 46.9111 25.3411 47.4391 25.3411C48.8678 25.3411 50.1734 25.4311 51.3559 25.6111L50.3283 27.1283C49.2899 26.8883 48.0046 26.7683 46.4724 26.7683C44.7228 26.7683 43.5635 27.1883 42.9946 28.0283L40.7216 31.3841C40.443 31.7956 40.4785 32.087 40.8283 32.2584C41.1884 32.4299 41.8447 32.5156 42.7971 32.5156C43.3044 32.5156 43.8915 32.4513 44.5583 32.3227L45.8733 30.3812H44.2272L45.1155 29.0698H49.0754L46.1407 33.4028C45.5185 33.5571 44.7689 33.6856 43.8917 33.7885C43.0248 33.8914 42.255 33.9428 41.582 33.9428Z" fill="white"/>
<path d="M56.1427 25.4696H59.0933L57.0753 33.8142H54.6217L55.2101 31.6156H51.5297L49.1554 33.8142H46.7639L56.1427 25.4696ZM55.5878 30.2784L56.4393 27.1411H56.3772L52.9789 30.2784H55.5878Z" fill="white"/>
<path d="M63.8447 25.4696H67.2922L65.7361 31.4356L72.2305 25.4696H75.4761L69.8243 33.8142H67.6346L71.8147 27.6426H71.7681L65.0413 33.8142H63.1001L64.6558 27.6426H64.5937L60.4136 33.8142H58.1929L63.8447 25.4696Z" fill="white"/>
<path d="M77.6451 25.4696H85.332L84.3654 26.8968H79.101L77.8034 28.8126H82.5554L81.5887 30.2398H76.8368L75.3825 32.387H80.8021L79.8355 33.8142H71.9933L77.6451 25.4696Z" fill="white"/>
<path d="M89.7018 33.9428C88.739 33.9428 87.6007 33.8656 86.2869 33.7114L87.3232 32.1813C88.9322 32.4042 90.0577 32.5156 90.6995 32.5156C92.0454 32.5156 92.9128 32.2284 93.3018 31.6541L93.6676 31.1141C93.8533 30.8398 93.8972 30.6298 93.7992 30.4841C93.7116 30.3384 93.4193 30.2655 92.9223 30.2655H91.7421C89.5266 30.2655 88.9124 29.5369 89.8993 28.0797L90.3173 27.4626C90.8108 26.734 91.5412 26.1982 92.5085 25.8554C93.4757 25.5125 94.7565 25.3411 96.3509 25.3411C97.1791 25.3411 98.1922 25.3968 99.3901 25.5082L98.3799 26.9997C96.9211 26.8454 95.8967 26.7683 95.3066 26.7683C94.4887 26.7683 93.9023 26.824 93.5473 26.9354C93.1658 27.0554 92.8879 27.244 92.7138 27.5011L92.3132 28.0926C92.0171 28.5297 92.3142 28.7483 93.2045 28.7483H94.4158C95.565 28.7483 96.2794 28.924 96.559 29.2755C96.8386 29.6269 96.7345 30.1627 96.2469 30.8827L95.8724 31.4356C95.1989 32.4299 94.3136 33.1028 93.2162 33.4542C92.6802 33.6342 92.1353 33.7585 91.5816 33.8271C91.0324 33.9042 90.4058 33.9428 89.7018 33.9428Z" fill="white"/>
</svg>
