<svg width="110" height="55" viewBox="0 0 110 55" fill="none" xmlns="http://www.w3.org/2000/svg">
<g filter="url(#filter0_d_105_4)">
<path fill-rule="evenodd" clip-rule="evenodd" d="M27.1168 4.03366V4L32.9283 4.00017L32.9521 9.34748L27.1168 9.28493V9.23658C26.5953 9.23177 26.1079 9.2265 25.6524 9.22157L25.6523 9.22157C24.7072 9.21134 23.8994 9.2026 23.2087 9.2026C20.7826 9.2026 18.7856 9.51784 17.1368 10.5778C15.5403 11.6041 13.8859 13.5831 12.7036 17.7209C10.2025 26.475 10.2025 31.393 10.2025 37.8081V37.8163C10.2025 40.221 11.0772 41.2762 12.1635 41.9099C13.4994 42.6892 15.5232 43.0187 18.0062 43.0187C18.3838 43.0187 18.9369 42.8451 19.9192 42.0112C20.5882 41.4432 21.2022 40.8063 21.9425 40.0384L21.9425 40.0383C22.3681 39.5968 22.8355 39.1119 23.3791 38.572C25.2807 36.6832 27.703 34.5856 31.0262 33.452L31.0129 33.379C33.3271 31.603 35.0834 29.2006 36.0735 26.4568L36.9732 23.9634C38.0702 20.9233 40.9554 18.8972 44.1873 18.8972H90.8165L90.8947 24.0038H46.0714C45.1935 24.0038 44.3645 24.2522 43.6587 24.6882L41.5662 24.7175L43.6341 24.7035C42.5908 25.3571 41.8207 26.4223 41.5662 27.7001C41.0986 28.7193 40.5702 29.7057 39.9847 30.6543L39.8485 31.0837L39.2704 31.752C37.5397 34.2765 35.3902 36.5013 32.9044 38.3249L32.7633 38.4284H32.3897V38.4909C30.3039 39.2786 28.6419 40.6773 27.0455 42.263C26.6962 42.6099 26.3226 42.9963 25.9362 43.3959C25.0727 44.2888 24.1458 45.2474 23.2862 45.9772C21.9704 47.0942 20.2299 48.2212 18.0062 48.2212C15.2867 48.2212 12.108 47.9005 9.5421 46.4037C6.72657 44.7613 5 41.9146 5 37.8163C5 31.2292 5.00106 25.7426 7.70133 16.2917C9.12034 11.3252 11.3678 8.10171 14.3235 6.20161C17.2268 4.3352 20.4322 4.00012 23.2087 4.00012C23.9675 4.00012 24.8182 4.00935 25.7957 4.01996L25.7957 4.01996L25.7958 4.01996C26.2122 4.02448 26.6517 4.02925 27.1168 4.03366ZM43.6341 24.7035C43.6423 24.6984 43.6505 24.6933 43.6587 24.6882L45.8553 24.6575H47.2324H49.0686H50.4457L43.6341 24.7035ZM38.4031 9.40591L35.4603 9.37437V4.00017H38.4031V9.40591ZM43.7499 9.46322L40.9343 9.43304V4.00017H43.7499V9.46322ZM90.8165 9.96772L46.2819 9.49036V4.00017H90.8165V9.96772ZM94.7377 17.689V10.8256H99.1212L103.505 11.9847V16.5299L99.1212 17.689H94.7377ZM20.6074 19.6076V14.4051H25.8099V19.6076H31.0124V24.8101H25.8099V30.0125H20.6074V24.8101H15.405V19.6076H20.6074Z" fill="url(#paint0_linear_105_4)"/>
<path d="M46.582 37.9428C46.0023 37.9428 45.5043 37.9214 45.0882 37.8785C44.672 37.8356 44.2814 37.7628 43.9162 37.6599C43.52 37.5571 43.2299 37.4199 43.0458 37.2485C42.8674 37.0685 42.7809 36.837 42.7861 36.5542C42.803 36.2542 42.942 35.9113 43.2033 35.5256L45.5546 32.054C45.8391 31.634 46.198 31.2568 46.6315 30.9225C47.0708 30.5797 47.5332 30.3097 48.0187 30.1125C48.4719 29.9325 48.9699 29.7782 49.5125 29.6496C50.0654 29.5211 50.579 29.4354 51.0532 29.3925C51.4491 29.3582 51.9111 29.3411 52.4391 29.3411C53.8678 29.3411 55.1734 29.4311 56.3559 29.6111L55.3283 31.1283C54.2899 30.8883 53.0046 30.7683 51.4724 30.7683C49.7228 30.7683 48.5635 31.1883 47.9946 32.0283L45.7216 35.3841C45.443 35.7956 45.4785 36.087 45.8283 36.2584C46.1884 36.4299 46.8447 36.5156 47.7971 36.5156C48.3044 36.5156 48.8915 36.4513 49.5583 36.3227L50.8733 34.3812H49.2272L50.1155 33.0698H54.0754L51.1407 37.4028C50.5185 37.5571 49.7689 37.6856 48.8917 37.7885C48.0248 37.8914 47.255 37.9428 46.582 37.9428Z" fill="url(#paint1_linear_105_4)"/>
<path d="M61.1427 29.4696H64.0933L62.0753 37.8142H59.6217L60.2101 35.6156H56.5297L54.1554 37.8142H51.7639L61.1427 29.4696ZM60.5878 34.2784L61.4393 31.1411H61.3772L57.9789 34.2784H60.5878Z" fill="url(#paint2_linear_105_4)"/>
<path d="M68.8447 29.4696H72.2922L70.7361 35.4356L77.2305 29.4696H80.4761L74.8243 37.8142H72.6346L76.8147 31.6426H76.7681L70.0413 37.8142H68.1001L69.6558 31.6426H69.5937L65.4136 37.8142H63.1929L68.8447 29.4696Z" fill="url(#paint3_linear_105_4)"/>
<path d="M82.6451 29.4696H90.332L89.3654 30.8968H84.101L82.8034 32.8126H87.5554L86.5887 34.2398H81.8368L80.3825 36.387H85.8021L84.8355 37.8142H76.9933L82.6451 29.4696Z" fill="url(#paint4_linear_105_4)"/>
<path d="M94.7018 37.9428C93.739 37.9428 92.6007 37.8656 91.2869 37.7114L92.3232 36.1813C93.9322 36.4042 95.0577 36.5156 95.6995 36.5156C97.0454 36.5156 97.9128 36.2284 98.3018 35.6541L98.6676 35.1141C98.8533 34.8398 98.8972 34.6298 98.7992 34.4841C98.7116 34.3384 98.4193 34.2655 97.9223 34.2655H96.7421C94.5266 34.2655 93.9124 33.5369 94.8993 32.0797L95.3173 31.4626C95.8108 30.734 96.5412 30.1982 97.5085 29.8554C98.4757 29.5125 99.7565 29.3411 101.351 29.3411C102.179 29.3411 103.192 29.3968 104.39 29.5082L103.38 30.9997C101.921 30.8454 100.897 30.7683 100.307 30.7683C99.4887 30.7683 98.9023 30.824 98.5473 30.9354C98.1658 31.0554 97.8879 31.244 97.7138 31.5011L97.3132 32.0926C97.0171 32.5297 97.3142 32.7483 98.2045 32.7483H99.4158C100.565 32.7483 101.279 32.924 101.559 33.2755C101.839 33.6269 101.735 34.1627 101.247 34.8827L100.872 35.4356C100.199 36.4299 99.3136 37.1028 98.2162 37.4542C97.6802 37.6342 97.1353 37.7585 96.5816 37.8271C96.0324 37.9042 95.4058 37.9428 94.7018 37.9428Z" fill="url(#paint5_linear_105_4)"/>
</g>
<defs>
<filter id="filter0_d_105_4" x="0" y="0" width="112" height="54.2212" filterUnits="userSpaceOnUse" color-interpolation-filters="sRGB">
<feFlood flood-opacity="0" result="BackgroundImageFix"/>
<feColorMatrix in="SourceAlpha" type="matrix" values="0 0 0 0 0 0 0 0 0 0 0 0 0 0 0 0 0 0 127 0" result="hardAlpha"/>
<feOffset dy="1"/>
<feGaussianBlur stdDeviation="2.5"/>
<feComposite in2="hardAlpha" operator="out"/>
<feColorMatrix type="matrix" values="0 0 0 0 0.280833 0 0 0 0 0.690311 0 0 0 0 1 0 0 0 0.79 0"/>
<feBlend mode="normal" in2="BackgroundImageFix" result="effect1_dropShadow_105_4"/>
<feBlend mode="normal" in="SourceGraphic" in2="effect1_dropShadow_105_4" result="shape"/>
</filter>
<linearGradient id="paint0_linear_105_4" x1="13.4717" y1="19.6076" x2="103.671" y2="19.6076" gradientUnits="userSpaceOnUse">
<stop stop-color="#007BD8"/>
<stop offset="1" stop-color="#2FA6FF"/>
</linearGradient>
<linearGradient id="paint1_linear_105_4" x1="102.509" y1="31.3725" x2="62.124" y2="58.7256" gradientUnits="userSpaceOnUse">
<stop stop-color="#2EA5FE"/>
<stop offset="1" stop-color="#017CD9"/>
</linearGradient>
<linearGradient id="paint2_linear_105_4" x1="102.509" y1="31.3725" x2="62.124" y2="58.7256" gradientUnits="userSpaceOnUse">
<stop stop-color="#2EA5FE"/>
<stop offset="1" stop-color="#017CD9"/>
</linearGradient>
<linearGradient id="paint3_linear_105_4" x1="102.509" y1="31.3725" x2="62.124" y2="58.7256" gradientUnits="userSpaceOnUse">
<stop stop-color="#2EA5FE"/>
<stop offset="1" stop-color="#017CD9"/>
</linearGradient>
<linearGradient id="paint4_linear_105_4" x1="102.509" y1="31.3725" x2="62.124" y2="58.7256" gradientUnits="userSpaceOnUse">
<stop stop-color="#2EA5FE"/>
<stop offset="1" stop-color="#017CD9"/>
</linearGradient>
<linearGradient id="paint5_linear_105_4" x1="102.509" y1="31.3725" x2="62.124" y2="58.7256" gradientUnits="userSpaceOnUse">
<stop stop-color="#2EA5FE"/>
<stop offset="1" stop-color="#017CD9"/>
</linearGradient>
</defs>
</svg>
