<svg width="22" height="22" viewBox="0 0 22 22" fill="none" xmlns="http://www.w3.org/2000/svg">
<path d="M8 12.25C7.30964 12.25 6.75 11.6904 6.75 11C6.75 10.3096 7.30964 9.75 8 9.75V12.25ZM20.8839 10.1161C21.372 10.6043 21.372 11.3957 20.8839 11.8839L12.9289 19.8388C12.4408 20.327 11.6493 20.327 11.1612 19.8388C10.673 19.3507 10.673 18.5592 11.1612 18.0711L18.2322 11L11.1612 3.92893C10.673 3.44078 10.673 2.64932 11.1612 2.16117C11.6493 1.67301 12.4408 1.67301 12.9289 2.16117L20.8839 10.1161ZM8 9.75L20 9.75V12.25L8 12.25V9.75Z" fill="#191E26"/>
<line x1="1.25" y1="-1.25" x2="18.75" y2="-1.25" transform="matrix(-4.37114e-08 1 1 4.37114e-08 4 1)" stroke="#191E26" stroke-width="2.5" stroke-linecap="round"/>
</svg>
