<svg width="21" height="21" viewBox="0 0 21 21" fill="none" xmlns="http://www.w3.org/2000/svg">
<path fill-rule="evenodd" clip-rule="evenodd" d="M18.4099 10.5C18.4099 6.531 15.3159 2.59 10.4999 2.59C6.6107 2.59 4.6885 5.4684 3.8681 7H6.2999C6.48555 7 6.6636 7.07375 6.79488 7.20503C6.92615 7.3363 6.9999 7.51435 6.9999 7.7C6.9999 7.88565 6.92615 8.0637 6.79488 8.19498C6.6636 8.32625 6.48555 8.4 6.2999 8.4H2.0999C1.91425 8.4 1.7362 8.32625 1.60493 8.19498C1.47365 8.0637 1.3999 7.88565 1.3999 7.7V3.5C1.3999 3.31435 1.47365 3.1363 1.60493 3.00503C1.7362 2.87375 1.91425 2.8 2.0999 2.8C2.28555 2.8 2.4636 2.87375 2.59488 3.00503C2.72615 3.1363 2.7999 3.31435 2.7999 3.5V6.0382C3.7869 4.2994 6.0675 1.19 10.4999 1.19C16.1881 1.19 19.8099 5.859 19.8099 10.5C19.8099 15.141 16.1881 19.81 10.4999 19.81C7.7783 19.81 5.5131 18.732 3.8989 17.0912C3.04365 16.2182 2.36527 15.188 1.9011 14.0574C1.86617 13.9724 1.84833 13.8813 1.8486 13.7894C1.84886 13.6974 1.86723 13.6065 1.90266 13.5216C1.93809 13.4368 1.98987 13.3598 2.05506 13.295C2.12025 13.2302 2.19757 13.1788 2.2826 13.1439C2.36763 13.109 2.45871 13.0911 2.55064 13.0914C2.64256 13.0917 2.73354 13.11 2.81836 13.1455C2.90319 13.1809 2.98021 13.2327 3.04502 13.2979C3.10983 13.3631 3.16117 13.4404 3.1961 13.5254C3.5881 14.4788 4.1649 15.365 4.8985 16.1098C6.2593 17.4958 8.1689 18.41 10.4999 18.41C15.3159 18.41 18.4099 14.469 18.4099 10.5Z" fill="#191E26"/>
<path d="M11 6L11 11.0826" stroke="#191E26" stroke-width="1.5" stroke-linecap="round"/>
<line x1="13.1893" y1="13.25" x2="11.25" y2="11.3107" stroke="#191E26" stroke-width="1.5" stroke-linecap="round"/>
</svg>
