<svg width="21" height="21" viewBox="0 0 21 21" fill="none" xmlns="http://www.w3.org/2000/svg">
<path fill-rule="evenodd" clip-rule="evenodd" d="M18.4104 10.4999C18.4104 6.53094 15.3164 2.58994 10.5004 2.58994C6.61119 2.58994 4.68899 5.46834 3.86859 6.99994H5.30039C5.48604 6.99994 5.66409 7.07369 5.79537 7.20497C5.92664 7.33624 6.00039 7.51429 6.00039 7.69994C6.00039 7.88559 5.92664 8.06364 5.79537 8.19492C5.66409 8.32619 5.48604 8.39994 5.30039 8.39994H2.10039C1.91474 8.39994 1.73669 8.32619 1.60542 8.19492C1.47414 8.06364 1.40039 7.88559 1.40039 7.69994V4.49994C1.40039 4.31429 1.47414 4.13624 1.60542 4.00497C1.73669 3.87369 1.91474 3.79994 2.10039 3.79994C2.28604 3.79994 2.46409 3.87369 2.59537 4.00497C2.72664 4.13624 2.80039 4.31429 2.80039 4.49994V6.03814C3.78739 4.29934 6.06799 1.18994 10.5004 1.18994C16.1886 1.18994 19.8104 5.85894 19.8104 10.4999C19.8104 15.1409 16.1886 19.8099 10.5004 19.8099C7.77879 19.8099 5.51359 18.7319 3.89939 17.0911C3.04414 16.2181 2.36576 15.1879 1.90159 14.0573C1.86666 13.9723 1.84882 13.8812 1.84908 13.7893C1.84935 13.6974 1.86772 13.6064 1.90315 13.5216C1.93857 13.4368 1.99036 13.3597 2.05555 13.2949C2.12074 13.2301 2.19806 13.1788 2.28309 13.1438C2.36812 13.1089 2.4592 13.0911 2.55113 13.0913C2.64305 13.0916 2.73403 13.11 2.81885 13.1454C2.90368 13.1808 2.9807 13.2326 3.04551 13.2978C3.11032 13.363 3.16166 13.4403 3.19659 13.5253C3.58859 14.4787 4.16539 15.3649 4.89899 16.1097C6.25979 17.4957 8.16939 18.4099 10.5004 18.4099C15.3164 18.4099 18.4104 14.4689 18.4104 10.4999Z" fill="#191E26"/>
<path d="M10.2012 7.8C10.2012 7.35817 10.5593 7 11.0012 7C11.443 7 11.8012 7.35817 11.8012 7.8V14.2C11.8012 14.6418 11.443 15 11.0012 15C10.5593 15 10.2012 14.6418 10.2012 14.2V7.8Z" fill="#191E26"/>
<path d="M7.8 11.8C7.35817 11.8 7 11.4419 7 11C7 10.5582 7.35817 10.2 7.8 10.2L14.2 10.2C14.6418 10.2 15 10.5582 15 11C15 11.4419 14.6418 11.8 14.2 11.8L7.8 11.8Z" fill="#191E26"/>
</svg>
