<svg width="21" height="21" viewBox="0 0 21 21" fill="none" xmlns="http://www.w3.org/2000/svg">
<path d="M10.5001 5.90628C9.59151 5.90628 8.70335 6.1757 7.94791 6.68047C7.19247 7.18524 6.60368 7.90268 6.25599 8.74208C5.9083 9.58148 5.81733 10.5051 5.99458 11.3962C6.17183 12.2873 6.60934 13.1059 7.25179 13.7483C7.89424 14.3907 8.71277 14.8283 9.60387 15.0055C10.495 15.1828 11.4186 15.0918 12.258 14.7441C13.0974 14.3964 13.8149 13.8076 14.3196 13.0522C14.8244 12.2967 15.0938 11.4086 15.0938 10.5C15.0938 9.28169 14.6098 8.11326 13.7483 7.25176C12.8868 6.39026 11.7184 5.90628 10.5001 5.90628ZM10.5001 13.125C9.98089 13.125 9.47337 12.9711 9.04169 12.6826C8.61001 12.3942 8.27356 11.9842 8.07488 11.5046C7.8762 11.0249 7.82421 10.4971 7.9255 9.98792C8.02679 9.47872 8.27679 9.01099 8.64391 8.64388C9.01102 8.27676 9.47875 8.02676 9.98795 7.92547C10.4972 7.82418 11.025 7.87617 11.5046 8.07485C11.9843 8.27353 12.3942 8.60998 12.6827 9.04166C12.9711 9.47334 13.1251 9.98086 13.1251 10.5C13.1229 11.1956 12.8456 11.862 12.3538 12.3538C11.862 12.8456 11.1956 13.1229 10.5001 13.125ZM19.8024 8.48206C19.7727 8.34573 19.7142 8.21734 19.6307 8.10555C19.5472 7.99377 19.4407 7.90117 19.3184 7.83402L17.4481 6.80042C17.3661 6.63636 17.2758 6.4805 17.1856 6.33284L17.2184 4.20003C17.2213 4.06001 17.1942 3.92099 17.139 3.79226C17.0839 3.66353 17.0019 3.54805 16.8985 3.45355C15.8913 2.5388 14.6997 1.85067 13.404 1.43558C13.2707 1.39403 13.13 1.38132 12.9914 1.39829C12.8528 1.41526 12.7194 1.46153 12.6001 1.53402L10.7708 2.62503H10.2294L8.40006 1.53402C8.28051 1.46202 8.14713 1.41603 8.00861 1.39907C7.87009 1.38211 7.72954 1.39455 7.59616 1.43558C6.30044 1.85067 5.1088 2.5388 4.10162 3.45355C3.99826 3.54805 3.91626 3.66353 3.86109 3.79226C3.80592 3.92099 3.77886 4.06001 3.7817 4.20003L3.81452 6.33284C3.72428 6.4805 3.63405 6.63636 3.55202 6.80042L1.6817 7.83402C1.56006 7.90201 1.45409 7.99485 1.37071 8.1065C1.28732 8.21816 1.22838 8.34612 1.19772 8.48206C0.910656 9.81206 0.910656 11.188 1.19772 12.518C1.22739 12.6543 1.28595 12.7827 1.36943 12.8945C1.45292 13.0063 1.5594 13.0989 1.6817 13.166L3.55202 14.1996C3.63405 14.3637 3.72428 14.5196 3.81452 14.6672L3.7817 16.8C3.77886 16.9401 3.80592 17.0791 3.86109 17.2078C3.91626 17.3365 3.99826 17.452 4.10162 17.5465C5.1088 18.4613 6.30044 19.1494 7.59616 19.5645C7.72947 19.606 7.8701 19.6187 8.0087 19.6018C8.14731 19.5848 8.28071 19.5385 8.40006 19.466L10.2294 18.375H10.7708L12.6001 19.466C12.752 19.5628 12.9285 19.6141 13.1087 19.6137C13.2091 19.6134 13.3088 19.5968 13.404 19.5645C14.6997 19.1494 15.8913 18.4613 16.8985 17.5465C17.0019 17.452 17.0839 17.3365 17.139 17.2078C17.1942 17.0791 17.2213 16.9401 17.2184 16.8L17.1856 14.6672C17.2758 14.5196 17.3661 14.3637 17.4481 14.1996L19.3184 13.166C19.4401 13.0981 19.546 13.0052 19.6294 12.8936C19.7128 12.7819 19.7717 12.6539 19.8024 12.518C20.0895 11.188 20.0895 9.81206 19.8024 8.48206ZM17.9567 11.6731L16.234 12.6246C16.0562 12.7244 15.9131 12.8761 15.8239 13.0594C15.6941 13.3263 15.5461 13.5839 15.3809 13.8305C15.2668 13.997 15.2067 14.1946 15.2087 14.3965L15.2415 16.3735C14.6299 16.8657 13.9466 17.2613 13.2153 17.5465L11.5255 16.5293C11.3713 16.4386 11.1958 16.3904 11.0169 16.3899H10.943C10.6482 16.4145 10.3519 16.4145 10.0571 16.3899C9.85314 16.3742 9.64941 16.423 9.47467 16.5293L7.78483 17.5465C7.05259 17.2632 6.36899 16.8674 5.75866 16.3735L5.79147 14.4047C5.79355 14.2003 5.73348 14 5.6192 13.8305C5.45406 13.5839 5.30606 13.3263 5.17623 13.0594C5.08491 12.8775 4.94233 12.7264 4.76608 12.6246L3.04342 11.6731C2.92031 10.8959 2.92031 10.1042 3.04342 9.32698L4.76608 8.37542C4.94389 8.27566 5.08699 8.12398 5.17623 7.94066C5.30606 7.67379 5.45406 7.41615 5.6192 7.16956C5.73331 7.00302 5.79345 6.80542 5.79147 6.60355L5.75866 4.62659C6.37018 4.13441 7.0535 3.7388 7.78483 3.45355L9.47467 4.47073C9.64897 4.57815 9.85305 4.62701 10.0571 4.61019C10.3519 4.58557 10.6482 4.58557 10.943 4.61019C11.147 4.62588 11.3507 4.57709 11.5255 4.47073L13.2153 3.45355C13.9475 3.7369 14.6311 4.13267 15.2415 4.62659L15.2087 6.59534C15.2066 6.79978 15.2667 7.00003 15.3809 7.16956C15.5461 7.41615 15.6941 7.67379 15.8239 7.94066C15.9152 8.12253 16.0578 8.27367 16.234 8.37542L17.9567 9.32698C18.0798 10.1042 18.0798 10.8959 17.9567 11.6731Z" fill="#191E26"/>
</svg>
