<svg width="27" height="28" viewBox="0 0 27 28" fill="none" xmlns="http://www.w3.org/2000/svg">
<path fill-rule="evenodd" clip-rule="evenodd" d="M10.9052 27.3294L1.72964 18.1537C-0.576546 15.8476 -0.576546 12.1085 1.72964 9.80231C4.0356 7.49634 7.77419 7.49612 10.0804 9.80165L10.9052 10.6265L11.7611 9.77057C14.0674 7.46504 17.8066 7.4646 20.1126 9.77057C22.4188 12.0767 22.4188 15.8158 20.1126 18.122L10.9052 27.3294ZM10.9052 24.9252L18.9105 16.9199C20.5528 15.2776 20.5528 12.6149 18.9105 10.9726C17.2682 9.33036 14.6055 9.33036 12.9632 10.9726L10.9052 13.0306L8.879 11.0044C7.2367 9.3621 4.57401 9.3621 2.93172 11.0044C1.28943 12.6467 1.28943 15.3094 2.93172 16.9517L3.75584 17.7758L10.9052 24.9252Z" fill="#191E26"/>
<path d="M11 14.25L11 17.25" stroke="#191E26" stroke-width="1.5" stroke-linecap="round"/>
<path d="M13.0605 1.25L10 4.25" stroke="#191E26" stroke-width="1.7" stroke-linecap="round"/>
<path d="M13.1211 7.37134L10 4.25" stroke="#191E26" stroke-width="1.7" stroke-linecap="round"/>
<line x1="12.1893" y1="18.5" x2="11.25" y2="17.5607" stroke="#191E26" stroke-width="1.5" stroke-linecap="round"/>
<path d="M11.4435 25.629L18.161 18.9115L21.5198 15.5528L21.9003 15.1448C24.2124 12.6663 24.2225 8.82435 21.9234 6.33373V6.33373C20.6973 5.00545 18.9719 4.25001 17.1643 4.25001L11.5 4.25" stroke="#191E26" stroke-width="1.7" stroke-linecap="round"/>
</svg>
