<svg width="38" height="43" viewBox="0 0 38 43" fill="none" xmlns="http://www.w3.org/2000/svg">
<path d="M14.5523 9.22249H17.8927C18.6479 9.22249 19.3127 9.36126 19.8872 9.63882C20.4681 9.90992 20.9167 10.3004 21.233 10.8104C21.5557 11.3203 21.7171 11.9206 21.7171 12.6112C21.7171 13.3019 21.5557 13.9022 21.233 14.4121C20.9167 14.9221 20.4681 15.3158 19.8872 15.5933C19.3127 15.8644 18.6479 16 17.8927 16H14.5523V9.22249ZM17.7958 14.2185C18.2864 14.2185 18.6769 14.0797 18.9674 13.8021C19.2643 13.5181 19.4128 13.1212 19.4128 12.6112C19.4128 12.1013 19.2643 11.7076 18.9674 11.43C18.6769 11.146 18.2864 11.004 17.7958 11.004H16.8373V14.2185H17.7958Z" fill="#191E26"/>
<path d="M1.99982 18L6.60983 19.75L13.5398 26.68L9.99982 30.22L3.07982 23.29C1.56982 21.78 1.99982 18 1.99982 18ZM15.6698 26L17.0798 27.39L15.6698 28.8L21.3198 34.46L17.7898 38L12.1298 32.34L10.7198 33.76L9.29982 32.34L15.6698 26Z" fill="#191E26"/>
<circle cx="18" cy="13" r="9" stroke="#191E26" stroke-width="2"/>
<rect x="17" width="2" height="7" rx="1" fill="#191E26"/>
<rect x="17" y="19" width="2" height="7" rx="1" fill="#191E26"/>
<rect x="5" y="14" width="2" height="7" rx="1" transform="rotate(-90 5 14)" fill="#191E26"/>
<rect x="24" y="14" width="2" height="7" rx="1" transform="rotate(-90 24 14)" fill="#191E26"/>
<path d="M19.4434 28.4527L29.3424 19.2603L32.2093 22.0888L31.4926 22.7959L32.2093 23.503L27.9089 27.7456C27.7188 27.9331 27.612 28.1875 27.612 28.4527C27.612 28.7179 27.7188 28.9723 27.9089 29.1598L28.6256 29.8669C29.0058 30.242 29.2194 30.7507 29.2194 31.2811C29.2194 31.8116 29.0058 32.3203 28.6256 32.6954L26.203 35.0854C25.9307 35.3541 25.8375 35.7571 25.9593 36.1178L26.6786 37.8695C26.8004 38.2301 26.7073 38.6191 26.4349 38.8878L23.6084 41.8877C23.6084 41.8877 21.7879 42.3214 21.4582 39.7664C21.4582 39.7664 20.7414 34.8167 17.8745 37.6451L14.2908 34.1096L15.0075 33.4025L14.6491 32.3418L15.4434 28.4527L19.4434 28.4527ZM27.9089 30.574L27.1921 29.8669C27.002 29.6794 26.7442 29.574 26.4754 29.574C26.2065 29.574 25.9487 29.6794 25.7586 29.8669L25.0419 30.574C25.0419 30.574 25.0419 31.9882 26.4754 31.9882C26.0952 32.3633 25.5796 32.574 25.0419 32.574C24.5042 32.574 23.9886 32.3633 23.6084 31.9882C23.4183 32.1758 23.3115 32.4301 23.3115 32.6954C23.3115 32.9606 23.4183 33.2149 23.6084 33.4025L24.3252 34.1096C24.5152 34.2971 24.7731 34.4025 25.0419 34.4025C25.3107 34.4025 25.5685 34.2971 25.7586 34.1096L27.9089 31.9882C28.099 31.8007 28.2058 31.5464 28.2058 31.2811C28.2058 31.0159 28.099 30.7616 27.9089 30.574Z" fill="#191E26"/>
</svg>
