<svg width="45" height="41" viewBox="0 0 45 41" fill="none" xmlns="http://www.w3.org/2000/svg">
<path d="M19.2634 24.3613L32.763 24.8609L32.7903 28.8882L31.7834 28.8814L31.7903 29.8882L25.7494 29.8473C25.4824 29.8455 25.227 29.9498 25.0394 30.1374C24.8519 30.3249 24.7476 30.5803 24.7494 30.8473L24.7562 31.8541C24.7598 32.3882 24.5511 32.8989 24.176 33.274C23.801 33.649 23.2902 33.8577 22.7562 33.8541L19.3532 33.8311C18.9706 33.8285 18.6197 34.0476 18.4508 34.3888L17.7208 36.1361C17.5519 36.4772 17.211 36.6863 16.8284 36.6837L12.7085 36.8064C12.7085 36.8064 11.1145 35.8258 12.6881 33.786C12.6881 33.786 15.6812 29.7792 11.654 29.7519L11.6199 24.7178L12.6267 24.7247L13.1233 23.7212L16.4349 21.5329L19.2634 24.3613ZM23.7494 31.8473L23.7426 30.8405C23.7408 30.5735 23.6329 30.3167 23.4429 30.1266C23.2528 29.9365 22.996 29.8287 22.7289 29.8269L21.7221 29.82C21.7221 29.82 20.7221 30.82 21.7358 31.8337C21.2017 31.8301 20.6881 31.6144 20.3079 31.2343C19.9277 30.8541 19.7121 30.3405 19.7085 29.8064C19.4415 29.8046 19.1861 29.909 18.9986 30.0965C18.811 30.284 18.7067 30.5394 18.7085 30.8064L18.7153 31.8132C18.7171 32.0803 18.8249 32.3371 19.015 32.5272C19.2051 32.7172 19.4619 32.8251 19.7289 32.8269L22.7494 32.8473C23.0164 32.8491 23.2718 32.7448 23.4593 32.5572C23.6468 32.3697 23.7512 32.1143 23.7494 31.8473Z" fill="#191E26"/>
<path d="M34 14.0001V13.0001L33 13.0001L22.5 13.0001C20.5053 13.0001 18.9229 13 17.6079 13C15.1002 13 13.5654 13 11.9999 13.0001L11 13.0002V14.0001C11 20.5831 16.1054 26 22.5 26C28.8946 26 34 20.5831 34 14.0001Z" fill="#191E26" stroke="#F2F4FF" stroke-width="2"/>
<path d="M15.2045 5.22249C15.8306 5.22249 16.376 5.32576 16.8408 5.53232C17.3055 5.73887 17.6638 6.03579 17.9155 6.42307C18.1672 6.81036 18.2931 7.2622 18.2931 7.77858C18.2931 8.29496 18.1672 8.74679 17.9155 9.13408C17.6638 9.52137 17.3055 9.81829 16.8408 10.0248C16.376 10.2314 15.8306 10.3347 15.2045 10.3347H14.2266V12H11.9416V5.22249H15.2045ZM15.0593 8.57251C15.3691 8.57251 15.6015 8.50474 15.7564 8.36919C15.9113 8.22718 15.9888 8.03031 15.9888 7.77858C15.9888 7.52684 15.9113 7.3332 15.7564 7.19765C15.6015 7.05564 15.3691 6.98464 15.0593 6.98464H14.2266V8.57251H15.0593ZM26.9648 5.22249L24.0988 12H21.8526L18.9867 5.22249H21.4459L23.0629 9.18249L24.7185 5.22249H26.9648ZM31.2296 5.22249C31.8557 5.22249 32.4012 5.32576 32.8659 5.53232C33.3306 5.73887 33.6889 6.03579 33.9406 6.42307C34.1924 6.81036 34.3182 7.2622 34.3182 7.77858C34.3182 8.29496 34.1924 8.74679 33.9406 9.13408C33.6889 9.52137 33.3306 9.81829 32.8659 10.0248C32.4012 10.2314 31.8557 10.3347 31.2296 10.3347H30.2517V12H27.9667V5.22249H31.2296ZM31.0844 8.57251C31.3942 8.57251 31.6266 8.50474 31.7815 8.36919C31.9364 8.22718 32.0139 8.03031 32.0139 7.77858C32.0139 7.52684 31.9364 7.3332 31.7815 7.19765C31.6266 7.05564 31.3942 6.98464 31.0844 6.98464H30.2517V8.57251H31.0844Z" fill="#191E26"/>
<path d="M26.2983 17.0307C26.7158 17.1612 27 17.5478 27 17.9852L27 19.0148C27 19.4522 26.7158 19.8388 26.2983 19.9693L23.1457 20.9545C23.0491 20.9847 22.9485 21 22.8474 21L20 21C19.4477 21 19 20.5523 19 20L19 17C19 16.4477 19.4477 16 20 16L22.8474 16C22.9485 16 23.0491 16.0153 23.1457 16.0455L26.2983 17.0307Z" fill="#F2F4FF"/>
</svg>
