<svg width="41" height="42" viewBox="0 0 41 42" fill="none" xmlns="http://www.w3.org/2000/svg">
<path d="M3.7054 18.6961L2.09687 18.6963V20.3048C2.09687 30.8949 10.3099 39.609 20.5969 39.609C30.8839 39.609 39.0969 30.8949 39.0969 20.3048C39.0969 18.6379 38.9766 17.2787 38.7036 16.2112C38.4348 15.1603 37.963 14.1784 37.0884 13.5611C36.1696 12.9126 35.1392 12.8955 34.2773 13.0739C33.442 13.2468 32.588 13.636 31.7917 14.0551C31.1138 14.4118 30.3821 14.8431 29.6471 15.2765C29.5068 15.3592 29.3664 15.4419 29.2262 15.5243C28.3323 16.0494 27.4125 16.5783 26.4552 17.0547C24.5284 18.0133 22.5684 18.696 20.5969 18.696C17.3859 18.696 14.839 18.696 12.7229 18.696C8.69108 18.6959 6.22303 18.6959 3.7054 18.6961Z" fill="#191E26" stroke="#F2F4FF" stroke-width="3.2174"/>
<mask id="path-2-outside-1_1_3508" maskUnits="userSpaceOnUse" x="1.00195" y="0.608398" width="39" height="39" fill="black">
<rect fill="white" x="1.00195" y="0.608398" width="39" height="39"/>
<path fill-rule="evenodd" clip-rule="evenodd" d="M34.3342 12.8136C34.4423 12.801 34.5516 12.791 34.6609 12.7809C32.4276 6.83626 26.6903 2.6084 19.969 2.6084C11.36 2.6084 4.25906 9.73443 4.25906 18.3183V21.5357C4.2563 22.3729 4.15763 23.207 3.96497 24.0217C5.22931 23.9425 6.78019 23.759 7.82962 23.5541C8.65533 23.392 10.2703 22.7749 12.3478 21.8814C14.4001 20.9978 16.8371 19.8705 19.2702 18.7293C20.0466 18.3649 20.8236 17.9976 21.5871 17.6368L22.3871 17.2589L22.3896 17.2576C23.7231 16.6267 25 16.0234 26.1436 15.4906C28.1495 14.5555 29.7934 13.8152 30.643 13.5224C31.6233 13.1831 33.0284 12.9493 34.3342 12.8136ZM24.1617 32.7715L23.4076 30.1322H17.1538L18.0838 32.7715H24.1617ZM38.1922 15.7545C38.1683 14.7968 37.408 14.0352 36.4742 13.9321C35.8024 13.9491 35.1316 13.9927 34.4633 14.0628C33.1864 14.1961 31.8944 14.4198 31.0524 14.7101C30.2794 14.9765 28.7022 15.6841 26.6737 16.6292C25.6359 17.1127 24.4947 17.6521 23.2988 18.2174L22.931 18.3912L22.7017 18.4996L22.7011 18.4999C21.755 18.9473 20.7817 19.4075 19.804 19.8667C17.3696 21.0104 14.9164 22.1428 12.8452 23.0351C10.7966 23.9174 9.05342 24.5948 8.07187 24.7871C6.86031 25.0246 5.0078 25.2357 3.5939 25.2998C3.46697 25.6681 3.32369 26.03 3.16534 26.387C3.05223 26.6132 3.00195 26.8645 3.00195 27.141C3.00856 27.6367 3.21009 28.1097 3.56292 28.4579C3.91575 28.806 4.39149 29.0011 4.88715 29.0011C8.42251 29.0011 10.0388 28.2772 13.1908 26.8633L13.3831 26.7766L29.3444 19.5877C29.5417 19.4995 29.7297 19.414 29.911 19.3315L30.1161 19.2383L30.1226 19.2353C32.3793 18.2118 33.5297 17.6899 36.2945 17.6899C37.3627 17.6899 38.2174 16.8228 38.1922 15.7545ZM23.4375 27.6186H22.7161L21.7861 24.3698L16.2185 26.8784L16.4573 27.7192C15.9163 27.8763 15.4422 28.2077 15.1087 28.6618C14.8759 28.9861 14.7232 29.361 14.6632 29.7558C14.6031 30.1505 14.6373 30.5538 14.7631 30.9328L14.7682 30.9491L15.7082 33.6148L15.7133 33.6274C15.8932 34.1117 16.2164 34.5298 16.6399 34.8259C17.0633 35.122 17.5669 35.2822 18.0836 35.2851H18.6165L19.1393 37.12C19.1964 37.3158 19.3155 37.4878 19.4786 37.6101C19.6418 37.7325 19.8402 37.7987 20.0442 37.7987H24.5812C25.1091 37.7987 25.4861 37.2959 25.3353 36.7932L24.8778 35.1883C25.3981 35.04 25.8657 34.7233 26.1974 34.2859C26.4343 33.9739 26.5945 33.6106 26.6653 33.2253C26.736 32.84 26.7152 32.4435 26.6047 32.0677L25.8518 29.4347C25.5464 28.3626 24.546 27.6186 23.4375 27.6186ZM24.213 34.0283H24.1916H18.0836C17.8226 34.0259 17.5685 33.944 17.3552 33.7935C17.1419 33.6431 16.9795 33.4313 16.8896 33.1862L15.9596 30.547C15.8937 30.3571 15.8741 30.1542 15.9026 29.9553C15.931 29.7563 16.0065 29.5671 16.123 29.4033C16.2423 29.2417 16.3975 29.1099 16.5763 29.0184C16.7551 28.9268 16.9527 28.8778 17.1535 28.8754H23.4375C23.7088 28.878 23.9722 28.9672 24.1892 29.13C24.4062 29.2928 24.5656 29.5206 24.644 29.7803L25.3981 32.4196C25.4536 32.6068 25.4642 32.8044 25.4293 32.9965C25.3944 33.1886 25.3148 33.3698 25.197 33.5256C25.0809 33.6774 24.9322 33.8014 24.762 33.8884C24.5917 33.9754 24.4041 34.0232 24.213 34.0283Z"/>
</mask>
<path fill-rule="evenodd" clip-rule="evenodd" d="M34.3342 12.8136C34.4423 12.801 34.5516 12.791 34.6609 12.7809C32.4276 6.83626 26.6903 2.6084 19.969 2.6084C11.36 2.6084 4.25906 9.73443 4.25906 18.3183V21.5357C4.2563 22.3729 4.15763 23.207 3.96497 24.0217C5.22931 23.9425 6.78019 23.759 7.82962 23.5541C8.65533 23.392 10.2703 22.7749 12.3478 21.8814C14.4001 20.9978 16.8371 19.8705 19.2702 18.7293C20.0466 18.3649 20.8236 17.9976 21.5871 17.6368L22.3871 17.2589L22.3896 17.2576C23.7231 16.6267 25 16.0234 26.1436 15.4906C28.1495 14.5555 29.7934 13.8152 30.643 13.5224C31.6233 13.1831 33.0284 12.9493 34.3342 12.8136ZM24.1617 32.7715L23.4076 30.1322H17.1538L18.0838 32.7715H24.1617ZM38.1922 15.7545C38.1683 14.7968 37.408 14.0352 36.4742 13.9321C35.8024 13.9491 35.1316 13.9927 34.4633 14.0628C33.1864 14.1961 31.8944 14.4198 31.0524 14.7101C30.2794 14.9765 28.7022 15.6841 26.6737 16.6292C25.6359 17.1127 24.4947 17.6521 23.2988 18.2174L22.931 18.3912L22.7017 18.4996L22.7011 18.4999C21.755 18.9473 20.7817 19.4075 19.804 19.8667C17.3696 21.0104 14.9164 22.1428 12.8452 23.0351C10.7966 23.9174 9.05342 24.5948 8.07187 24.7871C6.86031 25.0246 5.0078 25.2357 3.5939 25.2998C3.46697 25.6681 3.32369 26.03 3.16534 26.387C3.05223 26.6132 3.00195 26.8645 3.00195 27.141C3.00856 27.6367 3.21009 28.1097 3.56292 28.4579C3.91575 28.806 4.39149 29.0011 4.88715 29.0011C8.42251 29.0011 10.0388 28.2772 13.1908 26.8633L13.3831 26.7766L29.3444 19.5877C29.5417 19.4995 29.7297 19.414 29.911 19.3315L30.1161 19.2383L30.1226 19.2353C32.3793 18.2118 33.5297 17.6899 36.2945 17.6899C37.3627 17.6899 38.2174 16.8228 38.1922 15.7545ZM23.4375 27.6186H22.7161L21.7861 24.3698L16.2185 26.8784L16.4573 27.7192C15.9163 27.8763 15.4422 28.2077 15.1087 28.6618C14.8759 28.9861 14.7232 29.361 14.6632 29.7558C14.6031 30.1505 14.6373 30.5538 14.7631 30.9328L14.7682 30.9491L15.7082 33.6148L15.7133 33.6274C15.8932 34.1117 16.2164 34.5298 16.6399 34.8259C17.0633 35.122 17.5669 35.2822 18.0836 35.2851H18.6165L19.1393 37.12C19.1964 37.3158 19.3155 37.4878 19.4786 37.6101C19.6418 37.7325 19.8402 37.7987 20.0442 37.7987H24.5812C25.1091 37.7987 25.4861 37.2959 25.3353 36.7932L24.8778 35.1883C25.3981 35.04 25.8657 34.7233 26.1974 34.2859C26.4343 33.9739 26.5945 33.6106 26.6653 33.2253C26.736 32.84 26.7152 32.4435 26.6047 32.0677L25.8518 29.4347C25.5464 28.3626 24.546 27.6186 23.4375 27.6186ZM24.213 34.0283H24.1916H18.0836C17.8226 34.0259 17.5685 33.944 17.3552 33.7935C17.1419 33.6431 16.9795 33.4313 16.8896 33.1862L15.9596 30.547C15.8937 30.3571 15.8741 30.1542 15.9026 29.9553C15.931 29.7563 16.0065 29.5671 16.123 29.4033C16.2423 29.2417 16.3975 29.1099 16.5763 29.0184C16.7551 28.9268 16.9527 28.8778 17.1535 28.8754H23.4375C23.7088 28.878 23.9722 28.9672 24.1892 29.13C24.4062 29.2928 24.5656 29.5206 24.644 29.7803L25.3981 32.4196C25.4536 32.6068 25.4642 32.8044 25.4293 32.9965C25.3944 33.1886 25.3148 33.3698 25.197 33.5256C25.0809 33.6774 24.9322 33.8014 24.762 33.8884C24.5917 33.9754 24.4041 34.0232 24.213 34.0283Z" fill="#191E26"/>
<path d="M34.6609 12.7809L34.8082 14.3828L36.9087 14.1897L36.1669 12.2151L34.6609 12.7809ZM34.3342 12.8136L34.5005 14.4137L34.5102 14.4126L34.52 14.4115L34.3342 12.8136ZM4.25906 21.5357L5.86776 21.541V21.5357H4.25906ZM3.96497 24.0217L2.39945 23.6515L1.90016 25.7628L4.06552 25.6272L3.96497 24.0217ZM7.82962 23.5541L8.13783 25.133L8.13956 25.1327L7.82962 23.5541ZM12.3478 21.8814L12.9834 23.3591L12.9839 23.3589L12.3478 21.8814ZM19.2702 18.7293L19.9533 20.1858L19.9539 20.1855L19.2702 18.7293ZM21.5871 17.6368L20.8999 16.1823L20.8997 16.1824L21.5871 17.6368ZM22.3871 17.2589L23.0743 18.7134L23.0903 18.7058L23.1061 18.6979L22.3871 17.2589ZM22.3896 17.2576L21.7016 15.8035L21.686 15.8108L21.6706 15.8185L22.3896 17.2576ZM26.1436 15.4906L26.8231 16.9487L26.8233 16.9486L26.1436 15.4906ZM30.643 13.5224L31.1672 15.0433L31.1692 15.0426L30.643 13.5224ZM23.4076 30.1322L24.9544 29.6903L24.621 28.5235H23.4076V30.1322ZM24.1617 32.7715V34.3802H26.2944L25.7085 32.3295L24.1617 32.7715ZM17.1538 30.1322V28.5235H14.8813L15.6365 30.6669L17.1538 30.1322ZM18.0838 32.7715L16.5666 33.3061L16.945 34.3802H18.0838V32.7715ZM36.4742 13.9321L36.6507 12.3331L36.5424 12.3212L36.4336 12.3239L36.4742 13.9321ZM38.1922 15.7545L39.8005 15.7166L39.8004 15.7144L38.1922 15.7545ZM34.4633 14.0628L34.6302 15.6628L34.6313 15.6627L34.4633 14.0628ZM31.0524 14.7101L31.5766 16.231L31.5767 16.2309L31.0524 14.7101ZM26.6737 16.6292L25.9943 15.171L25.9943 15.171L26.6737 16.6292ZM23.2988 18.2174L23.9862 19.6718L23.9862 19.6718L23.2988 18.2174ZM22.931 18.3912L22.2435 16.9368L22.2433 16.9369L22.931 18.3912ZM22.7017 18.4996L22.014 17.0453L22.0096 17.0475L22.7017 18.4996ZM22.7011 18.4999L23.3888 19.9542L23.3933 19.9521L22.7011 18.4999ZM19.804 19.8667L19.1202 18.4106L19.12 18.4107L19.804 19.8667ZM12.8452 23.0351L13.4815 24.5126L13.4817 24.5125L12.8452 23.0351ZM8.07187 24.7871L7.7626 23.2084L7.76236 23.2084L8.07187 24.7871ZM3.5939 25.2998L3.52105 23.6928L2.42921 23.7423L2.07303 24.7756L3.5939 25.2998ZM3.16534 26.387L4.6042 27.1064L4.62078 27.0732L4.63581 27.0394L3.16534 26.387ZM3.00195 27.141H1.39326V27.1518L1.3934 27.1625L3.00195 27.141ZM3.56292 28.4579L2.43306 29.603L2.43306 29.603L3.56292 28.4579ZM4.88715 29.0011V27.3924H4.887L4.88715 29.0011ZM13.1908 26.8633L13.8492 28.3311L13.8521 28.3298L13.1908 26.8633ZM13.3831 26.7766L12.7224 25.3098L12.7217 25.3101L13.3831 26.7766ZM29.3444 19.5877L28.6879 18.119L28.6837 18.1209L29.3444 19.5877ZM29.911 19.3315L29.2454 17.867L29.2449 17.8672L29.911 19.3315ZM30.1161 19.2383L29.4514 17.7733L29.4504 17.7738L30.1161 19.2383ZM30.1226 19.2353L29.4581 17.7703L29.458 17.7704L30.1226 19.2353ZM22.7161 27.6186L21.1696 28.0614L21.5033 29.2273H22.7161V27.6186ZM21.7861 24.3698L23.3327 23.9271L22.8208 22.1391L21.1253 22.9031L21.7861 24.3698ZM16.2185 26.8784L15.5577 25.4117L14.2916 25.9821L14.671 27.3179L16.2185 26.8784ZM16.4573 27.7192L16.9061 29.264L18.4417 28.8179L18.0048 27.2797L16.4573 27.7192ZM15.1087 28.6618L13.8122 27.7095L13.8069 27.7166L13.8018 27.7237L15.1087 28.6618ZM14.6632 29.7558L13.0728 29.5137L13.0728 29.5137L14.6632 29.7558ZM14.7631 30.9328L16.3006 30.4595L16.2955 30.4427L16.2899 30.426L14.7631 30.9328ZM14.7682 30.9491L13.2306 31.4224L13.2402 31.4535L13.251 31.4842L14.7682 30.9491ZM15.7082 33.6148L14.1911 34.1498L14.2022 34.1813L14.2146 34.2123L15.7082 33.6148ZM15.7133 33.6274L17.2212 33.067L17.2143 33.0483L17.2069 33.0298L15.7133 33.6274ZM16.6399 34.8259L17.5618 33.5076L17.5618 33.5076L16.6399 34.8259ZM18.0836 35.2851L18.0746 36.8938H18.0836V35.2851ZM18.6165 35.2851L20.1636 34.8442L19.8308 33.6764H18.6165V35.2851ZM19.1393 37.12L17.5921 37.5608L17.5949 37.5704L19.1393 37.12ZM19.4786 37.6101L18.5134 38.8971L18.5134 38.8971L19.4786 37.6101ZM25.3353 36.7932L23.7882 37.2342L23.7913 37.2449L23.7944 37.2555L25.3353 36.7932ZM24.8778 35.1883L24.4369 33.6412L22.8897 34.0822L23.3307 35.6293L24.8778 35.1883ZM26.1974 34.2859L24.9161 33.3133L24.9158 33.3137L26.1974 34.2859ZM26.6653 33.2253L28.2475 33.5158L28.2475 33.5158L26.6653 33.2253ZM26.6047 32.0677L25.0579 32.5099L25.0614 32.5218L26.6047 32.0677ZM25.8518 29.4347L24.3047 29.8754L24.3051 29.8769L25.8518 29.4347ZM24.213 34.0283V35.637H24.2344L24.2559 35.6364L24.213 34.0283ZM18.0836 34.0283L18.0686 35.6369L18.0761 35.637H18.0836V34.0283ZM17.3552 33.7935L16.428 35.1082L16.4281 35.1082L17.3552 33.7935ZM16.8896 33.1862L15.3724 33.7209L15.3758 33.7306L15.3793 33.7402L16.8896 33.1862ZM15.9596 30.547L14.4398 31.0745L14.4423 31.0816L15.9596 30.547ZM15.9026 29.9553L14.31 29.7278L14.31 29.7278L15.9026 29.9553ZM16.123 29.4033L14.829 28.4475L14.8203 28.4593L14.8117 28.4713L16.123 29.4033ZM16.5763 29.0184L17.3097 30.4502L17.3097 30.4502L16.5763 29.0184ZM17.1535 28.8754V27.2667H17.1438L17.1341 27.2668L17.1535 28.8754ZM23.4375 28.8754L23.453 27.2668L23.4452 27.2667H23.4375V28.8754ZM24.644 29.7803L26.1908 29.3384L26.1875 29.3267L26.184 29.3151L24.644 29.7803ZM25.3981 32.4196L23.8513 32.8615L23.8534 32.8689L23.8556 32.8762L25.3981 32.4196ZM25.197 33.5256L26.4749 34.5028L26.4801 34.496L25.197 33.5256ZM34.5136 11.179C34.4076 11.1887 34.2789 11.2005 34.1484 11.2156L34.52 14.4115C34.6056 14.4016 34.6956 14.3932 34.8082 14.3828L34.5136 11.179ZM19.969 4.2171C25.9986 4.2171 31.1497 8.00906 33.155 13.3467L36.1669 12.2151C33.7055 5.66346 27.3821 0.999701 19.969 0.999701V4.2171ZM5.86776 18.3183C5.86776 10.6212 12.2501 4.2171 19.969 4.2171V0.999701C10.4698 0.999701 2.65036 8.84764 2.65036 18.3183H5.86776ZM5.86776 21.5357V18.3183H2.65036V21.5357H5.86776ZM5.53049 24.3919C5.75143 23.4576 5.86459 22.5011 5.86775 21.541L2.65037 21.5304C2.64802 22.2447 2.56383 22.9564 2.39945 23.6515L5.53049 24.3919ZM7.5214 21.9753C6.55644 22.1636 5.07731 22.3402 3.86443 22.4161L4.06552 25.6272C5.38131 25.5448 7.00395 25.3544 8.13783 25.133L7.5214 21.9753ZM11.7122 20.4036C9.5954 21.314 8.14495 21.8528 7.51967 21.9756L8.13956 25.1327C9.16571 24.9312 10.9452 24.2358 12.9834 23.3591L11.7122 20.4036ZM18.5871 17.2728C16.1548 18.4136 13.7383 19.5313 11.7117 20.4038L12.9839 23.3589C15.062 22.4643 17.5193 21.3274 19.9533 20.1858L18.5871 17.2728ZM20.8997 16.1824C20.1359 16.5433 19.3608 16.9097 18.5866 17.2731L19.9539 20.1855C20.7324 19.82 21.5113 19.452 22.2744 19.0913L20.8997 16.1824ZM21.6999 15.8043L20.8999 16.1823L22.2743 19.0914L23.0743 18.7134L21.6999 15.8043ZM21.6706 15.8185L21.6681 15.8198L23.1061 18.6979L23.1086 18.6967L21.6706 15.8185ZM25.4642 14.0324C24.3157 14.5675 23.0348 15.1727 21.7016 15.8035L23.0776 18.7118C24.4113 18.0807 25.6842 17.4793 26.8231 16.9487L25.4642 14.0324ZM30.1188 12.0015C29.1719 12.3279 27.4417 13.1105 25.4639 14.0325L26.8233 16.9486C28.8573 16.0005 30.4149 15.3026 31.1672 15.0433L30.1188 12.0015ZM34.1679 11.2135C32.8274 11.3528 31.2749 11.6013 30.1167 12.0022L31.1692 15.0426C31.9717 14.7648 33.2293 14.5458 34.5005 14.4137L34.1679 11.2135ZM21.8608 30.5742L22.6149 33.2134L25.7085 32.3295L24.9544 29.6903L21.8608 30.5742ZM17.1538 31.7409H23.4076V28.5235H17.1538V31.7409ZM19.6011 32.2368L18.671 29.5976L15.6365 30.6669L16.5666 33.3061L19.6011 32.2368ZM24.1617 31.1628H18.0838V34.3802H24.1617V31.1628ZM36.2977 15.5311C36.3827 15.5405 36.4598 15.5805 36.5134 15.6364C36.5634 15.6885 36.5827 15.7419 36.584 15.7946L39.8004 15.7144C39.755 13.8912 38.3224 12.5176 36.6507 12.3331L36.2977 15.5311ZM34.6313 15.6627C35.2572 15.597 35.8855 15.5562 36.5147 15.5403L36.4336 12.3239C35.7193 12.3419 35.006 12.3883 34.2953 12.4629L34.6313 15.6627ZM31.5767 16.2309C32.2427 16.0013 33.3889 15.7924 34.6302 15.6628L34.2964 12.4628C32.984 12.5997 31.5461 12.8382 30.528 13.1892L31.5767 16.2309ZM27.3531 18.0874C29.4104 17.1288 30.901 16.4639 31.5766 16.231L30.5281 13.1892C29.6579 13.4892 27.9939 14.2394 25.9943 15.171L27.3531 18.0874ZM23.9862 19.6718C25.1831 19.1061 26.3201 18.5687 27.3531 18.0874L25.9943 15.171C24.9517 15.6568 23.8062 16.1982 22.6113 16.763L23.9862 19.6718ZM23.6184 19.8457L23.9862 19.6718L22.6114 16.763L22.2435 16.9368L23.6184 19.8457ZM23.3894 19.9539L23.6186 19.8455L22.2433 16.9369L22.014 17.0453L23.3894 19.9539ZM23.3933 19.9521L23.3939 19.9518L22.0096 17.0475L22.0089 17.0477L23.3933 19.9521ZM20.4879 21.3228C21.4678 20.8626 22.4429 20.4015 23.3888 19.9542L22.0134 17.0456C21.067 17.4931 20.0956 17.9525 19.1202 18.4106L20.4879 21.3228ZM13.4817 24.5125C15.578 23.6094 18.0507 22.4678 20.4881 21.3227L19.12 18.4107C16.6885 19.553 14.2548 20.6762 12.2087 21.5577L13.4817 24.5125ZM8.38113 26.3658C9.56326 26.1342 11.4701 25.3788 13.4815 24.5126L12.2088 21.5576C10.1231 22.4559 8.54358 23.0554 7.7626 23.2084L8.38113 26.3658ZM3.66676 26.9069C5.14766 26.8398 7.08039 26.6208 8.38137 26.3657L7.76236 23.2084C6.64024 23.4284 4.86794 23.6317 3.52105 23.6928L3.66676 26.9069ZM4.63581 27.0394C4.81182 26.6426 4.97212 26.238 5.11478 25.8241L2.07303 24.7756C1.96182 25.0982 1.83557 25.4174 1.69486 25.7346L4.63581 27.0394ZM4.61065 27.141C4.61065 27.1001 4.61439 27.0814 4.61479 27.0795C4.61498 27.0786 4.61448 27.0812 4.61264 27.0865C4.61079 27.0919 4.60802 27.0988 4.6042 27.1064L1.72647 25.6675C1.48061 26.1593 1.39326 26.6666 1.39326 27.141H4.61065ZM4.69279 27.3127C4.64103 27.2617 4.61148 27.1923 4.61051 27.1196L1.3934 27.1625C1.40565 28.081 1.77915 28.9578 2.43306 29.603L4.69279 27.3127ZM4.887 27.3924C4.81431 27.3924 4.74453 27.3638 4.69278 27.3127L2.43306 29.603C3.08697 30.2482 3.96867 30.6099 4.88729 30.6098L4.887 27.3924ZM12.5324 25.3955C9.42446 26.7896 8.0672 27.3924 4.88715 27.3924V30.6098C8.77782 30.6098 10.653 29.7648 13.8492 28.3311L12.5324 25.3955ZM12.7217 25.3101L12.5294 25.3968L13.8521 28.3298L14.0444 28.243L12.7217 25.3101ZM28.6837 18.1209L12.7224 25.3098L14.0437 28.2434L30.005 21.0545L28.6837 18.1209ZM29.2449 17.8672C29.063 17.9499 28.8796 18.0333 28.6879 18.1191L30.0009 21.0564C30.2037 20.9657 30.3964 20.878 30.5771 20.7958L29.2449 17.8672ZM29.4504 17.7738L29.2454 17.867L30.5766 20.7961L30.7817 20.7029L29.4504 17.7738ZM29.458 17.7704L29.4514 17.7733L30.7807 20.7033L30.7873 20.7003L29.458 17.7704ZM36.2945 16.0812C34.8013 16.0812 33.6701 16.2231 32.5809 16.5306C31.5269 16.8282 30.5606 17.2702 29.4581 17.7703L30.7871 20.7004C31.9412 20.1769 32.6785 19.8462 33.4551 19.627C34.1965 19.4177 35.0229 19.2986 36.2945 19.2986V16.0812ZM36.584 15.7923C36.5877 15.9493 36.4678 16.0812 36.2945 16.0812V19.2986C38.2577 19.2986 39.8471 17.6963 39.8005 15.7166L36.584 15.7923ZM22.7161 29.2273H23.4375V26.0099H22.7161V29.2273ZM20.2395 24.8125L21.1696 28.0614L24.2627 27.1759L23.3327 23.9271L20.2395 24.8125ZM16.8793 28.3451L22.4469 25.8365L21.1253 22.9031L15.5577 25.4117L16.8793 28.3451ZM18.0048 27.2797L17.766 26.4389L14.671 27.3179L14.9098 28.1587L18.0048 27.2797ZM16.4053 29.614C16.5292 29.4454 16.7052 29.3224 16.9061 29.264L16.0085 26.1743C15.1273 26.4303 14.3553 26.97 13.8122 27.7095L16.4053 29.614ZM16.2535 29.9978C16.2754 29.8542 16.331 29.7178 16.4157 29.5998L13.8018 27.7237C13.4209 28.2545 13.1711 28.8679 13.0728 29.5137L16.2535 29.9978ZM16.2899 30.426C16.2442 30.2882 16.2317 30.1414 16.2535 29.9978L13.0728 29.5137C12.9745 30.1596 13.0305 30.8195 13.2363 31.4396L16.2899 30.426ZM16.3057 30.4759L16.3006 30.4595L13.2256 31.4061L13.2306 31.4224L16.3057 30.4759ZM17.2254 33.0798L16.2853 30.4141L13.251 31.4842L14.1911 34.1498L17.2254 33.0798ZM17.2069 33.0298L17.2018 33.0173L14.2146 34.2123L14.2197 34.2249L17.2069 33.0298ZM17.5618 33.5076C17.4062 33.3988 17.2874 33.2451 17.2212 33.067L14.2053 34.1877C14.4991 34.9783 15.0267 35.6608 15.7179 36.1442L17.5618 33.5076ZM18.0925 33.6764C17.9026 33.6753 17.7175 33.6165 17.5618 33.5076L15.7179 36.1442C16.4091 36.6276 17.2312 36.8891 18.0746 36.8937L18.0925 33.6764ZM18.6165 33.6764H18.0836V36.8938H18.6165V33.6764ZM20.6864 36.6792L20.1636 34.8442L17.0693 35.7259L17.5922 37.5608L20.6864 36.6792ZM20.4438 36.3232C20.5591 36.4097 20.6433 36.5312 20.6836 36.6696L17.5949 37.5704C17.7495 38.1004 18.0718 38.5659 18.5134 38.8971L20.4438 36.3232ZM20.0442 36.19C20.1883 36.19 20.3285 36.2367 20.4438 36.3232L18.5134 38.8971C18.955 39.2283 19.4922 39.4074 20.0442 39.4074V36.19ZM24.5812 36.19H20.0442V39.4074H24.5812V36.19ZM23.7944 37.2555C23.6316 36.7129 24.0452 36.19 24.5812 36.19V39.4074C26.1729 39.4074 27.3406 37.879 26.8761 36.331L23.7944 37.2555ZM23.3307 35.6293L23.7882 37.2342L26.8824 36.3522L26.4249 34.7473L23.3307 35.6293ZM24.9158 33.3137C24.7961 33.4715 24.6245 33.5877 24.4369 33.6412L25.3188 36.7354C26.1718 36.4923 26.9352 35.9751 27.4791 35.2582L24.9158 33.3137ZM25.083 32.9348C25.0578 33.0723 25.0006 33.2019 24.9161 33.3133L27.4788 35.2586C27.868 34.7459 28.1313 34.1489 28.2475 33.5158L25.083 32.9348ZM25.0614 32.5218C25.1008 32.6559 25.1083 32.7974 25.083 32.9349L28.2475 33.5158C28.3638 32.8826 28.3296 32.2311 28.1479 31.6135L25.0614 32.5218ZM24.3051 29.8769L25.0579 32.5099L28.1514 31.6254L27.3985 28.9925L24.3051 29.8769ZM23.4375 29.2273C23.8362 29.2273 24.1986 29.5031 24.3047 29.8754L27.399 28.9939C26.8942 27.2221 25.2558 26.0099 23.4375 26.0099V29.2273ZM24.1916 35.637H24.213V32.4196H24.1916V35.637ZM18.0836 35.637H24.1916V32.4196H18.0836V35.637ZM16.4281 35.1082C16.9085 35.447 17.4808 35.6315 18.0686 35.6369L18.0985 32.4197C18.1644 32.4203 18.2285 32.4409 18.2824 32.4789L16.4281 35.1082ZM15.3793 33.7402C15.5818 34.2922 15.9476 34.7693 16.428 35.1082L18.2824 32.4789C18.3362 32.5169 18.3772 32.5704 18.3999 32.6322L15.3793 33.7402ZM14.4423 31.0816L15.3724 33.7209L18.4069 32.6516L17.4768 30.0123L14.4423 31.0816ZM14.31 29.7278C14.2453 30.1806 14.2898 30.6424 14.4399 31.0745L17.4793 30.0194C17.4975 30.0718 17.5029 30.1279 17.4951 30.1828L14.31 29.7278ZM14.8117 28.4713C14.5467 28.8441 14.3747 29.275 14.31 29.7278L17.4951 30.1828C17.4872 30.2377 17.4664 30.29 17.4342 30.3353L14.8117 28.4713ZM15.8429 27.5865C15.443 27.7914 15.096 28.0861 14.829 28.4475L17.417 30.359C17.3887 30.3973 17.352 30.4285 17.3097 30.4502L15.8429 27.5865ZM17.1341 27.2668C16.6848 27.2723 16.2429 27.3817 15.8429 27.5865L17.3097 30.4502C17.2673 30.4718 17.2206 30.4834 17.173 30.484L17.1341 27.2668ZM23.4375 27.2667H17.1535V30.4841H23.4375V27.2667ZM25.1544 27.843C24.6632 27.4746 24.067 27.2727 23.453 27.2668L23.4221 30.484C23.3506 30.4834 23.2812 30.4598 23.224 30.4169L25.1544 27.843ZM26.184 29.3151C26.0064 28.7272 25.6457 28.2115 25.1544 27.843L23.224 30.4169C23.1668 30.374 23.1248 30.314 23.1041 30.2455L26.184 29.3151ZM26.9449 31.9776L26.1908 29.3384L23.0972 30.2223L23.8513 32.8615L26.9449 31.9776ZM27.0121 33.2843C27.0921 32.8443 27.0676 32.3917 26.9406 31.9629L23.8556 32.8762C23.8395 32.8219 23.8364 32.7645 23.8466 32.7087L27.0121 33.2843ZM26.4801 34.496C26.7498 34.1393 26.9321 33.7243 27.0121 33.2843L23.8466 32.7087C23.8567 32.653 23.8798 32.6004 23.914 32.5552L26.4801 34.496ZM25.4938 35.321C25.8777 35.1248 26.213 34.8453 26.4749 34.5028L23.9192 32.5483C23.9488 32.5096 23.9867 32.478 24.0301 32.4558L25.4938 35.321ZM24.2559 35.6364C24.6869 35.6249 25.1099 35.5171 25.4938 35.321L24.0301 32.4558C24.0735 32.4336 24.1213 32.4215 24.17 32.4202L24.2559 35.6364Z" fill="#F2F4FF" mask="url(#path-2-outside-1_1_3508)"/>
<path d="M15.6926 17.6833C14.9477 18.0104 14.2088 18.1507 13.4759 18.1043C12.7401 18.0511 12.0788 17.8212 11.4919 17.4145C10.9088 16.9981 10.461 16.4342 10.1487 15.7228C9.83627 15.0114 9.72556 14.3035 9.81652 13.5991C9.91125 12.8851 10.1895 12.2426 10.6512 11.6716C11.11 11.0939 11.7119 10.6415 12.4568 10.3144C13.1414 10.0138 13.8051 9.8664 14.4481 9.87224C15.0911 9.87808 15.6873 10.0326 16.2367 10.3357L15.3246 12.3332C14.6467 11.9745 14.0125 11.9247 13.4219 12.1841C12.9253 12.4022 12.5967 12.7386 12.4362 13.1933C12.2727 13.6414 12.3088 14.1338 12.5446 14.6707C12.7803 15.2076 13.1199 15.5708 13.5634 15.7604C14.0039 15.9432 14.4725 15.9255 14.9691 15.7075C15.5597 15.4481 15.9523 14.9475 16.1468 14.2056L18.2347 14.8859C18.0861 15.4955 17.7964 16.039 17.3656 16.5163C16.9348 16.9937 16.3771 17.3827 15.6926 17.6833ZM22.874 14.5298C22.2901 14.7862 21.6917 14.9729 21.0787 15.09C20.4694 15.1974 19.9383 15.2185 19.4854 15.1532L19.4901 13.0858C19.9111 13.1331 20.3562 13.1258 20.8254 13.0638C21.2915 12.9952 21.7159 12.8769 22.0984 12.7089C22.4273 12.5645 22.6489 12.4312 22.7633 12.3089C22.8748 12.1799 22.9025 12.0516 22.8466 11.9241C22.7817 11.7765 22.6391 11.707 22.4188 11.7157C22.2052 11.7215 21.8678 11.7735 21.4067 11.8719C20.813 11.9966 20.3069 12.0747 19.8885 12.1063C19.4672 12.1312 19.0575 12.055 18.6594 11.8776C18.2583 11.6934 17.9458 11.3463 17.7218 10.8363C17.5273 10.3934 17.4746 9.93616 17.5638 9.46472C17.653 8.99327 17.8969 8.54596 18.2954 8.12279C18.7007 7.69666 19.2557 7.32888 19.9604 7.01945C20.4436 6.80727 20.9403 6.65319 21.4505 6.55723C21.9645 6.45161 22.4435 6.42137 22.8876 6.46652L22.9288 8.5018C22.0843 8.45635 21.3533 8.56919 20.7359 8.84032C20.1252 9.10849 19.8847 9.39022 20.0143 9.68552C20.0762 9.82645 20.214 9.89405 20.4276 9.8883C20.6383 9.87585 20.9693 9.81853 21.4208 9.71635C22.0019 9.58126 22.5065 9.49978 22.9345 9.47192C23.3596 9.43735 23.7712 9.50877 24.1694 9.68619C24.5742 9.86065 24.8886 10.2029 25.1125 10.713C25.307 11.1559 25.3597 11.6131 25.2705 12.0845C25.1784 12.5493 24.9312 12.9981 24.5289 13.4309C24.1303 13.8541 23.5787 14.2204 22.874 14.5298Z" fill="white"/>
</svg>
