<svg width="49" height="49" viewBox="0 0 49 49" fill="none" xmlns="http://www.w3.org/2000/svg">
<path d="M25.0736 26.9559C23.8836 26.9559 22.7652 26.7299 21.7185 26.278C20.6718 25.8266 19.7613 25.2138 18.9871 24.4395C18.2128 23.6653 17.6 22.7548 17.1486 21.7081C16.6967 20.6614 16.4707 19.543 16.4707 18.3529C16.4707 17.1629 16.6967 16.0445 17.1486 14.9978C17.6 13.9511 18.2128 13.0406 18.9871 12.2664C19.7613 11.4921 20.6718 10.879 21.7185 10.4271C22.7652 9.97568 23.8836 9.75 25.0736 9.75C26.2637 9.75 27.3821 9.97568 28.4288 10.4271C29.4755 10.879 30.386 11.4921 31.1602 12.2664C31.9345 13.0406 32.5473 13.9511 32.9987 14.9978C33.4506 16.0445 33.6766 17.1629 33.6766 18.3529C33.6766 19.543 33.4506 20.6614 32.9987 21.7081C32.5473 22.7548 31.9345 23.6653 31.1602 24.4395C30.386 25.2138 29.4755 25.8266 28.4288 26.278C27.3821 26.7299 26.2637 26.9559 25.0736 26.9559ZM25.0736 25.2353C26.9806 25.2353 28.6046 24.5651 29.9455 23.2248C31.2858 21.8839 31.956 20.2599 31.956 18.3529C31.956 16.446 31.2858 14.822 29.9455 13.4811C28.6046 12.1408 26.9806 11.4706 25.0736 11.4706C23.1667 11.4706 21.543 12.1408 20.2027 13.4811C18.8617 14.822 18.1913 16.446 18.1913 18.3529C18.1913 20.2599 18.8617 21.8839 20.2027 23.2248C21.543 24.5651 23.1667 25.2353 25.0736 25.2353Z" fill="#007BD8"/>
<path d="M22.4927 20.8571V15.8489C22.4927 15.4745 22.6633 15.2015 23.0047 15.0299C23.346 14.8582 23.6792 14.8738 24.0043 15.0767L28.0515 17.5573C28.3603 17.729 28.5147 17.9942 28.5147 18.353C28.5147 18.7119 28.3603 18.9771 28.0515 19.1487L24.0043 21.6294C23.6792 21.8322 23.346 21.8478 23.0047 21.6762C22.6633 21.5046 22.4927 21.2316 22.4927 20.8571Z" fill="#007BD8"/>
<line x1="25.0734" y1="7.16913" x2="25.0734" y2="12.3309" stroke="#007BD8" stroke-width="1.72059" stroke-linecap="round"/>
<line x1="25.0734" y1="24.3749" x2="25.0734" y2="29.5367" stroke="#007BD8" stroke-width="1.72059" stroke-linecap="round"/>
<line x1="13.8896" y1="18.3528" x2="19.0514" y2="18.3528" stroke="#007BD8" stroke-width="1.72059" stroke-linecap="round"/>
<line x1="31.0956" y1="18.3528" x2="36.2574" y2="18.3528" stroke="#007BD8" stroke-width="1.72059" stroke-linecap="round"/>
<g filter="url(#filter0_d_214_92)">
<path d="M5 9.09754C5 9.09754 18.2385 14.8405 18.2385 18.9062C18.2385 22.972 15.8285 27.7555 15.8285 27.7555C15.8285 27.7555 27.8653 14.8338 21.1279 39C21.1279 39 26.1844 24.8841 30.5184 25.3604C34.8525 25.8367 44 27.2725 44 27.2725C44 27.2725 28.8307 22.0058 32.2062 18.1817C35.5749 14.3508 41.833 9.09083 41.833 9.09083C41.833 9.09083 24.0173 22.4889 24.4966 0C24.4966 0 24.4899 11.439 20.6419 12.2039C17.0369 12.9284 5 9.09754 5 9.09754Z" fill="url(#paint0_radial_214_92)"/>
</g>
<defs>
<filter id="filter0_d_214_92" x="0.411765" y="0" width="48.1765" height="48.1765" filterUnits="userSpaceOnUse" color-interpolation-filters="sRGB">
<feFlood flood-opacity="0" result="BackgroundImageFix"/>
<feColorMatrix in="SourceAlpha" type="matrix" values="0 0 0 0 0 0 0 0 0 0 0 0 0 0 0 0 0 0 127 0" result="hardAlpha"/>
<feOffset dy="4.58824"/>
<feGaussianBlur stdDeviation="2.29412"/>
<feComposite in2="hardAlpha" operator="out"/>
<feColorMatrix type="matrix" values="0 0 0 0 0 0 0 0 0 0 0 0 0 0 0 0 0 0 0.25 0"/>
<feBlend mode="normal" in2="BackgroundImageFix" result="effect1_dropShadow_214_92"/>
<feBlend mode="normal" in="SourceGraphic" in2="effect1_dropShadow_214_92" result="shape"/>
</filter>
<radialGradient id="paint0_radial_214_92" cx="0" cy="0" r="1" gradientUnits="userSpaceOnUse" gradientTransform="translate(24.5034 19.5034) scale(19.5641 19.443)">
<stop stop-color="#FF6600"/>
<stop offset="0.15" stop-color="#EB7703"/>
<stop offset="0.52" stop-color="#FFBE2C"/>
<stop offset="0.81" stop-color="#FFCF18"/>
<stop offset="1" stop-color="#FFD820"/>
</radialGradient>
</defs>
</svg>
