<svg width="21" height="19" viewBox="0 0 21 19" fill="none" xmlns="http://www.w3.org/2000/svg">
<path fill-rule="evenodd" clip-rule="evenodd" d="M4.04513 0.988399V0.988394L4.03705 0.791863C4.01921 0.361646 4.3623 0 4.79288 0H16.2071C16.6377 0 16.9808 0.361658 16.9629 0.791881L16.9548 0.988817C16.8961 2.4223 16.8306 4.02233 16.4202 5.51313C18.4072 4.82776 18.7263 2.66741 18.7263 2.66741L18.0374 1.97826C17.9453 1.88574 17.8824 1.76812 17.8567 1.64008C17.831 1.51205 17.8436 1.37927 17.8929 1.25834L18.2281 0.418429C18.2772 0.295254 18.362 0.189589 18.4716 0.115024C18.5812 0.0404597 18.7106 0.000405081 18.8432 1.25737e-05H20.3286C20.4228 -0.000565834 20.516 0.0188175 20.6022 0.0568875C20.6884 0.0949575 20.7655 0.150851 20.8286 0.220892C20.8916 0.290932 20.9391 0.373532 20.968 0.463257C20.9968 0.552982 21.0063 0.647799 20.9959 0.74147C20.7943 2.45425 19.8166 6.6476 15.3599 7.75087C14.9356 8.26613 14.3938 8.74141 13.9173 9.15943L13.9173 9.15944L13.9172 9.1595C13.5922 9.44466 13.2975 9.70316 13.0913 9.92952C12.4396 10.6446 11.8157 11 11.3772 11H9.62284C9.18426 11 8.56037 10.6446 7.90875 9.92952C7.70248 9.70315 7.40778 9.44462 7.0827 9.15944L7.08269 9.15943L7.08268 9.15942L7.08267 9.15941C6.60618 8.7414 6.06441 8.26612 5.6401 7.75087C1.18337 6.6476 0.205681 2.45425 0.00409558 0.74147C-0.00632588 0.647799 0.00319593 0.552982 0.0320346 0.463257C0.0608732 0.373532 0.108375 0.290932 0.171415 0.220892C0.234455 0.150851 0.311605 0.0949575 0.397789 0.0568875C0.483972 0.0188175 0.577237 -0.000565834 0.671446 1.25737e-05H2.15684C2.28939 0.000405081 2.41879 0.0404597 2.5284 0.115024C2.63801 0.189589 2.72282 0.295254 2.77191 0.418429L3.10712 1.25834C3.1564 1.37927 3.16898 1.51205 3.14327 1.64008C3.11757 1.76812 3.05472 1.88574 2.96258 1.97826L2.2737 2.66741C2.2737 2.66741 2.5928 4.82775 4.57982 5.51312C4.16933 4.0222 4.10381 2.42197 4.04513 0.988399ZM6.91441 16.375C7.11314 16.1286 7.3059 15.9107 7.48887 15.7038C8.11188 14.9993 8.62145 14.4231 8.86711 13.2906C8.9483 12.9163 9.26307 12.625 9.64608 12.625H11.4799C11.8629 12.625 12.1777 12.9163 12.2589 13.2906C12.5046 14.423 13.0141 14.9992 13.6371 15.7036L13.6371 15.7037L13.6371 15.7037L13.6371 15.7037C13.8201 15.9106 14.0129 16.1286 14.2116 16.375H15.6255C16.0398 16.375 16.3755 16.7108 16.3755 17.125V18.25C16.3755 18.6642 16.0398 19 15.6255 19H5.50049C5.08627 19 4.75049 18.6642 4.75049 18.25V17.125C4.75049 16.7108 5.08628 16.375 5.50049 16.375H6.91441Z" fill="#191E26"/>
</svg>
