<svg width="23" height="23" viewBox="0 0 23 23" fill="none" xmlns="http://www.w3.org/2000/svg">
<path d="M21 12C21 13.9778 20.4135 15.9112 19.3147 17.5557C18.2159 19.2002 16.6541 20.4819 14.8268 21.2388C12.9996 21.9957 10.9889 22.1937 9.0491 21.8079C7.10929 21.422 5.32746 20.4696 3.92893 19.0711C2.53041 17.6725 1.578 15.8907 1.19215 13.9509C0.806295 12.0111 1.00433 10.0004 1.7612 8.17317C2.51808 6.3459 3.79981 4.78412 5.4443 3.6853C7.08879 2.58649 9.02219 2 11 2" stroke="#191E26" stroke-width="2" stroke-linecap="round"/>
<path fill-rule="evenodd" clip-rule="evenodd" d="M17.9222 1.58321C18.2192 1.28638 18.6218 1.11963 19.0417 1.11963C19.4615 1.11963 19.8642 1.28638 20.1611 1.58321L21.4167 2.83879C21.7135 3.13571 21.8802 3.53836 21.8802 3.95821C21.8802 4.37805 21.7135 4.7807 21.4167 5.07762L20.1611 6.33321L16.6667 2.83879L17.9222 1.58321ZM15.5473 3.95821L11.5889 7.91654C11.292 8.2134 11.1251 8.61607 11.125 9.03596V10.2915C11.125 10.7115 11.2918 11.1142 11.5887 11.4111C11.8857 11.7081 12.2884 11.8749 12.7083 11.8749H13.9639C14.3838 11.8748 14.7865 11.7079 15.0833 11.411L19.0417 7.45262L15.5473 3.95821Z" fill="#191E26"/>
<path d="M8.75 11.083H7.95833C7.53841 11.083 7.13568 11.2498 6.83875 11.5468C6.54181 11.8437 6.375 12.2464 6.375 12.6663C6.375 13.0863 6.54181 13.489 6.83875 13.7859C7.13568 14.0829 7.53841 14.2497 7.95833 14.2497H16.2708" stroke="#191E26" stroke-width="2" stroke-linecap="round" stroke-linejoin="round"/>
</svg>
