<svg width="24" height="24" viewBox="0 0 24 24" fill="none" xmlns="http://www.w3.org/2000/svg">
<path d="M14.7999 11.9748L6.8249 3.9998H18.9999C19.4166 3.9998 19.7166 4.18314 19.8999 4.5498C20.0832 4.91647 20.0499 5.26647 19.7999 5.5998L14.7999 11.9748ZM20.4811 21.906C20.0901 22.2902 19.4625 22.2874 19.0749 21.8998L13.9999 16.8248V18.9998C13.9999 19.2831 13.9042 19.5205 13.7129 19.7118C13.5209 19.9038 13.2832 19.9998 12.9999 19.9998H10.9999C10.7166 19.9998 10.4792 19.9038 10.2879 19.7118C10.0959 19.5205 9.9999 19.2831 9.9999 18.9998V12.8248L2.09993 4.92483C1.71232 4.53722 1.70954 3.90964 2.09371 3.51861C2.48271 3.12266 3.11994 3.11984 3.51243 3.51233L20.4874 20.4873C20.8799 20.8798 20.8771 21.517 20.4811 21.906Z" fill="#191E26"/>
</svg>
