<svg width="22" height="15" viewBox="0 0 22 15" fill="none" xmlns="http://www.w3.org/2000/svg">
<path d="M6.6 7.4375C8.72781 7.4375 10.45 5.77402 10.45 3.71875C10.45 1.66348 8.72781 0 6.6 0C4.47219 0 2.75 1.66348 2.75 3.71875C2.75 5.77402 4.47219 7.4375 6.6 7.4375ZM9.24 8.5H8.95469C8.23969 8.83203 7.44563 9.03125 6.6 9.03125C5.75438 9.03125 4.96375 8.83203 4.24531 8.5H3.96C1.77375 8.5 0 10.2133 0 12.325V13.2812C0 14.1611 0.739063 14.875 1.65 14.875H11.55C12.4609 14.875 13.2 14.1611 13.2 13.2812V12.325C13.2 10.2133 11.4262 8.5 9.24 8.5ZM16.5 7.4375C18.3219 7.4375 19.8 6.00977 19.8 4.25C19.8 2.49023 18.3219 1.0625 16.5 1.0625C14.6781 1.0625 13.2 2.49023 13.2 4.25C13.2 6.00977 14.6781 7.4375 16.5 7.4375ZM18.15 8.5H18.0194C17.5416 8.65938 17.0362 8.76562 16.5 8.76562C15.9638 8.76562 15.4584 8.65938 14.9806 8.5H14.85C14.1488 8.5 13.5025 8.6959 12.9353 9.01133C13.7741 9.88457 14.3 11.0434 14.3 12.325V13.6C14.3 13.673 14.2828 13.7428 14.2794 13.8125H20.35C21.2609 13.8125 22 13.0986 22 12.2188C22 10.1635 20.2778 8.5 18.15 8.5Z" fill="url(#paint0_linear_201_7285)"/>
<defs>
<linearGradient id="paint0_linear_201_7285" x1="11" y1="0" x2="11" y2="14.875" gradientUnits="userSpaceOnUse">
<stop stop-color="#1F97F2"/>
<stop offset="1" stop-color="#1F97F1"/>
</linearGradient>
</defs>
</svg>
