<svg width="18" height="18" viewBox="0 0 18 18" fill="none" xmlns="http://www.w3.org/2000/svg">
<path d="M10 18C9.45 18 8.979 17.8043 8.587 17.413C8.19567 17.021 8 16.55 8 16V12H10V16H16V2H10V6H8V2C8 1.45 8.19567 0.979 8.587 0.587C8.979 0.195667 9.45 0 10 0H16C16.55 0 17.021 0.195667 17.413 0.587C17.8043 0.979 18 1.45 18 2V16C18 16.55 17.8043 17.021 17.413 17.413C17.021 17.8043 16.55 18 16 18H10Z" fill="#191E26"/>
<path d="M6.4 5.45L5 4L-4.37114e-07 9L5 14L6.4 12.55L3.85 10L12.5 10L12.5 8L3.85 8L6.4 5.45Z" fill="#191E26"/>
</svg>
