<svg width="21" height="21" viewBox="0 0 21 21" fill="none" xmlns="http://www.w3.org/2000/svg">
<path d="M9.14209 6.14209C9.14209 5.58981 9.58981 5.14209 10.1421 5.14209V5.14209C10.6944 5.14209 11.1421 5.58981 11.1421 6.14209V14.1421C11.1421 14.6944 10.6944 15.1421 10.1421 15.1421V15.1421C9.58981 15.1421 9.14209 14.6944 9.14209 14.1421V6.14209Z" fill="#191E26"/>
<path d="M6.14209 11.1421C5.58981 11.1421 5.14209 10.6944 5.14209 10.1421V10.1421C5.14209 9.58981 5.58981 9.14209 6.14209 9.14209L14.1421 9.14209C14.6944 9.14209 15.1421 9.5898 15.1421 10.1421V10.1421C15.1421 10.6944 14.6944 11.1421 14.1421 11.1421L6.14209 11.1421Z" fill="#191E26"/>
<path d="M10.1421 20.1421C8.75876 20.1421 7.45876 19.8794 6.24209 19.3541C5.02542 18.8294 3.96709 18.1171 3.06709 17.2171C2.16709 16.3171 1.45476 15.2588 0.93009 14.0421C0.404757 12.8254 0.14209 11.5254 0.14209 10.1421C0.14209 8.75876 0.404757 7.45876 0.93009 6.24209C1.45476 5.02542 2.16709 3.96709 3.06709 3.06709C3.96709 2.16709 5.02542 1.45442 6.24209 0.92909C7.45876 0.404423 8.75876 0.14209 10.1421 0.14209C11.5254 0.14209 12.8254 0.404423 14.0421 0.92909C15.2588 1.45442 16.3171 2.16709 17.2171 3.06709C18.1171 3.96709 18.8294 5.02542 19.3541 6.24209C19.8794 7.45876 20.1421 8.75876 20.1421 10.1421C20.1421 11.5254 19.8794 12.8254 19.3541 14.0421C18.8294 15.2588 18.1171 16.3171 17.2171 17.2171C16.3171 18.1171 15.2588 18.8294 14.0421 19.3541C12.8254 19.8794 11.5254 20.1421 10.1421 20.1421ZM10.1421 18.1421C12.3588 18.1421 14.2464 17.3631 15.8051 15.8051C17.3631 14.2464 18.1421 12.3588 18.1421 10.1421C18.1421 7.92542 17.3631 6.03776 15.8051 4.47909C14.2464 2.92109 12.3588 2.14209 10.1421 2.14209C7.92542 2.14209 6.03809 2.92109 4.48009 4.47909C2.92142 6.03776 2.14209 7.92542 2.14209 10.1421C2.14209 12.3588 2.92142 14.2464 4.48009 15.8051C6.03809 17.3631 7.92542 18.1421 10.1421 18.1421Z" fill="#191E26"/>
</svg>
