<svg width="15" height="15" viewBox="0 0 15 15" fill="none" xmlns="http://www.w3.org/2000/svg">
<path d="M6.8914 1.25195C6.63739 1.25204 6.38397 1.26739 6.15159 1.29561L6.82527 1.51164L7.58875 1.30059L7.15211 1.54275L8.00708 1.57023L7.09395 1.62745L7.3174 1.77083C7.67248 1.73028 8.05217 1.64383 8.46388 1.50083C8.37848 1.45879 8.26123 1.41666 8.12301 1.38177C7.78996 1.29769 7.33932 1.25187 6.89145 1.25198L6.8914 1.25195ZM6.14573 1.29625C5.97054 1.3177 5.80706 1.3462 5.66638 1.38215C5.52619 1.41795 5.40845 1.4614 5.32565 1.50391C5.41528 1.53865 5.50592 1.57075 5.59744 1.60015L6.54443 1.54935L6.14573 1.29625ZM5.61323 1.60513C5.83472 1.67535 6.06317 1.72914 6.30188 1.76195L6.54979 1.63407L5.61323 1.60513ZM6.80655 1.66858L6.41998 1.7764C6.66414 1.80241 6.91926 1.80634 7.18844 1.78363L6.80655 1.66858ZM8.60986 2.00726C7.25974 2.46438 6.15235 2.36849 5.19678 2.0173V9.7922C6.24238 10.1979 7.36855 10.1814 8.60986 9.74814C8.61074 7.17112 8.61001 4.45583 8.60986 2.00731V2.00726ZM9.38388 6.7646C9.38183 6.7646 9.3797 6.76469 9.37762 6.76466C9.40735 6.8002 9.43607 6.83657 9.46375 6.87373C9.69285 7.18076 9.89324 7.58635 10.0451 8.00635C10.1115 8.18975 10.1681 8.37478 10.2119 8.55596L10.3137 8.04019L10.3126 8.0461C10.3226 7.98885 10.3352 7.93206 10.3502 7.87589C10.2647 7.55708 10.1182 7.26071 9.94014 7.06085C9.7711 6.87101 9.59339 6.76891 9.38397 6.76457L9.38388 6.7646ZM12.2335 6.92843C11.506 6.93036 10.9733 7.32291 10.832 8.13634L10.8315 8.13933L10.7197 8.7644C11.1826 8.48356 11.6662 8.3052 12.201 8.32123C12.8118 8.33954 13.4809 8.52631 13.9898 8.85361L13.8908 8.11264L13.8905 8.10941C13.7335 7.24867 13.0265 6.93502 12.2336 6.9284L12.2335 6.92843ZM9.13715 7.32979V9.76475L9.71629 9.57297L9.71579 9.57045C9.73091 9.56732 9.72355 9.58029 9.74459 9.53119C9.76568 9.48209 9.78519 9.37563 9.7818 9.23752C9.77497 8.9614 9.68699 8.56647 9.54924 8.1857C9.43565 7.87164 9.28767 7.56505 9.13709 7.32979H9.13715ZM4.66943 7.80039C3.8834 7.97605 3.07855 8.15591 2.47281 8.29185C2.37048 8.31481 2.31578 8.3273 2.22262 8.34821C2.29425 8.39945 2.36224 8.45561 2.42608 8.51629C2.80108 8.87307 3.0613 9.37223 3.20567 9.90019C3.35011 10.4281 3.3794 10.987 3.25146 11.4778C3.228 11.5682 3.19806 11.6567 3.16187 11.7428L4.66949 11.2437L4.66943 7.80039ZM1.2932 8.56164C1.28676 8.56176 1.28008 8.5624 1.27357 8.56261L1.25113 8.5677C1.18498 8.58294 1.12357 8.59888 1.14889 8.59167L1.14341 8.59319L1.13793 8.59451C1.04286 8.6173 0.97621 8.6657 0.910643 8.7618C0.845077 8.85795 0.790438 9.00391 0.76079 9.18464C0.701493 9.5461 0.742977 10.0378 0.875692 10.5045C1.00841 10.971 1.23265 11.4134 1.49693 11.6936C1.73506 11.946 1.97418 12.0662 2.25654 12.0292C2.50322 11.9027 2.65668 11.6696 2.74129 11.3449C2.83867 10.9713 2.82068 10.4909 2.6972 10.0393C2.57362 9.58774 2.34522 9.16718 2.06268 8.89835C1.83314 8.67997 1.58427 8.55704 1.2932 8.56167V8.56164ZM12.1771 8.84705C11.5567 8.8433 10.9707 9.04902 10.5595 9.51824L10.4603 10.0208C10.9117 9.54874 11.547 9.25363 12.2499 9.25363C13.0201 9.25363 13.7095 9.60731 14.1644 10.1606L14.0897 9.60165C13.6231 9.15177 12.9244 8.86867 12.2438 8.84825C12.2216 8.84761 12.1993 8.8472 12.1771 8.84708L12.1771 8.84705ZM1.14259 9.22899L1.69053 10.0758L2.09081 9.43574L1.89481 10.2897L2.69163 10.7569L1.96559 10.6179L2.27093 11.4193L1.75228 10.6547L1.37766 11.2472L1.53748 10.4385L0.799081 10.0093L1.50426 10.1701L1.14259 9.22899ZM12.2499 9.71573C11.1338 9.71573 10.234 10.6156 10.234 11.7317C10.234 12.8478 11.1338 13.7476 12.2499 13.7476C13.3661 13.7476 14.2659 12.8478 14.2659 11.7317C14.2659 10.6156 13.366 9.7157 12.2499 9.7157V9.71573ZM8.60986 10.3038C7.41074 10.6885 6.2623 10.7141 5.19678 10.3524V11.5254C6.24238 11.9378 7.36849 11.9269 8.60986 11.4982V10.3038ZM12.2499 11.0147C12.6459 11.0147 12.967 11.3357 12.967 11.7317C12.967 12.1277 12.6459 12.4487 12.2499 12.4487C11.8539 12.4487 11.5329 12.1277 11.5329 11.7317C11.5329 11.3356 11.8539 11.0146 12.2499 11.0146V11.0147ZM8.69825 12.0251C7.44531 12.44 6.24698 12.4645 5.13965 12.0671L5.04716 12.466C6.18645 13.0279 7.53733 13.0205 8.8203 12.4599L8.69825 12.0251Z" fill="#8C8E92" fill-opacity="0.4"/>
</svg>
