<svg width="20" height="20" viewBox="0 0 20 20" fill="none" xmlns="http://www.w3.org/2000/svg">
<path d="M11.997 9.12042e-07C13.827 -0.000872552 15.602 0.625667 17.0259 1.77513C18.4498 2.92458 19.4366 4.52748 19.8217 6.31647C20.2068 8.10546 19.9669 9.97241 19.1421 11.6059C18.3172 13.2395 16.9573 14.5408 15.289 15.293C14.7558 16.4719 13.9446 17.5039 12.9249 18.3004C11.9052 19.097 10.7076 19.6343 9.43467 19.8663C8.16174 20.0984 6.85153 20.0182 5.6164 19.6327C4.38127 19.2472 3.25807 18.5678 2.34315 17.6529C1.42822 16.738 0.748867 15.6148 0.363349 14.3796C-0.0221685 13.1445 -0.102346 11.8343 0.129694 10.5614C0.361733 9.28844 0.899065 8.0908 1.69561 7.07114C2.49215 6.05148 3.52412 5.24024 4.70303 4.707C5.33718 3.30389 6.36262 2.1135 7.65638 1.27861C8.95014 0.443714 10.4573 -0.000237065 11.997 9.12042e-07ZM7.99703 6C7.2091 6 6.42889 6.1552 5.70093 6.45672C4.97298 6.75825 4.31154 7.20021 3.75439 7.75736C3.19724 8.31451 2.75529 8.97595 2.45376 9.7039C2.15223 10.4319 1.99703 11.2121 1.99703 12C1.99703 12.7879 2.15223 13.5681 2.45376 14.2961C2.75529 15.0241 3.19724 15.6855 3.75439 16.2426C4.31154 16.7998 4.97298 17.2417 5.70093 17.5433C6.42889 17.8448 7.2091 18 7.99703 18C9.58833 18 11.1145 17.3679 12.2397 16.2426C13.3649 15.1174 13.997 13.5913 13.997 12C13.997 10.4087 13.3649 8.88258 12.2397 7.75736C11.1145 6.63214 9.58833 6 7.99703 6ZM11.997 2C11.1497 1.99901 10.3119 2.17794 9.53886 2.52496C8.76586 2.87198 8.07536 3.37918 7.51303 4.013C8.6433 3.94439 9.77525 4.1165 10.834 4.51795C11.8928 4.9194 12.8543 5.54105 13.655 6.34178C14.4556 7.14252 15.0772 8.1041 15.4785 9.16293C15.8798 10.2218 16.0518 11.3537 15.983 12.484C16.8922 11.6756 17.5342 10.6099 17.8239 9.42831C18.1135 8.24668 18.037 7.00492 17.6047 5.86772C17.1723 4.73053 16.4045 3.75164 15.403 3.06088C14.4015 2.37013 13.2136 2.00014 11.997 2Z" fill="white"/>
<path d="M7.19727 8.8C7.19727 8.35817 7.55544 8 7.99727 8C8.43909 8 8.79727 8.35817 8.79727 8.8V15.2C8.79727 15.6418 8.43909 16 7.99727 16C7.55544 16 7.19727 15.6418 7.19727 15.2V8.8Z" fill="white"/>
<path d="M4.79707 12.8C4.35524 12.8 3.99707 12.4419 3.99707 12C3.99707 11.5582 4.35524 11.2 4.79707 11.2L11.1971 11.2C11.6389 11.2 11.9971 11.5582 11.9971 12C11.9971 12.4419 11.6389 12.8 11.1971 12.8L4.79707 12.8Z" fill="white"/>
</svg>
