<svg width="17" height="17" viewBox="0 0 17 17" fill="none" xmlns="http://www.w3.org/2000/svg">
<path d="M4.24366 7.37239C4.29891 7.95676 3.98706 8.46357 3.55144 8.49864C3.11581 8.53317 2.71737 8.08798 2.66266 7.50361C2.60741 6.9187 2.91925 6.41242 3.35487 6.37736C3.7905 6.33857 4.18894 6.78323 4.24366 7.37239ZM6.73894 13.8106C7.17456 13.7761 7.4864 13.2698 7.43116 12.6849C7.37644 12.0957 6.97747 11.6511 6.54237 11.6904C6.10675 11.7249 5.79491 12.2312 5.85016 12.8161C5.90487 13.4005 6.30384 13.8457 6.73894 13.8106ZM13.6457 6.37736C14.0813 6.41189 14.3927 6.91817 14.3374 7.50307C14.2827 8.09223 13.8837 8.53689 13.4481 8.49811C13.0125 8.46304 12.7012 7.95676 12.7564 7.37186C12.8111 6.78748 13.2101 6.34229 13.6457 6.37736ZM12.7437 10.1593C12.7989 9.57495 12.4871 9.06814 12.052 9.03307C11.6163 8.99854 11.2179 9.44373 11.1627 10.0281C11.1074 10.613 11.4192 11.1193 11.8543 11.1544C12.29 11.1931 12.6884 10.7485 12.7437 10.1593ZM10.4582 11.6899C10.8938 11.7244 11.2052 12.2307 11.1499 12.8156C11.0952 13.4047 10.6962 13.8494 10.2606 13.8101C9.82497 13.7755 9.51365 13.2693 9.5689 12.6844C9.62362 12.1 10.0226 11.6548 10.4582 11.6899Z" fill="#8C8E92" fill-opacity="0.4"/>
<path d="M7.37535 1.30222L2.38744 3.45537C2.2711 3.50744 2.16644 3.57756 2.074 3.66256C1.78513 3.73328 1.52839 3.89898 1.34497 4.13308C1.16154 4.36718 1.06207 4.6561 1.0625 4.9535V12.4813C1.06254 12.7909 1.15274 13.0938 1.32208 13.3529C1.49143 13.6121 1.73258 13.8163 2.0161 13.9407L7.16975 16.2001C7.32753 16.2691 7.4885 16.3053 7.64788 16.3116C8.19693 16.5206 8.80361 16.5206 9.35266 16.3116C9.51097 16.3053 9.67247 16.2691 9.83025 16.2001L14.9834 13.9407C15.2671 13.8163 15.5084 13.6121 15.6778 13.3528C15.8473 13.0935 15.9375 12.7905 15.9375 12.4808V4.95297C15.938 4.6671 15.8461 4.38873 15.6755 4.15935C15.5049 3.92997 15.2647 3.76187 14.9908 3.68009C14.8976 3.58581 14.7877 3.50962 14.6668 3.45537L9.62519 1.30222C9.27122 1.14418 8.88792 1.0625 8.50027 1.0625C8.11262 1.0625 7.72932 1.14418 7.37535 1.30222ZM7.96875 7.86794V14.9846C7.96864 15.0286 7.95758 15.0719 7.93656 15.1107C7.91554 15.1494 7.88522 15.1822 7.84834 15.2063C7.81145 15.2304 7.76916 15.2449 7.72526 15.2486C7.68137 15.2523 7.63725 15.245 7.59688 15.2273L2.44216 12.9679C2.34768 12.9263 2.26736 12.8581 2.21104 12.7716C2.15471 12.6851 2.12482 12.584 2.125 12.4808V4.95297C2.12505 4.90859 2.13622 4.86494 2.15749 4.82599C2.17875 4.78705 2.20943 4.75405 2.24673 4.73001C2.28403 4.70597 2.32676 4.69166 2.37101 4.68838C2.41526 4.68511 2.45963 4.69297 2.50006 4.71125L7.34347 6.89894C7.52992 6.98312 7.6881 7.11933 7.79902 7.29122C7.90993 7.46311 7.96887 7.66337 7.96875 7.86794ZM9.03125 14.9846V7.86687C9.03123 7.66239 9.09022 7.46225 9.20113 7.29047C9.31204 7.11868 9.47017 6.98255 9.65653 6.89841L14.4999 4.71072C14.5404 4.69242 14.5848 4.68456 14.6291 4.68786C14.6734 4.69116 14.7162 4.70552 14.7535 4.72962C14.7908 4.75372 14.8215 4.78679 14.8427 4.82581C14.8639 4.86483 14.875 4.90855 14.875 4.95297V12.4808C14.8749 12.5839 14.8449 12.6848 14.7885 12.7711C14.732 12.8574 14.6517 12.9254 14.5573 12.9669L9.40313 15.2268C9.36273 15.2445 9.31855 15.2519 9.27458 15.2483C9.23062 15.2447 9.18824 15.2302 9.15128 15.2061C9.11432 15.182 9.08395 15.1491 9.0629 15.1103C9.04185 15.0716 9.03079 15.0281 9.03072 14.984L9.03125 14.9846ZM8.5 3.9845C7.61972 3.9845 6.90625 3.7465 6.90625 3.45325C6.90625 3.16 7.61972 2.922 8.5 2.922C9.38028 2.922 10.0938 3.16 10.0938 3.45325C10.0938 3.7465 9.38028 3.9845 8.5 3.9845Z" fill="#8C8E92" fill-opacity="0.4"/>
</svg>
