<svg width="14" height="20" viewBox="0 0 14 20" fill="none" xmlns="http://www.w3.org/2000/svg">
<line x1="4.63635" y1="6.45459" x2="4.63635" y2="11.7273" stroke="#007BD8" stroke-width="2" stroke-linecap="round"/>
<path d="M3.67943 1.5C4.06433 0.833334 5.02658 0.833333 5.41148 1.5L7.61591 5.31818C8.00081 5.98485 7.51968 6.81818 6.74988 6.81818H2.34103C1.57123 6.81818 1.0901 5.98485 1.475 5.31818L3.67943 1.5Z" fill="#007BD8"/>
<line x1="1" y1="-1" x2="6.27273" y2="-1" transform="matrix(-4.3711e-08 -1 -1 4.3711e-08 8.18127 14.5454)" stroke="#007BD8" stroke-width="2" stroke-linecap="round"/>
<path d="M8.22435 18.5C8.60925 19.1667 9.5715 19.1667 9.9564 18.5L12.1608 14.6818C12.5457 14.0152 12.0646 13.1818 11.2948 13.1818H6.88595C6.11615 13.1818 5.63502 14.0152 6.01992 14.6818L8.22435 18.5Z" fill="#007BD8"/>
</svg>
