<svg width="22" height="12" viewBox="0 0 22 12" fill="none" xmlns="http://www.w3.org/2000/svg">
<path d="M9.77853 0.779851H12.2105L3.08829 11.0368H0.736293L0.594527 0.779851H3.02653L3.0292 4.67751L2.93889 8.67773L6.3892 4.67751L9.77853 0.779851Z" fill="url(#paint0_linear_1_5523)"/>
<path d="M12.8752 11.2566C11.0085 11.2566 9.62907 10.778 8.7369 9.82066L10.5508 8.31141C11.2172 9.05383 12.2597 9.42503 13.6784 9.42503C14.4251 9.42503 15.0685 9.30781 15.6086 9.07336C16.1531 8.82915 16.5152 8.5019 16.6952 8.09162C16.8665 7.70088 16.7967 7.39805 16.4856 7.18314C16.1745 6.96824 15.5977 6.81194 14.7552 6.71425C13.3027 6.54819 12.3316 6.22094 11.8418 5.73251C11.3669 5.23432 11.3309 4.5261 11.7336 3.60785C12.1277 2.70914 12.8597 1.9765 13.9295 1.40992C15.0099 0.843347 16.2115 0.560059 17.5342 0.560059C19.1128 0.560059 20.3302 0.970338 21.1864 1.7909L19.4686 3.22688C18.8212 2.61146 17.9428 2.30375 16.8335 2.30375C16.1401 2.30375 15.5213 2.42585 14.9768 2.67007C14.4367 2.90451 14.0852 3.20734 13.9224 3.57854C13.7596 3.94975 13.8231 4.24281 14.1128 4.45772C14.4026 4.67262 14.9634 4.82892 15.7952 4.92661C17.2669 5.12198 18.2486 5.47365 18.7405 5.98161C19.2474 6.47981 19.3059 7.17338 18.916 8.06232C18.4962 9.01963 17.7311 9.79135 16.6207 10.3775C15.521 10.9636 14.2725 11.2566 12.8752 11.2566Z" fill="url(#paint1_linear_1_5523)"/>
<defs>
<linearGradient id="paint0_linear_1_5523" x1="21.1589" y1="6" x2="3.54634" y2="13.7241" gradientUnits="userSpaceOnUse">
<stop stop-color="#2CA3FD"/>
<stop offset="1" stop-color="#027DDA"/>
</linearGradient>
<linearGradient id="paint1_linear_1_5523" x1="21.1589" y1="6" x2="3.54634" y2="13.7241" gradientUnits="userSpaceOnUse">
<stop stop-color="#2CA3FD"/>
<stop offset="1" stop-color="#027DDA"/>
</linearGradient>
</defs>
</svg>
