<svg width="21" height="21" viewBox="0 0 21 21" fill="none" xmlns="http://www.w3.org/2000/svg">
<path d="M3.9375 1.75C2.73 1.75 1.75 2.73 1.75 3.9375V5.971C1.75047 6.43884 1.87596 6.89806 2.11349 7.30112C2.35102 7.70418 2.69195 8.03644 3.101 8.2635L8.134 11.0618C7.0798 11.594 6.23581 12.466 5.73841 13.5371C5.24101 14.6082 5.11924 15.8156 5.39278 16.9645C5.66632 18.1133 6.3192 19.1363 7.24592 19.8683C8.17264 20.6002 9.31907 20.9984 10.5 20.9984C11.6809 20.9984 12.8274 20.6002 13.7541 19.8683C14.6808 19.1363 15.3337 18.1133 15.6072 16.9645C15.8808 15.8156 15.759 14.6082 15.2616 13.5371C14.7642 12.466 13.9202 11.594 12.866 11.0618L17.9007 8.26525C18.3097 8.03782 18.6505 7.70519 18.8877 7.30181C19.1249 6.89843 19.25 6.43897 19.25 5.971V3.9375C19.25 2.73 18.27 1.75 17.0625 1.75H3.9375ZM8.75 9.401V3.5H12.25V9.401L10.5 10.374L8.75 9.401ZM14 15.75C14 16.6783 13.6313 17.5685 12.9749 18.2249C12.3185 18.8813 11.4283 19.25 10.5 19.25C9.57174 19.25 8.6815 18.8813 8.02513 18.2249C7.36875 17.5685 7 16.6783 7 15.75C7 14.8217 7.36875 13.9315 8.02513 13.2751C8.6815 12.6187 9.57174 12.25 10.5 12.25C11.4283 12.25 12.3185 12.6187 12.9749 13.2751C13.6313 13.9315 14 14.8217 14 15.75Z" fill="#191E26"/>
</svg>
