<svg width="21" height="21" viewBox="0 0 21 21" fill="none" xmlns="http://www.w3.org/2000/svg">
<path fill-rule="evenodd" clip-rule="evenodd" d="M18.4104 10.5C18.4104 6.531 15.3164 2.59 10.5004 2.59C6.61119 2.59 4.68899 5.4684 3.86859 7H5.30039C5.48604 7 5.66409 7.07375 5.79537 7.20503C5.92664 7.3363 6.00039 7.51435 6.00039 7.7C6.00039 7.88565 5.92664 8.0637 5.79537 8.19498C5.66409 8.32625 5.48604 8.4 5.30039 8.4H2.10039C1.91474 8.4 1.73669 8.32625 1.60542 8.19498C1.47414 8.0637 1.40039 7.88565 1.40039 7.7V4.5C1.40039 4.31435 1.47414 4.1363 1.60542 4.00503C1.73669 3.87375 1.91474 3.8 2.10039 3.8C2.28604 3.8 2.46409 3.87375 2.59537 4.00503C2.72664 4.1363 2.80039 4.31435 2.80039 4.5V6.0382C3.78739 4.2994 6.06799 1.19 10.5004 1.19C16.1886 1.19 19.8104 5.859 19.8104 10.5C19.8104 15.141 16.1886 19.81 10.5004 19.81C7.77879 19.81 5.51359 18.732 3.89939 17.0912C3.04414 16.2182 2.36576 15.188 1.90159 14.0574C1.86666 13.9724 1.84882 13.8813 1.84908 13.7894C1.84935 13.6974 1.86772 13.6065 1.90315 13.5216C1.93857 13.4368 1.99036 13.3598 2.05555 13.295C2.12074 13.2302 2.19806 13.1788 2.28309 13.1439C2.36812 13.109 2.4592 13.0911 2.55113 13.0914C2.64305 13.0917 2.73403 13.11 2.81885 13.1455C2.90368 13.1809 2.9807 13.2327 3.04551 13.2979C3.11032 13.3631 3.16166 13.4404 3.19659 13.5254C3.58859 14.4788 4.16539 15.365 4.89899 16.1098C6.25979 17.4958 8.16939 18.41 10.5004 18.41C15.3164 18.41 18.4104 14.469 18.4104 10.5Z" fill="#191E26"/>
<path d="M10.1047 8.69703C9.79233 8.38461 9.79233 7.87808 10.1047 7.56566C10.4172 7.25324 10.9237 7.25324 11.2361 7.56566L13.398 9.7275C13.7104 10.0399 13.7104 10.5464 13.398 10.8589C13.0855 11.1713 12.579 11.1713 12.2666 10.8589L10.1047 8.69703Z" fill="#191E26"/>
<path d="M10.1946 12.0989C9.88217 12.4113 9.88217 12.9178 10.1946 13.2302C10.507 13.5427 11.0135 13.5427 11.326 13.2302L13.3973 11.1589C13.7097 10.8465 13.7097 10.34 13.3973 10.0276C13.0848 9.71516 12.5783 9.71516 12.2659 10.0276L10.1946 12.0989Z" fill="#191E26"/>
<path d="M7.8 11.262C7.35817 11.262 7 10.9038 7 10.462C7 10.0201 7.35817 9.66196 7.8 9.66196L12.1971 9.66196C12.6389 9.66196 12.9971 10.0201 12.9971 10.462C12.9971 10.9038 12.6389 11.262 12.1971 11.262L7.8 11.262Z" fill="#191E26"/>
</svg>
