<svg width="24" height="24" viewBox="0 0 24 24" fill="none" xmlns="http://www.w3.org/2000/svg">
<path d="M14.4 6H19C19.5523 6 20 6.44772 20 7V15C20 15.5523 19.5523 16 19 16H13.8198C13.3431 16 12.9327 15.6635 12.8392 15.1961L12.6 14H7V20C7 20.5523 6.55228 21 6 21C5.44772 21 5 20.5523 5 20V5C5 4.44772 5.44772 4 6 4H13.1802C13.6569 4 14.0673 4.33646 14.1608 4.80388L14.4 6ZM14 14H16V12H18V10H16V8H14V10L13 8V6H11V8H9V6H7V8H9V10H7V12H9V10H11V12H13V10L14 12V14ZM11 10V8H13V10H11ZM14 10H16V12H14V10Z" fill="#191E26"/>
</svg>
