<svg width="20" height="20" viewBox="0 0 20 20" fill="none" xmlns="http://www.w3.org/2000/svg">
<path d="M13.1973 18.4129C11.2509 19.1526 9.10823 19.1946 7.13439 18.5316C5.16056 17.8686 3.47767 16.5418 2.37246 14.7771C1.26726 13.0124 0.808116 10.9191 1.07327 8.85389C1.33843 6.78864 2.31148 4.87923 3.82663 3.45099C5.34178 2.02275 7.30528 1.16405 9.38257 1.0212C11.4599 0.878358 13.5224 1.4602 15.2188 2.6676C16.9152 3.875 18.1405 5.63325 18.6858 7.64276C19.2312 9.65227 19.0629 11.7887 18.2096 13.6881" stroke="#191E26" stroke-width="2" stroke-linecap="round"/>
<path d="M7 12.9107V7.08926C7 6.65401 7.19838 6.33664 7.59514 6.13715C7.9919 5.93766 8.37922 5.95579 8.75709 6.19156L13.4615 9.07509C13.8205 9.27458 14 9.58288 14 10C14 10.4171 13.8205 10.7254 13.4615 10.9249L8.75709 13.8084C8.37922 14.0442 7.9919 14.0623 7.59514 13.8629C7.19838 13.6634 7 13.346 7 12.9107Z" fill="#191E26"/>
</svg>
