<svg width="21" height="21" viewBox="0 0 21 21" fill="none" xmlns="http://www.w3.org/2000/svg">
<g clip-path="url(#clip0_201_8413)">
<path fill-rule="evenodd" clip-rule="evenodd" d="M18.4104 10.5C18.4104 6.531 15.3164 2.59 10.5004 2.59C6.61119 2.59 4.68899 5.4684 3.86859 7H5.30039C5.48604 7 5.66409 7.07375 5.79537 7.20503C5.92664 7.3363 6.00039 7.51435 6.00039 7.7C6.00039 7.88565 5.92664 8.0637 5.79537 8.19498C5.66409 8.32625 5.48604 8.4 5.30039 8.4H2.10039C1.91474 8.4 1.73669 8.32625 1.60542 8.19498C1.47414 8.0637 1.40039 7.88565 1.40039 7.7V4.5C1.40039 4.31435 1.47414 4.1363 1.60542 4.00503C1.73669 3.87375 1.91474 3.8 2.10039 3.8C2.28604 3.8 2.46409 3.87375 2.59537 4.00503C2.72664 4.1363 2.80039 4.31435 2.80039 4.5V6.0382C3.78739 4.2994 6.06799 1.19 10.5004 1.19C16.1886 1.19 19.8104 5.859 19.8104 10.5C19.8104 15.141 16.1886 19.81 10.5004 19.81C7.77879 19.81 5.51359 18.732 3.89939 17.0912C3.04414 16.2182 2.36576 15.188 1.90159 14.0574C1.86666 13.9724 1.84882 13.8813 1.84908 13.7894C1.84935 13.6974 1.86772 13.6065 1.90315 13.5216C1.93857 13.4368 1.99036 13.3598 2.05555 13.295C2.12074 13.2302 2.19806 13.1788 2.28309 13.1439C2.36812 13.109 2.4592 13.0911 2.55113 13.0914C2.64305 13.0917 2.73403 13.11 2.81885 13.1455C2.90368 13.1809 2.9807 13.2327 3.04551 13.2979C3.11032 13.3631 3.16166 13.4404 3.19659 13.5254C3.58859 14.4788 4.16539 15.365 4.89899 16.1098C6.25979 17.4958 8.16939 18.41 10.5004 18.41C15.3164 18.41 18.4104 14.469 18.4104 10.5Z" fill="#191E26"/>
<path d="M14.4586 12.9601C14.4586 13.7245 14.1831 14.3601 13.632 14.8667C13.0809 15.3734 12.3386 15.689 11.4053 15.8134V17.1334H9.77865V15.8134C8.54309 15.6712 7.48976 15.2534 6.61865 14.5601L7.57865 13.1867C8.40531 13.8623 9.40976 14.2001 10.592 14.2001C11.2142 14.2001 11.7075 14.0934 12.072 13.8801C12.4364 13.6579 12.6186 13.3601 12.6186 12.9867C12.6186 12.6312 12.4498 12.3556 12.112 12.1601C11.7742 11.9645 11.2364 11.8223 10.4986 11.7334C9.22754 11.5823 8.29865 11.2845 7.71198 10.8401C7.1342 10.3867 6.84531 9.7423 6.84531 8.90675C6.84531 8.20453 7.09865 7.61341 7.60531 7.13341C8.12087 6.64453 8.80976 6.33341 9.67198 6.20008V4.89341H11.2986V6.17341C12.3564 6.31564 13.2764 6.67564 14.0586 7.25341L13.152 8.56008C12.3875 8.00008 11.5431 7.72008 10.6186 7.72008C10.0409 7.72008 9.56976 7.83119 9.20531 8.05341C8.84087 8.26675 8.65865 8.5423 8.65865 8.88008C8.65865 9.21786 8.81865 9.48453 9.13865 9.68008C9.45865 9.87564 9.98309 10.0179 10.712 10.1067C12.0098 10.2845 12.9564 10.6045 13.552 11.0667C14.1564 11.5201 14.4586 12.1512 14.4586 12.9601Z" fill="#191E26"/>
</g>
<defs>
<clipPath id="clip0_201_8413">
<rect width="21" height="21" fill="white"/>
</clipPath>
</defs>
</svg>
