<svg width="45" height="42" viewBox="0 0 45 42" fill="none" xmlns="http://www.w3.org/2000/svg">
<path d="M18.5523 9.22249H21.8927C22.6479 9.22249 23.3127 9.36126 23.8872 9.63882C24.4681 9.90992 24.9167 10.3004 25.233 10.8104C25.5557 11.3203 25.7171 11.9206 25.7171 12.6112C25.7171 13.3019 25.5557 13.9022 25.233 14.4121C24.9167 14.9221 24.4681 15.3158 23.8872 15.5933C23.3127 15.8644 22.6479 16 21.8927 16H18.5523V9.22249ZM21.7958 14.2185C22.2864 14.2185 22.6769 14.0797 22.9674 13.8021C23.2643 13.5181 23.4128 13.1212 23.4128 12.6112C23.4128 12.1013 23.2643 11.7076 22.9674 11.43C22.6769 11.146 22.2864 11.004 21.7958 11.004H20.8373V14.2185H21.7958Z" fill="#191E26"/>
<circle cx="22" cy="13" r="9" stroke="#191E26" stroke-width="2"/>
<rect x="21" width="2" height="7" rx="1" fill="#191E26"/>
<rect x="21" y="19" width="2" height="7" rx="1" fill="#191E26"/>
<rect x="9" y="14" width="2" height="7" rx="1" transform="rotate(-90 9 14)" fill="#191E26"/>
<rect x="28" y="14" width="2" height="7" rx="1" transform="rotate(-90 28 14)" fill="#191E26"/>
<path d="M18 26.8951L8.60095 17.7027L5.73398 20.5311L6.45072 21.2382L5.73398 21.9453L10.0344 26.188C10.2245 26.3755 10.3313 26.6299 10.3313 26.8951C10.3313 27.1603 10.2245 27.4147 10.0344 27.6022L9.3177 28.3093C8.93751 28.6844 8.72393 29.1931 8.72393 29.7235C8.72393 30.2539 8.93751 30.7627 9.3177 31.1377L11.7403 33.5277C12.0127 33.7965 12.1058 34.1995 11.984 34.5601L11.2647 36.3119C11.1429 36.6725 11.236 37.0614 11.5084 37.3301L14.3349 40.3301C14.3349 40.3301 16.1554 40.7638 16.4851 38.2088C16.4851 38.2088 17.2019 33.259 20.0688 36.0875L23.6526 32.5519L22.9358 31.8448L22.9359 27.6022L22 27.0001L18 26.8951ZM10.0344 29.0164L10.7512 28.3093C10.9413 28.1218 11.1991 28.0164 11.4679 28.0164C11.7368 28.0164 11.9946 28.1218 12.1847 28.3093L12.9014 29.0164C12.9014 29.0164 12.9014 30.4306 11.4679 30.4306C11.8481 30.8057 12.3638 31.0164 12.9014 31.0164C13.4391 31.0164 13.9547 30.8057 14.3349 30.4306C14.525 30.6182 14.6318 30.8725 14.6318 31.1377C14.6318 31.4029 14.525 31.6573 14.3349 31.8448L13.6182 32.5519C13.4281 32.7395 13.1702 32.8448 12.9014 32.8448C12.6326 32.8448 12.3748 32.7395 12.1847 32.5519L10.0344 30.4306C9.84435 30.2431 9.73756 29.9887 9.73756 29.7235C9.73756 29.4583 9.84435 29.2039 10.0344 29.0164Z" fill="#191E26"/>
<path d="M26.5001 26.896L36.3991 17.7036L39.2661 20.532L38.5493 21.2391L39.2661 21.9462L34.9656 26.1889C34.7755 26.3764 34.6687 26.6308 34.6687 26.896C34.6687 27.1612 34.7755 27.4156 34.9656 27.6031L35.6824 28.3102C36.0626 28.6853 36.2761 29.194 36.2761 29.7244C36.2761 30.2549 36.0626 30.7636 35.6824 31.1386L33.2598 33.5287C32.9874 33.7974 32.8942 34.2004 33.0161 34.561L33.7354 36.3128C33.8572 36.6734 33.764 37.0623 33.4917 37.331L30.6652 40.331C30.6652 40.331 28.8447 40.7647 28.5149 38.2097C28.5149 38.2097 27.7982 33.26 24.9312 36.0884L21.3475 32.5528L22.0643 31.8457L21.7059 30.7851L22 27.0006L26.5001 26.896ZM34.9656 29.0173L34.2489 28.3102C34.0588 28.1227 33.801 28.0173 33.5321 28.0173C33.2633 28.0173 33.0055 28.1227 32.8154 28.3102L32.0987 29.0173C32.0987 29.0173 32.0987 30.4315 33.5321 30.4315C33.152 30.8066 32.6363 31.0173 32.0987 31.0173C31.561 31.0173 31.0454 30.8066 30.6652 30.4315C30.4751 30.6191 30.3683 30.8734 30.3683 31.1386C30.3683 31.4038 30.4751 31.6582 30.6652 31.8457L31.3819 32.5528C31.572 32.7404 31.8298 32.8457 32.0987 32.8457C32.3675 32.8457 32.6253 32.7404 32.8154 32.5528L34.9656 30.4315C35.1557 30.244 35.2625 29.9896 35.2625 29.7244C35.2625 29.4592 35.1557 29.2048 34.9656 29.0173Z" fill="#191E26"/>
</svg>
