<svg width="36" height="40" viewBox="0 0 36 40" fill="none" xmlns="http://www.w3.org/2000/svg">
<path d="M14.5523 9.22249H17.8927C18.6479 9.22249 19.3127 9.36126 19.8872 9.63882C20.4681 9.90992 20.9167 10.3004 21.233 10.8104C21.5557 11.3203 21.7171 11.9206 21.7171 12.6112C21.7171 13.3019 21.5557 13.9022 21.233 14.4121C20.9167 14.9221 20.4681 15.3158 19.8872 15.5933C19.3127 15.8644 18.6479 16 17.8927 16H14.5523V9.22249ZM17.7958 14.2185C18.2864 14.2185 18.6769 14.0797 18.9674 13.8021C19.2643 13.5181 19.4128 13.1212 19.4128 12.6112C19.4128 12.1013 19.2643 11.7076 18.9674 11.43C18.6769 11.146 18.2864 11.004 17.7958 11.004H16.8373V14.2185H17.7958Z" fill="#191E26"/>
<path d="M34.0002 18L29.3902 19.75L22.4602 26.68L26.0002 30.22L32.9202 23.29C34.4302 21.78 34.0002 18 34.0002 18ZM20.3302 26L18.9202 27.39L20.3302 28.8L14.6802 34.46L18.2102 38L23.8702 32.34L25.2802 33.76L26.7002 32.34L20.3302 26Z" fill="#191E26"/>
<path d="M1.99982 18L6.60983 19.75L13.5398 26.68L9.99982 30.22L3.07982 23.29C1.56982 21.78 1.99982 18 1.99982 18ZM15.6698 26L17.0798 27.39L15.6698 28.8L21.3198 34.46L17.7898 38L12.1298 32.34L10.7198 33.76L9.29982 32.34L15.6698 26Z" fill="#191E26"/>
<circle cx="18" cy="13" r="9" stroke="#191E26" stroke-width="2"/>
<rect x="17" width="2" height="7" rx="1" fill="#191E26"/>
<rect x="17" y="19" width="2" height="7" rx="1" fill="#191E26"/>
<rect x="5" y="14" width="2" height="7" rx="1" transform="rotate(-90 5 14)" fill="#191E26"/>
<rect x="24" y="14" width="2" height="7" rx="1" transform="rotate(-90 24 14)" fill="#191E26"/>
</svg>
