<svg width="25" height="42" viewBox="0 0 25 42" fill="none" xmlns="http://www.w3.org/2000/svg">
<path d="M24 14.0001V13.0001L23 13.0001L12.5 13.0001C10.5053 13.0001 8.92286 13 7.60794 13C5.10016 13 3.56545 13 1.9999 13.0001L1 13.0002V14.0001C1 20.5831 6.10541 26 12.5 26C18.8946 26 24 20.5831 24 14.0001Z" fill="#191E26" stroke="#F2F4FF" stroke-width="2"/>
<path d="M5.2045 5.22249C5.83061 5.22249 6.37604 5.32576 6.84078 5.53232C7.30553 5.73887 7.66377 6.03579 7.9155 6.42307C8.16724 6.81036 8.29311 7.2622 8.29311 7.77858C8.29311 8.29496 8.16724 8.74679 7.9155 9.13408C7.66377 9.52137 7.30553 9.81829 6.84078 10.0248C6.37604 10.2314 5.83061 10.3347 5.2045 10.3347H4.2266V12H1.94161V5.22249H5.2045ZM5.05927 8.57251C5.3691 8.57251 5.60147 8.50474 5.75638 8.36919C5.9113 8.22718 5.98875 8.03031 5.98875 7.77858C5.98875 7.52684 5.9113 7.3332 5.75638 7.19765C5.60147 7.05564 5.3691 6.98464 5.05927 6.98464H4.2266V8.57251H5.05927ZM16.9648 5.22249L14.0988 12H11.8526L8.98667 5.22249H11.4459L13.0629 9.18249L14.7185 5.22249H16.9648ZM21.2296 5.22249C21.8557 5.22249 22.4012 5.32576 22.8659 5.53232C23.3306 5.73887 23.6889 6.03579 23.9406 6.42307C24.1924 6.81036 24.3182 7.2622 24.3182 7.77858C24.3182 8.29496 24.1924 8.74679 23.9406 9.13408C23.6889 9.52137 23.3306 9.81829 22.8659 10.0248C22.4012 10.2314 21.8557 10.3347 21.2296 10.3347H20.2517V12H17.9667V5.22249H21.2296ZM21.0844 8.57251C21.3942 8.57251 21.6266 8.50474 21.7815 8.36919C21.9364 8.22718 22.0139 8.03031 22.0139 7.77858C22.0139 7.52684 21.9364 7.3332 21.7815 7.19765C21.6266 7.05564 21.3942 6.98464 21.0844 6.98464H20.2517V8.57251H21.0844Z" fill="#191E26"/>
<path d="M11.6211 17.2812C11.4657 17.2812 11.3167 17.343 11.2068 17.4529C11.0969 17.5628 11.0352 17.7118 11.0352 17.8672V20.333C6.87842 21.0304 3.71094 24.645 3.71094 29C3.71094 33.355 6.87842 36.9696 11.0352 37.667V40.1328C11.0352 40.2882 11.0969 40.4372 11.2068 40.5471C11.3167 40.657 11.4657 40.7187 11.6211 40.7187H13.3789C13.5343 40.7187 13.6833 40.657 13.7932 40.5471C13.9031 40.4372 13.9648 40.2882 13.9648 40.1328V37.667C18.1216 36.9696 21.2891 33.355 21.2891 29C21.2891 24.645 18.1216 21.0304 13.9648 20.333V17.8672C13.9648 17.7118 13.9031 17.5628 13.7932 17.4529C13.6833 17.343 13.5343 17.2812 13.3789 17.2812H11.6211ZM11.0352 24.8557V26.2168C11.0352 26.3722 11.0969 26.5212 11.2068 26.6311C11.3167 26.741 11.4657 26.8027 11.6211 26.8027H13.3789C13.5343 26.8027 13.6833 26.741 13.7932 26.6311C13.9031 26.5212 13.9648 26.3722 13.9648 26.2168V24.8557C15.6716 25.459 16.8945 27.0867 16.8945 29C16.8945 30.9134 15.6716 32.541 13.9648 33.1443V31.7832C13.9648 31.6278 13.9031 31.4788 13.7932 31.3689C13.6833 31.259 13.5343 31.1973 13.3789 31.1973H11.6211C11.4657 31.1973 11.3167 31.259 11.2068 31.3689C11.0969 31.4788 11.0352 31.6278 11.0352 31.7832V33.1443C9.32837 32.541 8.10547 30.9133 8.10547 29C8.10547 27.0866 9.32837 25.459 11.0352 24.8557Z" fill="#191E26"/>
<g clip-path="url(#clip0_399_4)">
<path d="M0.78125 29.8789C0.78125 30.0343 0.842982 30.1833 0.952867 30.2932C1.06275 30.4031 1.21179 30.4648 1.36719 30.4648L3.83301 30.4648C4.53042 34.6216 8.14502 37.7891 12.5 37.7891C16.855 37.7891 20.4696 34.6216 21.167 30.4648L23.6328 30.4648C23.7882 30.4648 23.9372 30.4031 24.0471 30.2932C24.157 30.1833 24.2187 30.0343 24.2187 29.8789L24.2187 28.1211C24.2187 27.9657 24.157 27.8167 24.0471 27.7068C23.9372 27.5969 23.7882 27.5352 23.6328 27.5352L21.167 27.5352C20.4696 23.3784 16.855 20.2109 12.5 20.2109C8.14502 20.2109 4.53042 23.3784 3.83301 27.5352L1.36719 27.5352C1.21179 27.5352 1.06275 27.5969 0.952867 27.7068C0.842982 27.8167 0.78125 27.9657 0.78125 28.1211L0.78125 29.8789ZM8.35571 30.4648L9.7168 30.4648C9.8722 30.4648 10.0212 30.4031 10.1311 30.2932C10.241 30.1833 10.3027 30.0343 10.3027 29.8789L10.3027 28.1211C10.3027 27.9657 10.241 27.8167 10.1311 27.7068C10.0212 27.5969 9.8722 27.5352 9.7168 27.5352L8.35571 27.5352C8.95903 25.8284 10.5867 24.6055 12.5 24.6055C14.4134 24.6055 16.041 25.8284 16.6443 27.5352L15.2832 27.5352C15.1278 27.5352 14.9788 27.5969 14.8689 27.7068C14.759 27.8167 14.6973 27.9657 14.6973 28.1211L14.6973 29.8789C14.6973 30.0343 14.759 30.1833 14.8689 30.2932C14.9788 30.4031 15.1278 30.4648 15.2832 30.4648L16.6443 30.4648C16.041 32.1716 14.4133 33.3945 12.5 33.3945C10.5866 33.3945 8.95898 32.1716 8.35571 30.4648Z" fill="#191E26"/>
<path fill-rule="evenodd" clip-rule="evenodd" d="M6 22.9587C7.28392 21.6028 8.99531 20.6557 10.9185 20.333V17.8672C10.9185 17.7118 10.9802 17.5628 11.0901 17.4529C11.2 17.343 11.349 17.2812 11.5044 17.2812H13.2622C13.4176 17.2812 13.5666 17.343 13.6765 17.4529C13.7864 17.5628 13.8481 17.7118 13.8481 17.8672V20.333C15.6485 20.6351 17.2632 21.4843 18.5155 22.704C16.7403 24.1434 14.5127 25 12.0942 25C11.6968 25 11.3044 24.9769 10.9185 24.9318V24.8557C10.8672 24.8738 10.8164 24.8929 10.766 24.9128C9.00402 24.6798 7.37809 23.9894 6 22.9587Z" fill="#F2F4FF"/>
</g>
<defs>
<clipPath id="clip0_399_4">
<rect width="25" height="25" fill="white" transform="translate(0 41.5) rotate(-90)"/>
</clipPath>
</defs>
</svg>
