<svg width="45" height="41" viewBox="0 0 45 41" fill="none" xmlns="http://www.w3.org/2000/svg">
<path d="M18 25.8993L8.601 16.7069L5.73403 19.5354L6.45077 20.2425L5.73403 20.9496L10.0345 25.1922C10.2246 25.3798 10.3314 25.6341 10.3314 25.8993C10.3314 26.1645 10.2246 26.4189 10.0345 26.6064L9.31774 27.3135C8.93756 27.6886 8.72398 28.1973 8.72398 28.7278C8.72398 29.2582 8.93756 29.7669 9.31774 30.142L11.7403 32.532C12.0127 32.8007 12.1059 33.2037 11.984 33.5644L11.2648 35.3161C11.1429 35.6768 11.2361 36.0657 11.5084 36.3344L14.3349 39.3344C14.3349 39.3344 16.1555 39.7681 16.4852 37.213C16.4852 37.213 17.2019 32.2633 20.0689 35.0917L23.6526 31.5562L22.9359 30.8491L23.5 26.0002L22 26.6064L18 25.8993ZM10.0345 28.0206L10.7512 27.3135C10.9413 27.126 11.1991 27.0206 11.468 27.0206C11.7368 27.0206 11.9946 27.126 12.1847 27.3135L12.9015 28.0206C12.9015 28.0206 12.9015 29.4349 11.468 29.4349C11.8482 29.8099 12.3638 30.0206 12.9015 30.0206C13.4391 30.0206 13.9548 29.8099 14.3349 29.4349C14.525 29.6224 14.6318 29.8767 14.6318 30.142C14.6318 30.4072 14.525 30.6615 14.3349 30.8491L13.6182 31.5562C13.4281 31.7437 13.1703 31.8491 12.9015 31.8491C12.6326 31.8491 12.3748 31.7437 12.1847 31.5562L10.0345 29.4349C9.8444 29.2473 9.7376 28.993 9.7376 28.7278C9.7376 28.4625 9.8444 28.2082 10.0345 28.0206Z" fill="#191E26"/>
<path d="M26.5 25.899L36.399 16.7066L39.266 19.535L38.5492 20.2421L39.266 20.9493L34.9655 25.1919C34.7754 25.3794 34.6686 25.6338 34.6686 25.899C34.6686 26.1642 34.7754 26.4186 34.9655 26.6061L35.6822 27.3132C36.0624 27.6883 36.276 28.197 36.276 28.7274C36.276 29.2579 36.0624 29.7666 35.6822 30.1416L33.2597 32.5317C32.9873 32.8004 32.8941 33.2034 33.016 33.564L33.7352 35.3158C33.8571 35.6764 33.7639 36.0653 33.4915 36.334L30.665 39.334C30.665 39.334 28.8445 39.7677 28.5148 37.2127C28.5148 37.2127 27.7981 32.263 24.9311 35.0914L21.3474 31.5559L22.0641 30.8488L21.7058 29.7881L22.5 25.899L26.5 25.899ZM34.9655 28.0203L34.2488 27.3132C34.0587 27.1257 33.8009 27.0203 33.532 27.0203C33.2632 27.0203 33.0054 27.1257 32.8153 27.3132L32.0985 28.0203C32.0985 28.0203 32.0985 29.4345 33.532 29.4345C33.1518 29.8096 32.6362 30.0203 32.0985 30.0203C31.5609 30.0203 31.0452 29.8096 30.665 29.4345C30.475 29.6221 30.3682 29.8764 30.3682 30.1416C30.3682 30.4069 30.475 30.6612 30.6651 30.8488L31.3818 31.5559C31.5719 31.7434 31.8297 31.8488 32.0985 31.8488C32.3674 31.8488 32.6252 31.7434 32.8153 31.5559L34.9655 29.4345C35.1556 29.247 35.2624 28.9926 35.2624 28.7274C35.2624 28.4622 35.1556 28.2079 34.9655 28.0203Z" fill="#191E26"/>
<path d="M34 14.0001V13.0001L33 13.0001L22.5 13.0001C20.5053 13.0001 18.9229 13 17.6079 13C15.1002 13 13.5654 13 11.9999 13.0001L11 13.0002V14.0001C11 20.5831 16.1054 26 22.5 26C28.8946 26 34 20.5831 34 14.0001Z" fill="#191E26" stroke="#F2F4FF" stroke-width="2"/>
<path d="M15.2045 5.22249C15.8306 5.22249 16.376 5.32576 16.8408 5.53232C17.3055 5.73887 17.6638 6.03579 17.9155 6.42307C18.1672 6.81036 18.2931 7.2622 18.2931 7.77858C18.2931 8.29496 18.1672 8.74679 17.9155 9.13408C17.6638 9.52137 17.3055 9.81829 16.8408 10.0248C16.376 10.2314 15.8306 10.3347 15.2045 10.3347H14.2266V12H11.9416V5.22249H15.2045ZM15.0593 8.57251C15.3691 8.57251 15.6015 8.50474 15.7564 8.36919C15.9113 8.22718 15.9888 8.03031 15.9888 7.77858C15.9888 7.52684 15.9113 7.3332 15.7564 7.19765C15.6015 7.05564 15.3691 6.98464 15.0593 6.98464H14.2266V8.57251H15.0593ZM26.9648 5.22249L24.0988 12H21.8526L18.9867 5.22249H21.4459L23.0629 9.18249L24.7185 5.22249H26.9648ZM31.2296 5.22249C31.8557 5.22249 32.4012 5.32576 32.8659 5.53232C33.3306 5.73887 33.6889 6.03579 33.9406 6.42307C34.1924 6.81036 34.3182 7.2622 34.3182 7.77858C34.3182 8.29496 34.1924 8.74679 33.9406 9.13408C33.6889 9.52137 33.3306 9.81829 32.8659 10.0248C32.4012 10.2314 31.8557 10.3347 31.2296 10.3347H30.2517V12H27.9667V5.22249H31.2296ZM31.0844 8.57251C31.3942 8.57251 31.6266 8.50474 31.7815 8.36919C31.9364 8.22718 32.0139 8.03031 32.0139 7.77858C32.0139 7.52684 31.9364 7.3332 31.7815 7.19765C31.6266 7.05564 31.3942 6.98464 31.0844 6.98464H30.2517V8.57251H31.0844Z" fill="#191E26"/>
<path d="M20.4877 15.2744V21.3633H18.4349V16.8227H17.3911V15.2744H20.4877ZM23.0013 18.7625C22.6707 18.7625 22.3953 18.6581 22.1749 18.4493C21.9603 18.2348 21.8531 17.9622 21.8531 17.6317C21.8531 17.3011 21.9603 17.0344 22.1749 16.8314C22.3953 16.6226 22.6707 16.5183 23.0013 16.5183C23.3318 16.5183 23.6043 16.6226 23.8189 16.8314C24.0393 17.0344 24.1494 17.3011 24.1494 17.6317C24.1494 17.9622 24.0393 18.2348 23.8189 18.4493C23.6043 18.6581 23.3318 18.7625 23.0013 18.7625ZM23.0013 21.4503C22.6707 21.4503 22.3953 21.3459 22.1749 21.1371C21.9603 20.9226 21.8531 20.65 21.8531 20.3195C21.8531 19.9889 21.9603 19.7222 22.1749 19.5192C22.3953 19.3105 22.6707 19.2061 23.0013 19.2061C23.3318 19.2061 23.6043 19.3105 23.8189 19.5192C24.0393 19.7222 24.1494 19.9889 24.1494 20.3195C24.1494 20.65 24.0393 20.9226 23.8189 21.1371C23.6043 21.3459 23.3318 21.4503 23.0013 21.4503ZM28.1569 15.2744V21.3633H26.1041V16.8227H25.0603V15.2744H28.1569Z" fill="white"/>
</svg>
