<svg width="41" height="43" viewBox="0 0 41 43" fill="none" xmlns="http://www.w3.org/2000/svg">
<path d="M3.7054 19.6961L2.09687 19.6963V21.3048C2.09687 31.8949 10.3099 40.609 20.5969 40.609C30.8839 40.609 39.0969 31.8949 39.0969 21.3048C39.0969 19.6379 38.9766 18.2787 38.7036 17.2112C38.4348 16.1603 37.963 15.1784 37.0884 14.5611C36.1696 13.9126 35.1392 13.8955 34.2773 14.0739C33.442 14.2468 32.588 14.636 31.7917 15.0551C31.1138 15.4118 30.3821 15.8431 29.6471 16.2765C29.5068 16.3592 29.3664 16.4419 29.2262 16.5243C28.3323 17.0494 27.4125 17.5783 26.4552 18.0547C24.5284 19.0133 22.5684 19.696 20.5969 19.696C17.3859 19.696 14.839 19.696 12.7229 19.696C8.69108 19.6959 6.22303 19.6959 3.7054 19.6961Z" fill="#191E26" stroke="#F2F4FF" stroke-width="3.2174"/>
<mask id="path-2-outside-1_1_3522" maskUnits="userSpaceOnUse" x="1.00195" y="1.6084" width="39" height="39" fill="black">
<rect fill="white" x="1.00195" y="1.6084" width="39" height="39"/>
<path fill-rule="evenodd" clip-rule="evenodd" d="M34.3342 13.8136C34.4423 13.801 34.5516 13.791 34.6609 13.7809C32.4276 7.83626 26.6903 3.6084 19.969 3.6084C11.36 3.6084 4.25906 10.7344 4.25906 19.3183V22.5357C4.2563 23.3729 4.15763 24.207 3.96497 25.0217C5.22931 24.9425 6.78019 24.759 7.82962 24.5541C8.65533 24.392 10.2703 23.7749 12.3478 22.8814C14.4001 21.9978 16.8371 20.8705 19.2702 19.7293C20.0466 19.3649 20.8236 18.9976 21.5871 18.6368L22.3871 18.2589L22.3896 18.2576C23.7231 17.6267 25 17.0234 26.1436 16.4906C28.1495 15.5555 29.7934 14.8152 30.643 14.5224C31.6233 14.1831 33.0284 13.9493 34.3342 13.8136ZM24.1617 33.7715L23.4076 31.1322H17.1538L18.0838 33.7715H24.1617ZM38.1922 16.7545C38.1683 15.7968 37.408 15.0352 36.4742 14.9321C35.8024 14.9491 35.1316 14.9927 34.4633 15.0628C33.1864 15.1961 31.8944 15.4198 31.0524 15.7101C30.2794 15.9765 28.7022 16.6841 26.6737 17.6292C25.6359 18.1127 24.4947 18.6521 23.2988 19.2174L22.931 19.3912L22.7017 19.4996L22.7011 19.4999C21.755 19.9473 20.7817 20.4075 19.804 20.8667C17.3696 22.0104 14.9164 23.1428 12.8452 24.0351C10.7966 24.9174 9.05342 25.5948 8.07187 25.7871C6.86031 26.0246 5.0078 26.2357 3.5939 26.2998C3.46697 26.6681 3.32369 27.03 3.16534 27.387C3.05223 27.6132 3.00195 27.8645 3.00195 28.141C3.00856 28.6367 3.21009 29.1097 3.56292 29.4579C3.91575 29.806 4.39149 30.0011 4.88715 30.0011C8.42251 30.0011 10.0388 29.2772 13.1908 27.8633L13.3831 27.7766L29.3444 20.5877C29.5417 20.4995 29.7297 20.414 29.911 20.3315L30.1161 20.2383L30.1226 20.2353C32.3793 19.2118 33.5297 18.6899 36.2945 18.6899C37.3627 18.6899 38.2174 17.8228 38.1922 16.7545ZM23.4375 28.6186H22.7161L21.7861 25.3698L16.2185 27.8784L16.4573 28.7192C15.9163 28.8763 15.4422 29.2077 15.1087 29.6618C14.8759 29.9861 14.7232 30.361 14.6632 30.7558C14.6031 31.1505 14.6373 31.5538 14.7631 31.9328L14.7682 31.9491L15.7082 34.6148L15.7133 34.6274C15.8932 35.1117 16.2164 35.5298 16.6399 35.8259C17.0633 36.122 17.5669 36.2822 18.0836 36.2851H18.6165L19.1393 38.12C19.1964 38.3158 19.3155 38.4878 19.4786 38.6101C19.6418 38.7325 19.8402 38.7987 20.0442 38.7987H24.5812C25.1091 38.7987 25.4861 38.2959 25.3353 37.7932L24.8778 36.1883C25.3981 36.04 25.8657 35.7233 26.1974 35.2859C26.4343 34.9739 26.5945 34.6106 26.6653 34.2253C26.736 33.84 26.7152 33.4435 26.6047 33.0677L25.8518 30.4347C25.5464 29.3626 24.546 28.6186 23.4375 28.6186ZM24.213 35.0283H24.1916H18.0836C17.8226 35.0259 17.5685 34.944 17.3552 34.7935C17.1419 34.6431 16.9795 34.4313 16.8896 34.1862L15.9596 31.547C15.8937 31.3571 15.8741 31.1542 15.9026 30.9553C15.931 30.7563 16.0065 30.5671 16.123 30.4033C16.2423 30.2417 16.3975 30.1099 16.5763 30.0184C16.7551 29.9268 16.9527 29.8778 17.1535 29.8754H23.4375C23.7088 29.878 23.9722 29.9672 24.1892 30.13C24.4062 30.2928 24.5656 30.5206 24.644 30.7803L25.3981 33.4196C25.4536 33.6068 25.4642 33.8044 25.4293 33.9965C25.3944 34.1886 25.3148 34.3698 25.197 34.5256C25.0809 34.6774 24.9322 34.8014 24.762 34.8884C24.5917 34.9754 24.4041 35.0232 24.213 35.0283Z"/>
</mask>
<path fill-rule="evenodd" clip-rule="evenodd" d="M34.3342 13.8136C34.4423 13.801 34.5516 13.791 34.6609 13.7809C32.4276 7.83626 26.6903 3.6084 19.969 3.6084C11.36 3.6084 4.25906 10.7344 4.25906 19.3183V22.5357C4.2563 23.3729 4.15763 24.207 3.96497 25.0217C5.22931 24.9425 6.78019 24.759 7.82962 24.5541C8.65533 24.392 10.2703 23.7749 12.3478 22.8814C14.4001 21.9978 16.8371 20.8705 19.2702 19.7293C20.0466 19.3649 20.8236 18.9976 21.5871 18.6368L22.3871 18.2589L22.3896 18.2576C23.7231 17.6267 25 17.0234 26.1436 16.4906C28.1495 15.5555 29.7934 14.8152 30.643 14.5224C31.6233 14.1831 33.0284 13.9493 34.3342 13.8136ZM24.1617 33.7715L23.4076 31.1322H17.1538L18.0838 33.7715H24.1617ZM38.1922 16.7545C38.1683 15.7968 37.408 15.0352 36.4742 14.9321C35.8024 14.9491 35.1316 14.9927 34.4633 15.0628C33.1864 15.1961 31.8944 15.4198 31.0524 15.7101C30.2794 15.9765 28.7022 16.6841 26.6737 17.6292C25.6359 18.1127 24.4947 18.6521 23.2988 19.2174L22.931 19.3912L22.7017 19.4996L22.7011 19.4999C21.755 19.9473 20.7817 20.4075 19.804 20.8667C17.3696 22.0104 14.9164 23.1428 12.8452 24.0351C10.7966 24.9174 9.05342 25.5948 8.07187 25.7871C6.86031 26.0246 5.0078 26.2357 3.5939 26.2998C3.46697 26.6681 3.32369 27.03 3.16534 27.387C3.05223 27.6132 3.00195 27.8645 3.00195 28.141C3.00856 28.6367 3.21009 29.1097 3.56292 29.4579C3.91575 29.806 4.39149 30.0011 4.88715 30.0011C8.42251 30.0011 10.0388 29.2772 13.1908 27.8633L13.3831 27.7766L29.3444 20.5877C29.5417 20.4995 29.7297 20.414 29.911 20.3315L30.1161 20.2383L30.1226 20.2353C32.3793 19.2118 33.5297 18.6899 36.2945 18.6899C37.3627 18.6899 38.2174 17.8228 38.1922 16.7545ZM23.4375 28.6186H22.7161L21.7861 25.3698L16.2185 27.8784L16.4573 28.7192C15.9163 28.8763 15.4422 29.2077 15.1087 29.6618C14.8759 29.9861 14.7232 30.361 14.6632 30.7558C14.6031 31.1505 14.6373 31.5538 14.7631 31.9328L14.7682 31.9491L15.7082 34.6148L15.7133 34.6274C15.8932 35.1117 16.2164 35.5298 16.6399 35.8259C17.0633 36.122 17.5669 36.2822 18.0836 36.2851H18.6165L19.1393 38.12C19.1964 38.3158 19.3155 38.4878 19.4786 38.6101C19.6418 38.7325 19.8402 38.7987 20.0442 38.7987H24.5812C25.1091 38.7987 25.4861 38.2959 25.3353 37.7932L24.8778 36.1883C25.3981 36.04 25.8657 35.7233 26.1974 35.2859C26.4343 34.9739 26.5945 34.6106 26.6653 34.2253C26.736 33.84 26.7152 33.4435 26.6047 33.0677L25.8518 30.4347C25.5464 29.3626 24.546 28.6186 23.4375 28.6186ZM24.213 35.0283H24.1916H18.0836C17.8226 35.0259 17.5685 34.944 17.3552 34.7935C17.1419 34.6431 16.9795 34.4313 16.8896 34.1862L15.9596 31.547C15.8937 31.3571 15.8741 31.1542 15.9026 30.9553C15.931 30.7563 16.0065 30.5671 16.123 30.4033C16.2423 30.2417 16.3975 30.1099 16.5763 30.0184C16.7551 29.9268 16.9527 29.8778 17.1535 29.8754H23.4375C23.7088 29.878 23.9722 29.9672 24.1892 30.13C24.4062 30.2928 24.5656 30.5206 24.644 30.7803L25.3981 33.4196C25.4536 33.6068 25.4642 33.8044 25.4293 33.9965C25.3944 34.1886 25.3148 34.3698 25.197 34.5256C25.0809 34.6774 24.9322 34.8014 24.762 34.8884C24.5917 34.9754 24.4041 35.0232 24.213 35.0283Z" fill="#191E26"/>
<path d="M34.6609 13.7809L34.8082 15.3828L36.9087 15.1897L36.1669 13.2151L34.6609 13.7809ZM34.3342 13.8136L34.5005 15.4137L34.5102 15.4126L34.52 15.4115L34.3342 13.8136ZM4.25906 22.5357L5.86776 22.541V22.5357H4.25906ZM3.96497 25.0217L2.39945 24.6515L1.90016 26.7628L4.06552 26.6272L3.96497 25.0217ZM7.82962 24.5541L8.13783 26.133L8.13956 26.1327L7.82962 24.5541ZM12.3478 22.8814L12.9834 24.3591L12.9839 24.3589L12.3478 22.8814ZM19.2702 19.7293L19.9533 21.1858L19.9539 21.1855L19.2702 19.7293ZM21.5871 18.6368L20.8999 17.1823L20.8997 17.1824L21.5871 18.6368ZM22.3871 18.2589L23.0743 19.7134L23.0903 19.7058L23.1061 19.6979L22.3871 18.2589ZM22.3896 18.2576L21.7016 16.8035L21.686 16.8108L21.6706 16.8185L22.3896 18.2576ZM26.1436 16.4906L26.8231 17.9487L26.8233 17.9486L26.1436 16.4906ZM30.643 14.5224L31.1672 16.0433L31.1692 16.0426L30.643 14.5224ZM23.4076 31.1322L24.9544 30.6903L24.621 29.5235H23.4076V31.1322ZM24.1617 33.7715V35.3802H26.2944L25.7085 33.3295L24.1617 33.7715ZM17.1538 31.1322V29.5235H14.8813L15.6365 31.6669L17.1538 31.1322ZM18.0838 33.7715L16.5666 34.3061L16.945 35.3802H18.0838V33.7715ZM36.4742 14.9321L36.6507 13.3331L36.5424 13.3212L36.4336 13.3239L36.4742 14.9321ZM38.1922 16.7545L39.8005 16.7166L39.8004 16.7144L38.1922 16.7545ZM34.4633 15.0628L34.6302 16.6628L34.6313 16.6627L34.4633 15.0628ZM31.0524 15.7101L31.5766 17.231L31.5767 17.2309L31.0524 15.7101ZM26.6737 17.6292L25.9943 16.171L25.9943 16.171L26.6737 17.6292ZM23.2988 19.2174L23.9862 20.6718L23.9862 20.6718L23.2988 19.2174ZM22.931 19.3912L22.2435 17.9368L22.2433 17.9369L22.931 19.3912ZM22.7017 19.4996L22.014 18.0453L22.0096 18.0475L22.7017 19.4996ZM22.7011 19.4999L23.3888 20.9542L23.3933 20.9521L22.7011 19.4999ZM19.804 20.8667L19.1202 19.4106L19.12 19.4107L19.804 20.8667ZM12.8452 24.0351L13.4815 25.5126L13.4817 25.5125L12.8452 24.0351ZM8.07187 25.7871L7.7626 24.2084L7.76236 24.2084L8.07187 25.7871ZM3.5939 26.2998L3.52105 24.6928L2.42921 24.7423L2.07303 25.7756L3.5939 26.2998ZM3.16534 27.387L4.6042 28.1064L4.62078 28.0732L4.63581 28.0394L3.16534 27.387ZM3.00195 28.141H1.39326V28.1518L1.3934 28.1625L3.00195 28.141ZM3.56292 29.4579L2.43306 30.603L2.43306 30.603L3.56292 29.4579ZM4.88715 30.0011V28.3924H4.887L4.88715 30.0011ZM13.1908 27.8633L13.8492 29.3311L13.8521 29.3298L13.1908 27.8633ZM13.3831 27.7766L12.7224 26.3098L12.7217 26.3101L13.3831 27.7766ZM29.3444 20.5877L28.6879 19.119L28.6837 19.1209L29.3444 20.5877ZM29.911 20.3315L29.2454 18.867L29.2449 18.8672L29.911 20.3315ZM30.1161 20.2383L29.4514 18.7733L29.4504 18.7738L30.1161 20.2383ZM30.1226 20.2353L29.4581 18.7703L29.458 18.7704L30.1226 20.2353ZM22.7161 28.6186L21.1696 29.0614L21.5033 30.2273H22.7161V28.6186ZM21.7861 25.3698L23.3327 24.9271L22.8208 23.1391L21.1253 23.9031L21.7861 25.3698ZM16.2185 27.8784L15.5577 26.4117L14.2916 26.9821L14.671 28.3179L16.2185 27.8784ZM16.4573 28.7192L16.9061 30.264L18.4417 29.8179L18.0048 28.2797L16.4573 28.7192ZM15.1087 29.6618L13.8122 28.7095L13.8069 28.7166L13.8018 28.7237L15.1087 29.6618ZM14.6632 30.7558L13.0728 30.5137L13.0728 30.5137L14.6632 30.7558ZM14.7631 31.9328L16.3006 31.4595L16.2955 31.4427L16.2899 31.426L14.7631 31.9328ZM14.7682 31.9491L13.2306 32.4224L13.2402 32.4535L13.251 32.4842L14.7682 31.9491ZM15.7082 34.6148L14.1911 35.1498L14.2022 35.1813L14.2146 35.2123L15.7082 34.6148ZM15.7133 34.6274L17.2212 34.067L17.2143 34.0483L17.2069 34.0298L15.7133 34.6274ZM16.6399 35.8259L17.5618 34.5076L17.5618 34.5076L16.6399 35.8259ZM18.0836 36.2851L18.0746 37.8938H18.0836V36.2851ZM18.6165 36.2851L20.1636 35.8442L19.8308 34.6764H18.6165V36.2851ZM19.1393 38.12L17.5921 38.5608L17.5949 38.5704L19.1393 38.12ZM19.4786 38.6101L18.5134 39.8971L18.5134 39.8971L19.4786 38.6101ZM25.3353 37.7932L23.7882 38.2342L23.7913 38.2449L23.7944 38.2555L25.3353 37.7932ZM24.8778 36.1883L24.4369 34.6412L22.8897 35.0822L23.3307 36.6293L24.8778 36.1883ZM26.1974 35.2859L24.9161 34.3133L24.9158 34.3137L26.1974 35.2859ZM26.6653 34.2253L28.2475 34.5158L28.2475 34.5158L26.6653 34.2253ZM26.6047 33.0677L25.0579 33.5099L25.0614 33.5218L26.6047 33.0677ZM25.8518 30.4347L24.3047 30.8754L24.3051 30.8769L25.8518 30.4347ZM24.213 35.0283V36.637H24.2344L24.2559 36.6364L24.213 35.0283ZM18.0836 35.0283L18.0686 36.6369L18.0761 36.637H18.0836V35.0283ZM17.3552 34.7935L16.428 36.1082L16.4281 36.1082L17.3552 34.7935ZM16.8896 34.1862L15.3724 34.7209L15.3758 34.7306L15.3793 34.7402L16.8896 34.1862ZM15.9596 31.547L14.4398 32.0745L14.4423 32.0816L15.9596 31.547ZM15.9026 30.9553L14.31 30.7278L14.31 30.7278L15.9026 30.9553ZM16.123 30.4033L14.829 29.4475L14.8203 29.4593L14.8117 29.4713L16.123 30.4033ZM16.5763 30.0184L17.3097 31.4502L17.3097 31.4502L16.5763 30.0184ZM17.1535 29.8754V28.2667H17.1438L17.1341 28.2668L17.1535 29.8754ZM23.4375 29.8754L23.453 28.2668L23.4452 28.2667H23.4375V29.8754ZM24.644 30.7803L26.1908 30.3384L26.1875 30.3267L26.184 30.3151L24.644 30.7803ZM25.3981 33.4196L23.8513 33.8615L23.8534 33.8689L23.8556 33.8762L25.3981 33.4196ZM25.197 34.5256L26.4749 35.5028L26.4801 35.496L25.197 34.5256ZM34.5136 12.179C34.4076 12.1887 34.2789 12.2005 34.1484 12.2156L34.52 15.4115C34.6056 15.4016 34.6956 15.3932 34.8082 15.3828L34.5136 12.179ZM19.969 5.2171C25.9986 5.2171 31.1497 9.00906 33.155 14.3467L36.1669 13.2151C33.7055 6.66346 27.3821 1.9997 19.969 1.9997V5.2171ZM5.86776 19.3183C5.86776 11.6212 12.2501 5.2171 19.969 5.2171V1.9997C10.4698 1.9997 2.65036 9.84764 2.65036 19.3183H5.86776ZM5.86776 22.5357V19.3183H2.65036V22.5357H5.86776ZM5.53049 25.3919C5.75143 24.4576 5.86459 23.5011 5.86775 22.541L2.65037 22.5304C2.64802 23.2447 2.56383 23.9564 2.39945 24.6515L5.53049 25.3919ZM7.5214 22.9753C6.55644 23.1636 5.07731 23.3402 3.86443 23.4161L4.06552 26.6272C5.38131 26.5448 7.00395 26.3544 8.13783 26.133L7.5214 22.9753ZM11.7122 21.4036C9.5954 22.314 8.14495 22.8528 7.51967 22.9756L8.13956 26.1327C9.16571 25.9312 10.9452 25.2358 12.9834 24.3591L11.7122 21.4036ZM18.5871 18.2728C16.1548 19.4136 13.7383 20.5313 11.7117 21.4038L12.9839 24.3589C15.062 23.4643 17.5193 22.3274 19.9533 21.1858L18.5871 18.2728ZM20.8997 17.1824C20.1359 17.5433 19.3608 17.9097 18.5866 18.2731L19.9539 21.1855C20.7324 20.82 21.5113 20.452 22.2744 20.0913L20.8997 17.1824ZM21.6999 16.8043L20.8999 17.1823L22.2743 20.0914L23.0743 19.7134L21.6999 16.8043ZM21.6706 16.8185L21.6681 16.8198L23.1061 19.6979L23.1086 19.6967L21.6706 16.8185ZM25.4642 15.0324C24.3157 15.5675 23.0348 16.1727 21.7016 16.8035L23.0776 19.7118C24.4113 19.0807 25.6842 18.4793 26.8231 17.9487L25.4642 15.0324ZM30.1188 13.0015C29.1719 13.3279 27.4417 14.1105 25.4639 15.0325L26.8233 17.9486C28.8573 17.0005 30.4149 16.3026 31.1672 16.0433L30.1188 13.0015ZM34.1679 12.2135C32.8274 12.3528 31.2749 12.6013 30.1167 13.0022L31.1692 16.0426C31.9717 15.7648 33.2293 15.5458 34.5005 15.4137L34.1679 12.2135ZM21.8608 31.5742L22.6149 34.2134L25.7085 33.3295L24.9544 30.6903L21.8608 31.5742ZM17.1538 32.7409H23.4076V29.5235H17.1538V32.7409ZM19.6011 33.2368L18.671 30.5976L15.6365 31.6669L16.5666 34.3061L19.6011 33.2368ZM24.1617 32.1628H18.0838V35.3802H24.1617V32.1628ZM36.2977 16.5311C36.3827 16.5405 36.4598 16.5805 36.5134 16.6364C36.5634 16.6885 36.5827 16.7419 36.584 16.7946L39.8004 16.7144C39.755 14.8912 38.3224 13.5176 36.6507 13.3331L36.2977 16.5311ZM34.6313 16.6627C35.2572 16.597 35.8855 16.5562 36.5147 16.5403L36.4336 13.3239C35.7193 13.3419 35.006 13.3883 34.2953 13.4629L34.6313 16.6627ZM31.5767 17.2309C32.2427 17.0013 33.3889 16.7924 34.6302 16.6628L34.2964 13.4628C32.984 13.5997 31.5461 13.8382 30.528 14.1892L31.5767 17.2309ZM27.3531 19.0874C29.4104 18.1288 30.901 17.4639 31.5766 17.231L30.5281 14.1892C29.6579 14.4892 27.9939 15.2394 25.9943 16.171L27.3531 19.0874ZM23.9862 20.6718C25.1831 20.1061 26.3201 19.5687 27.3531 19.0874L25.9943 16.171C24.9517 16.6568 23.8062 17.1982 22.6113 17.763L23.9862 20.6718ZM23.6184 20.8457L23.9862 20.6718L22.6114 17.763L22.2435 17.9368L23.6184 20.8457ZM23.3894 20.9539L23.6186 20.8455L22.2433 17.9369L22.014 18.0453L23.3894 20.9539ZM23.3933 20.9521L23.3939 20.9518L22.0096 18.0475L22.0089 18.0477L23.3933 20.9521ZM20.4879 22.3228C21.4678 21.8626 22.4429 21.4015 23.3888 20.9542L22.0134 18.0456C21.067 18.4931 20.0956 18.9525 19.1202 19.4106L20.4879 22.3228ZM13.4817 25.5125C15.578 24.6094 18.0507 23.4678 20.4881 22.3227L19.12 19.4107C16.6885 20.553 14.2548 21.6762 12.2087 22.5577L13.4817 25.5125ZM8.38113 27.3658C9.56326 27.1342 11.4701 26.3788 13.4815 25.5126L12.2088 22.5576C10.1231 23.4559 8.54358 24.0554 7.7626 24.2084L8.38113 27.3658ZM3.66676 27.9069C5.14766 27.8398 7.08039 27.6208 8.38137 27.3657L7.76236 24.2084C6.64024 24.4284 4.86794 24.6317 3.52105 24.6928L3.66676 27.9069ZM4.63581 28.0394C4.81182 27.6426 4.97212 27.238 5.11478 26.8241L2.07303 25.7756C1.96182 26.0982 1.83557 26.4174 1.69486 26.7346L4.63581 28.0394ZM4.61065 28.141C4.61065 28.1001 4.61439 28.0814 4.61479 28.0795C4.61498 28.0786 4.61448 28.0812 4.61264 28.0865C4.61079 28.0919 4.60802 28.0988 4.6042 28.1064L1.72647 26.6675C1.48061 27.1593 1.39326 27.6666 1.39326 28.141H4.61065ZM4.69279 28.3127C4.64103 28.2617 4.61148 28.1923 4.61051 28.1196L1.3934 28.1625C1.40565 29.081 1.77915 29.9578 2.43306 30.603L4.69279 28.3127ZM4.887 28.3924C4.81431 28.3924 4.74453 28.3638 4.69278 28.3127L2.43306 30.603C3.08697 31.2482 3.96867 31.6099 4.88729 31.6098L4.887 28.3924ZM12.5324 26.3955C9.42446 27.7896 8.0672 28.3924 4.88715 28.3924V31.6098C8.77782 31.6098 10.653 30.7648 13.8492 29.3311L12.5324 26.3955ZM12.7217 26.3101L12.5294 26.3968L13.8521 29.3298L14.0444 29.243L12.7217 26.3101ZM28.6837 19.1209L12.7224 26.3098L14.0437 29.2434L30.005 22.0545L28.6837 19.1209ZM29.2449 18.8672C29.063 18.9499 28.8796 19.0333 28.6879 19.1191L30.0009 22.0564C30.2037 21.9657 30.3964 21.878 30.5771 21.7958L29.2449 18.8672ZM29.4504 18.7738L29.2454 18.867L30.5766 21.7961L30.7817 21.7029L29.4504 18.7738ZM29.458 18.7704L29.4514 18.7733L30.7807 21.7033L30.7873 21.7003L29.458 18.7704ZM36.2945 17.0812C34.8013 17.0812 33.6701 17.2231 32.5809 17.5306C31.5269 17.8282 30.5606 18.2702 29.4581 18.7703L30.7871 21.7004C31.9412 21.1769 32.6785 20.8462 33.4551 20.627C34.1965 20.4177 35.0229 20.2986 36.2945 20.2986V17.0812ZM36.584 16.7923C36.5877 16.9493 36.4678 17.0812 36.2945 17.0812V20.2986C38.2577 20.2986 39.8471 18.6963 39.8005 16.7166L36.584 16.7923ZM22.7161 30.2273H23.4375V27.0099H22.7161V30.2273ZM20.2395 25.8125L21.1696 29.0614L24.2627 28.1759L23.3327 24.9271L20.2395 25.8125ZM16.8793 29.3451L22.4469 26.8365L21.1253 23.9031L15.5577 26.4117L16.8793 29.3451ZM18.0048 28.2797L17.766 27.4389L14.671 28.3179L14.9098 29.1587L18.0048 28.2797ZM16.4053 30.614C16.5292 30.4454 16.7052 30.3224 16.9061 30.264L16.0085 27.1743C15.1273 27.4303 14.3553 27.97 13.8122 28.7095L16.4053 30.614ZM16.2535 30.9978C16.2754 30.8542 16.331 30.7178 16.4157 30.5998L13.8018 28.7237C13.4209 29.2545 13.1711 29.8679 13.0728 30.5137L16.2535 30.9978ZM16.2899 31.426C16.2442 31.2882 16.2317 31.1414 16.2535 30.9978L13.0728 30.5137C12.9745 31.1596 13.0305 31.8195 13.2363 32.4396L16.2899 31.426ZM16.3057 31.4759L16.3006 31.4595L13.2256 32.4061L13.2306 32.4224L16.3057 31.4759ZM17.2254 34.0798L16.2853 31.4141L13.251 32.4842L14.1911 35.1498L17.2254 34.0798ZM17.2069 34.0298L17.2018 34.0173L14.2146 35.2123L14.2197 35.2249L17.2069 34.0298ZM17.5618 34.5076C17.4062 34.3988 17.2874 34.2451 17.2212 34.067L14.2053 35.1877C14.4991 35.9783 15.0267 36.6608 15.7179 37.1442L17.5618 34.5076ZM18.0925 34.6764C17.9026 34.6753 17.7175 34.6165 17.5618 34.5076L15.7179 37.1442C16.4091 37.6276 17.2312 37.8891 18.0746 37.8937L18.0925 34.6764ZM18.6165 34.6764H18.0836V37.8938H18.6165V34.6764ZM20.6864 37.6792L20.1636 35.8442L17.0693 36.7259L17.5922 38.5608L20.6864 37.6792ZM20.4438 37.3232C20.5591 37.4097 20.6433 37.5312 20.6836 37.6696L17.5949 38.5704C17.7495 39.1004 18.0718 39.5659 18.5134 39.8971L20.4438 37.3232ZM20.0442 37.19C20.1883 37.19 20.3285 37.2367 20.4438 37.3232L18.5134 39.8971C18.955 40.2283 19.4922 40.4074 20.0442 40.4074V37.19ZM24.5812 37.19H20.0442V40.4074H24.5812V37.19ZM23.7944 38.2555C23.6316 37.7129 24.0452 37.19 24.5812 37.19V40.4074C26.1729 40.4074 27.3406 38.879 26.8761 37.331L23.7944 38.2555ZM23.3307 36.6293L23.7882 38.2342L26.8824 37.3522L26.4249 35.7473L23.3307 36.6293ZM24.9158 34.3137C24.7961 34.4715 24.6245 34.5877 24.4369 34.6412L25.3188 37.7354C26.1718 37.4923 26.9352 36.9751 27.4791 36.2582L24.9158 34.3137ZM25.083 33.9348C25.0578 34.0723 25.0006 34.2019 24.9161 34.3133L27.4788 36.2586C27.868 35.7459 28.1313 35.1489 28.2475 34.5158L25.083 33.9348ZM25.0614 33.5218C25.1008 33.6559 25.1083 33.7974 25.083 33.9349L28.2475 34.5158C28.3638 33.8826 28.3296 33.2311 28.1479 32.6135L25.0614 33.5218ZM24.3051 30.8769L25.0579 33.5099L28.1514 32.6254L27.3985 29.9925L24.3051 30.8769ZM23.4375 30.2273C23.8362 30.2273 24.1986 30.5031 24.3047 30.8754L27.399 29.9939C26.8942 28.2221 25.2558 27.0099 23.4375 27.0099V30.2273ZM24.1916 36.637H24.213V33.4196H24.1916V36.637ZM18.0836 36.637H24.1916V33.4196H18.0836V36.637ZM16.4281 36.1082C16.9085 36.447 17.4808 36.6315 18.0686 36.6369L18.0985 33.4197C18.1644 33.4203 18.2285 33.4409 18.2824 33.4789L16.4281 36.1082ZM15.3793 34.7402C15.5818 35.2922 15.9476 35.7693 16.428 36.1082L18.2824 33.4789C18.3362 33.5169 18.3772 33.5704 18.3999 33.6322L15.3793 34.7402ZM14.4423 32.0816L15.3724 34.7209L18.4069 33.6516L17.4768 31.0123L14.4423 32.0816ZM14.31 30.7278C14.2453 31.1806 14.2898 31.6424 14.4399 32.0745L17.4793 31.0194C17.4975 31.0718 17.5029 31.1279 17.4951 31.1828L14.31 30.7278ZM14.8117 29.4713C14.5467 29.8441 14.3747 30.275 14.31 30.7278L17.4951 31.1828C17.4872 31.2377 17.4664 31.29 17.4342 31.3353L14.8117 29.4713ZM15.8429 28.5865C15.443 28.7914 15.096 29.0861 14.829 29.4475L17.417 31.359C17.3887 31.3973 17.352 31.4285 17.3097 31.4502L15.8429 28.5865ZM17.1341 28.2668C16.6848 28.2723 16.2429 28.3817 15.8429 28.5865L17.3097 31.4502C17.2673 31.4718 17.2206 31.4834 17.173 31.484L17.1341 28.2668ZM23.4375 28.2667H17.1535V31.4841H23.4375V28.2667ZM25.1544 28.843C24.6632 28.4746 24.067 28.2727 23.453 28.2668L23.4221 31.484C23.3506 31.4834 23.2812 31.4598 23.224 31.4169L25.1544 28.843ZM26.184 30.3151C26.0064 29.7272 25.6457 29.2115 25.1544 28.843L23.224 31.4169C23.1668 31.374 23.1248 31.314 23.1041 31.2455L26.184 30.3151ZM26.9449 32.9776L26.1908 30.3384L23.0972 31.2223L23.8513 33.8615L26.9449 32.9776ZM27.0121 34.2843C27.0921 33.8443 27.0676 33.3917 26.9406 32.9629L23.8556 33.8762C23.8395 33.8219 23.8364 33.7645 23.8466 33.7087L27.0121 34.2843ZM26.4801 35.496C26.7498 35.1393 26.9321 34.7243 27.0121 34.2843L23.8466 33.7087C23.8567 33.653 23.8798 33.6004 23.914 33.5552L26.4801 35.496ZM25.4938 36.321C25.8777 36.1248 26.213 35.8453 26.4749 35.5028L23.9192 33.5483C23.9488 33.5096 23.9867 33.478 24.0301 33.4558L25.4938 36.321ZM24.2559 36.6364C24.6869 36.6249 25.1099 36.5171 25.4938 36.321L24.0301 33.4558C24.0735 33.4336 24.1213 33.4215 24.17 33.4202L24.2559 36.6364Z" fill="#F2F4FF" mask="url(#path-2-outside-1_1_3522)"/>
<path d="M11.3674 14.64C12.354 14.2068 13.1701 14.0966 13.8159 14.3093C14.4655 14.5124 14.9376 14.9495 15.2323 15.6206C15.4268 16.0636 15.4891 16.5245 15.4192 17.0035C15.3532 17.4728 15.1301 17.931 14.75 18.3781C14.367 18.8184 13.8164 19.1963 13.0983 19.5116C12.6017 19.7297 12.0815 19.8941 11.5377 20.0048C11.0007 20.1125 10.5019 20.1434 10.0414 20.0975L10.0776 17.9922C10.4466 18.0303 10.8113 18.0223 11.1717 17.9681C11.5389 17.9109 11.8768 17.8145 12.1855 17.679C12.4607 17.5581 12.6615 17.4139 12.7881 17.2463C12.9183 17.069 12.9452 16.8931 12.8686 16.7186C12.7949 16.5508 12.6632 16.4606 12.4735 16.4478C12.2808 16.4284 11.9831 16.507 11.5805 16.6838L9.53689 17.5812L8.01053 13.1481L12.6916 11.0926L13.4784 12.8845L10.7503 14.0824L11.005 14.7991L11.3674 14.64ZM17.4454 13.8203C17.0629 13.9883 16.691 14.0074 16.3299 13.8778C15.9726 13.7385 15.7099 13.4776 15.5419 13.0951C15.3739 12.7126 15.3625 12.3493 15.5077 12.0054C15.6566 11.6518 15.9224 11.391 16.3049 11.223C16.6874 11.0551 17.0559 11.0374 17.4103 11.1699C17.7685 11.2928 18.0316 11.5456 18.1995 11.9281C18.3675 12.3106 18.3785 12.6821 18.2325 13.0424C18.0903 13.393 17.8279 13.6523 17.4454 13.8203ZM18.8113 16.9309C18.4288 17.0989 18.057 17.1181 17.6958 16.9885C17.3385 16.8492 17.0758 16.5883 16.9078 16.2057C16.7399 15.8232 16.7285 15.46 16.8736 15.116C17.0226 14.7624 17.2883 14.5017 17.6708 14.3337C18.0534 14.1657 18.4218 14.148 18.7763 14.2806C19.1344 14.4035 19.3975 14.6562 19.5655 15.0387C19.7335 15.4213 19.7444 15.7927 19.5985 16.153C19.4562 16.5036 19.1939 16.7629 18.8113 16.9309ZM22.2683 9.85327C23.2548 9.42007 24.071 9.30984 24.7168 9.52259C25.3663 9.72569 25.8384 10.1628 26.1331 10.8339C26.3276 11.2769 26.39 11.7378 26.3201 12.2168C26.254 12.6861 26.0309 13.1443 25.6509 13.5914C25.2679 14.0317 24.7173 14.4096 23.9992 14.7249C23.5026 14.943 22.9824 15.1074 22.4386 15.2181C21.9015 15.3258 21.4027 15.3567 20.9423 15.3107L20.9785 13.2055C21.3474 13.2436 21.7121 13.2355 22.0726 13.1813C22.4397 13.1242 22.7777 13.0278 23.0864 12.8923C23.3615 12.7714 23.5624 12.6272 23.6889 12.4596C23.8192 12.2823 23.846 12.1064 23.7694 11.9319C23.6957 11.7641 23.564 11.6739 23.3743 11.6611C23.1816 11.6416 22.884 11.7203 22.4813 11.8971L20.4377 12.7945L18.9114 8.36138L23.5924 6.30586L24.3793 8.09775L21.6512 9.2957L21.9059 10.0124L22.2683 9.85327Z" fill="white"/>
</svg>
