<svg width="21" height="21" viewBox="0 0 21 21" fill="none" xmlns="http://www.w3.org/2000/svg">
<path d="M19.3097 17.2266C18.1592 15.2428 16.373 13.7052 14.2402 12.8625C15.287 12.0774 16.0602 10.9829 16.4504 9.73389C16.8405 8.48492 16.8278 7.14486 16.414 5.90352C16.0002 4.66218 15.2064 3.5825 14.1449 2.81741C13.0834 2.05233 11.8081 1.64063 10.4996 1.64062C9.19109 1.64063 7.91577 2.05233 6.85427 2.81741C5.79277 3.5825 4.9989 4.66218 4.58513 5.90352C4.17135 7.14486 4.15863 8.48492 4.54878 9.73389C4.93893 10.9829 5.71216 12.0774 6.75895 12.8625C4.62611 13.7052 2.83995 15.2428 1.68942 17.2266C1.55888 17.4528 1.52357 17.7217 1.59126 17.974C1.65895 18.2263 1.82409 18.4413 2.05035 18.5719C2.27662 18.7024 2.54547 18.7377 2.79776 18.67C3.05006 18.6023 3.26513 18.4372 3.39567 18.2109C4.11567 16.964 5.1512 15.9285 6.39819 15.2086C7.64518 14.4887 9.05969 14.1097 10.4996 14.1097C11.9395 14.1097 13.354 14.4887 14.601 15.2086C15.8479 15.9285 16.8835 16.964 17.6035 18.2109C17.6906 18.3601 17.8151 18.484 17.9647 18.5703C18.1143 18.6566 18.2839 18.7024 18.4566 18.7031C18.6295 18.7045 18.7995 18.6592 18.9488 18.5719C19.0609 18.5073 19.1591 18.4212 19.2379 18.3187C19.3168 18.2161 19.3746 18.099 19.4081 17.974C19.4416 17.8491 19.4502 17.7188 19.4333 17.5905C19.4164 17.4622 19.3744 17.3386 19.3097 17.2266ZM6.23395 7.875C6.23395 7.03134 6.48412 6.20662 6.95284 5.50515C7.42155 4.80367 8.08775 4.25693 8.86719 3.93408C9.64663 3.61122 10.5043 3.52675 11.3318 3.69134C12.1592 3.85593 12.9193 4.26219 13.5158 4.85875C14.1124 5.45531 14.5186 6.21537 14.6832 7.04282C14.8478 7.87027 14.7634 8.72794 14.4405 9.50738C14.1176 10.2868 13.5709 10.953 12.8694 11.4217C12.1679 11.8905 11.3432 12.1406 10.4996 12.1406C9.36826 12.1406 8.28328 11.6912 7.48332 10.8913C6.68336 10.0913 6.23395 9.00631 6.23395 7.875Z" fill="#191E26"/>
</svg>
