<svg width="63" height="56" viewBox="0 0 63 56" fill="none" xmlns="http://www.w3.org/2000/svg">
<path d="M24.84 35.951L11.8693 23.2655L7.91285 27.1687L8.90196 28.1445L7.91285 29.1203L13.8475 34.9752C14.1098 35.234 14.2572 35.585 14.2572 35.951C14.2572 36.317 14.1098 36.668 13.8475 36.9268L12.8584 37.9027C12.3338 38.4203 12.039 39.1223 12.039 39.8543C12.039 40.5863 12.3338 41.2883 12.8584 41.8059L16.2016 45.1042C16.5775 45.475 16.706 46.0312 16.5379 46.5288L15.5453 48.9463C15.3772 49.444 15.5057 49.9807 15.8816 50.3515L19.7822 54.4915C19.7822 54.4915 22.2945 55.09 22.7495 51.564C22.7495 51.564 23.7386 44.7333 27.6951 48.6366L32.6406 43.7575L31.6515 42.7817L32.43 36.0902L30.36 36.9268L24.84 35.951ZM13.8475 38.8785L14.8366 37.9027C15.099 37.6439 15.4548 37.4985 15.8257 37.4985C16.1967 37.4985 16.5525 37.6439 16.8149 37.9027L17.804 38.8785C17.804 38.8785 17.804 40.8301 15.8257 40.8301C16.3504 41.3477 17.062 41.6385 17.804 41.6385C18.5459 41.6385 19.2575 41.3477 19.7822 40.8301C20.0445 41.0889 20.1919 41.4399 20.1919 41.8059C20.1919 42.1719 20.0445 42.5229 19.7822 42.7817L18.7931 43.7575C18.5307 44.0163 18.175 44.1617 17.804 44.1617C17.433 44.1617 17.0772 44.0163 16.8149 43.7575L13.8475 40.8301C13.5852 40.5713 13.4378 40.2203 13.4378 39.8543C13.4378 39.4883 13.5852 39.1373 13.8475 38.8785Z" fill="#191E26"/>
<path d="M36.5695 35.9514L50.2302 23.2658L54.1866 27.1691L53.1975 28.1449L54.1866 29.1207L48.252 34.9756C47.9896 35.2344 47.8423 35.5854 47.8423 35.9514C47.8423 36.3174 47.9896 36.6684 48.252 36.9272L49.2411 37.903C49.7657 38.4206 50.0605 39.1227 50.0605 39.8547C50.0605 40.5867 49.7657 41.2887 49.2411 41.8063L45.8979 45.1045C45.522 45.4754 45.3934 46.0316 45.5616 46.5292L46.5542 48.9467C46.7223 49.4443 46.5938 49.981 46.2179 50.3519L42.3173 54.4919C42.3173 54.4919 39.805 55.0904 39.35 51.5644C39.35 51.5644 38.3609 44.7337 34.4044 48.637L29.4589 43.7579L30.448 42.7821L29.9534 41.3184L31.0495 35.9514L36.5695 35.9514ZM48.252 38.8789L47.2629 37.903C47.0005 37.6442 46.6447 37.4988 46.2737 37.4989C45.9028 37.4988 45.547 37.6442 45.2846 37.903L44.2955 38.8789C44.2955 38.8789 44.2955 40.8305 46.2737 40.8305C45.7491 41.3481 45.0375 41.6389 44.2955 41.6389C43.5536 41.6389 42.842 41.3481 42.3173 40.8305C42.055 41.0893 41.9076 41.4403 41.9076 41.8063C41.9076 42.1723 42.055 42.5233 42.3173 42.7821L43.3064 43.7579C43.5687 44.0167 43.9245 44.1621 44.2955 44.1621C44.6665 44.1621 45.0223 44.0167 45.2846 43.7579L48.252 40.8305C48.5143 40.5717 48.6617 40.2207 48.6617 39.8547C48.6617 39.4887 48.5143 39.1377 48.252 38.8789Z" fill="#191E26"/>
<path d="M46.9195 19.5304V18.1505L45.5395 18.1504L31.0494 18.1503C28.2968 18.1503 26.113 18.1503 24.2985 18.1503C20.8376 18.1502 18.7197 18.1502 16.5592 18.1504L15.1793 18.1506V19.5304C15.1793 28.6151 22.2248 36.0904 31.0494 36.0904C39.874 36.0904 46.9195 28.6151 46.9195 19.5304Z" fill="#191E26" stroke="#F2F4FF" stroke-width="2.76002"/>
<path d="M20.9213 7.85694C21.7854 7.85694 22.5381 7.99946 23.1794 8.28451C23.8208 8.56955 24.3152 8.9793 24.6626 9.51376C25.01 10.0482 25.1837 10.6718 25.1837 11.3844C25.1837 12.097 25.01 12.7205 24.6626 13.255C24.3152 13.7894 23.8208 14.1992 23.1794 14.4842C22.5381 14.7693 21.7854 14.9118 20.9213 14.9118H19.5718V17.21H16.4185V7.85694H20.9213ZM20.7209 12.48C21.1485 12.48 21.4692 12.3865 21.6829 12.1994C21.8967 12.0034 22.0036 11.7318 22.0036 11.3844C22.0036 11.037 21.8967 10.7697 21.6829 10.5827C21.4692 10.3867 21.1485 10.2887 20.7209 10.2887H19.5718V12.48H20.7209ZM37.1506 7.85694L33.1956 17.21H30.0958L26.1408 7.85694H29.5346L31.7659 13.3218L34.0508 7.85694H37.1506ZM43.0361 7.85694C43.9002 7.85694 44.6529 7.99946 45.2942 8.28451C45.9356 8.56955 46.4299 8.9793 46.7773 9.51376C47.1247 10.0482 47.2984 10.6718 47.2984 11.3844C47.2984 12.097 47.1247 12.7205 46.7773 13.255C46.4299 13.7894 45.9356 14.1992 45.2942 14.4842C44.6529 14.7693 43.9002 14.9118 43.0361 14.9118H41.6866V17.21H38.5333V7.85694H43.0361ZM42.8357 12.48C43.2633 12.48 43.5839 12.3865 43.7977 12.1994C44.0115 12.0034 44.1184 11.7318 44.1184 11.3844C44.1184 11.037 44.0115 10.7697 43.7977 10.5827C43.5839 10.3867 43.2633 10.2887 42.8357 10.2887H41.6866V12.48H42.8357Z" fill="#191E26"/>
<path d="M27.9922 21.109V29.5117H25.1593V23.2457H23.7188V21.109H27.9922ZM31.461 25.9226C31.0048 25.9226 30.6247 25.7785 30.3206 25.4904C30.0245 25.1943 29.8765 24.8182 29.8765 24.3621C29.8765 23.9059 30.0245 23.5378 30.3206 23.2577C30.6247 22.9696 31.0048 22.8256 31.461 22.8256C31.9171 22.8256 32.2932 22.9696 32.5893 23.2577C32.8934 23.5378 33.0455 23.9059 33.0455 24.3621C33.0455 24.8182 32.8934 25.1943 32.5893 25.4904C32.2932 25.7785 31.9171 25.9226 31.461 25.9226ZM31.461 29.6318C31.0048 29.6318 30.6247 29.4877 30.3206 29.1996C30.0245 28.9035 29.8765 28.5274 29.8765 28.0713C29.8765 27.6151 30.0245 27.247 30.3206 26.9669C30.6247 26.6788 31.0048 26.5348 31.461 26.5348C31.9171 26.5348 32.2932 26.6788 32.5893 26.9669C32.8934 27.247 33.0455 27.6151 33.0455 28.0713C33.0455 28.5274 32.8934 28.9035 32.5893 29.1996C32.2932 29.4877 31.9171 29.6318 31.461 29.6318ZM38.5758 21.109V29.5117H35.7429V23.2457H34.3024V21.109H38.5758Z" fill="white"/>
</svg>
